{
.appVersion = "3145";
.formatVersion = 3;
axes = (
{
name = Weight;
tag = wght;
}
);
classes = (
{
code = "dotcenter-ar
dotcenter_threedotsdownbelow-ar
twodotshorizontalcenter-ar
twodotshorizontalcenter_tahabove-ar
twodotsverticalcenter-ar
threedotsupcenter-ar
threedotsdowncenter-ar
fourdotscenter-ar
#fourcenter-ar
tahcenter-ar
vinvertedcenter-ar
";
name = dotcenter;
},
{
code = "dotbelow-ar
dotbelow_threedotsdownbelow-ar
twodotshorizontalbelow-ar
twodotshorizontalbelow_tahabove-ar
twodotsverticalbelow-ar
threedotsupbelow-ar
threedotsdownbelow-ar
fourdotsbelow-ar
#fourbelow-ar
tahbelow-ar
vinvertedbelow-ar
";
name = dotbelow;
},
{
code = "hamzaabove-ar
wasla-ar
madda-ar
shadda-ar
fatha-ar
damma-ar
fathatan-ar
dammatan-ar
sukun-ar
kasra-ar
kasratan-ar
";
name = marktop;
},
{
code = "dotbelow-ar
twodotshorizontalbelow-ar
twodotsverticalbelow-ar
threedotsupbelow-ar
threedotsdownbelow-ar
fourdotsbelow-ar
vbelow-ar
vinvertedbelow-ar
ring-ar
ringbelow-ar
";
name = behdotbelow;
},
{
code = "dotbelow-ar.alt
twodotshorizontalbelow-ar.alt
twodotsverticalbelow-ar.alt
threedotsupbelow-ar.alt
threedotsdownbelow-ar.alt
fourdotsbelow-ar.alt
vbelow-ar.alt
vinvertedbelow-ar.alt
ring-ar.alt
ringbelow-ar.alt
";
name = behdotbelow.alt;
},
{

glyphs = (
{
color = 3;
glyphname = A;
kernLeft = A;
kernRight = A;
layers = (
{
anchors = (
{
name = bottom;
pos = (343,0);
},
{
name = ogonek;
pos = (630,0);
},
{
name = top;
pos = (345,658);
}
);
layerId = "3114FB65-9464-41A5-B67E-A8F9F43C0EF1";
shapes = (
{
closed = 1;
nodes = (
(630,0,l),
(362,658,l),
(330,658,l),
(55,0,l),
(93,0,l),
(350,635,l),
(336,635,l),
(590,0,l)
);
},
{
closed = 1;
nodes = (
(507,255,l),
(491,285,l),
(186,285,l),
(175,255,l)
);
}
);
width = 684;
},
{
anchors = (
{
name = bottom;
pos = (340,0);
},
{
name = ogonek;
pos = (643,0);
},
{
name = top;
pos = (342,658);
}
);
layerId = "14EEE41F-D714-4243-A717-73445EE7DABA";
shapes = (
{
closed = 1;
nodes = (
(643,0,l),
(386,658,l),
(305,658,l),
(36,0,l),
(132,0,l),
(354,607,l),
(317,607,l),
(540,0,l)
);
},
{
closed = 1;
nodes = (
(513,210,l),
(473,285,l),
(181,285,l),
(154,210,l)
);
}
);
width = 678;
},
{
anchors = (
{
name = bottom;
pos = (346,0);
},
{
name = ogonek;
pos = (676,0);
},
{
name = top;
pos = (347,658);
}
);
layerId = "090CB6A0-BE7C-4D17-A551-206C7456A8A3";
shapes = (
{
closed = 1;
nodes = (
(676,0,l),
(432,658,l),
(272,658,l),
(19,0,l),
(177,0,l),
(358,570,l),
(317,570,l),
(494,0,l)
);
},
{
closed = 1;
nodes = (
(537,154,l),
(477,273,l),
(179,273,l),
(135,154,l)
);
}
);
width = 695;
}
);
unicode = 65;
},
{
color = 3;
glyphname = Aogonek;
kernLeft = A;
kernRight = A;
layers = (
{
layerId = "3114FB65-9464-41A5-B67E-A8F9F43C0EF1";
shapes = (
{
closed = 1;
nodes = (
(616,-289,o),
(641,-279,o),
(666,-259,c),
(654,-239,l),
(636,-255,o),
(617,-262,o),
(590,-262,cs),
(529,-262,o),
(495,-224,o),
(495,-170,cs),
(495,-112,o),
(535,-49,o),
(630,0,c),
(606,15,l),
(500,-41,o),
(459,-113,o),
(459,-177,cs),
(459,-245,o),
(505,-289,o),
(580,-289,cs)
);
},
{
ref = A;
}
);
width = 720;
},
{
layerId = "14EEE41F-D714-4243-A717-73445EE7DABA";
shapes = (
{
closed = 1;
nodes = (
(630,-289,o),
(660,-279,o),
(689,-259,c),
(667,-212,l),
(653,-221,o),
(638,-225,o),
(620,-225,cs),
(562,-225,o),
(535,-185,o),
(535,-140,cs),
(535,-89,o),
(568,-39,o),
(643,0,c),
(581,32,l),
(483,-23,o),
(443,-95,o),
(443,-161,cs),
(443,-238,o),
(496,-289,o),
(589,-289,cs)
);
},
{
ref = A;
}
);
width = 724;
},
{
layerId = "090CB6A0-BE7C-4D17-A551-206C7456A8A3";
shapes = (
{
closed = 1;
nodes = (
(646,-289,o),
(684,-275,o),
(720,-250,c),
(691,-187,l),
(679,-192,o),
(666,-194,o),
(654,-194,cs),
(602,-194,o),
(581,-158,o),
(581,-118,cs),
(581,-71,o),
(610,-32,o),
(676,0,c),
(593,41,l),
(481,-13,o),
(434,-82,o),
(434,-153,cs),
(434,-233,o),
(491,-289,o),
(596,-289,cs)
);
},
{
ref = A;
}
);
width = 739;
}
);
metricLeft = A;
metricRight = A;
unicode = 260;
},
{
color = 3;
glyphname = AE;
kernLeft = A;
layers = (
{
anchors = (
{
name = bottom;
pos = (432,0);
},
{
name = top;
pos = (550,658);
}
);
layerId = "3114FB65-9464-41A5-B67E-A8F9F43C0EF1";
shapes = (
{
closed = 1;
nodes = (
(47,0,l),
(439,658,l),
(407,658,l),
(4,0,l)
);
},
{
closed = 1;
nodes = (
(443,235,l),
(443,266,l),
(189,266,l),
(171,235,l)
);
},
{
closed = 1;
nodes = (
(736,319,l),
(736,349,l),
(442,349,l),
(442,319,l)
);
},
{
closed = 1;
nodes = (
(804,0,l),
(804,30,l),
(458,30,l),
(458,628,l),
(774,628,l),
(774,658,l),
(424,658,l),
(424,0,l)
);
}
);
width = 851;
},
{
anchors = (
{
name = bottom;
pos = (448,0);
},
{
name = top;
pos = (545,658);
}
);
layerId = "14EEE41F-D714-4243-A717-73445EE7DABA";
shapes = (
{
closed = 1;
nodes = (
(104,0,l),
(469,658,l),
(390.007,658,l),
(-5,0,l)
);
},
{
closed = 1;
nodes = (
(482,214,l),
(482,290,l),
(229,290,l),
(188,214,l)
);
},
{
closed = 1;
nodes = (
(763,295,l),
(763,371,l),
(481,371,l),
(481,295,l)
);
},
{
closed = 1;
nodes = (
(831,0,l),
(831,76,l),
(523,76,l),
(523,582,l),
(801,582,l),
(801,658,l),
(436,658,l),
(436,0,l)
);
}
);
width = 877;
},
{
anchors = (
{
name = bottom;
pos = (490,0);
},
{
name = top;
pos = (554,658);
}
);
layerId = "090CB6A0-BE7C-4D17-A551-206C7456A8A3";
shapes = (
{
closed = 1;
nodes = (
(153,0,l),
(498,658,l),
(364,658,l),
(-14,0,l)
);
},
{
closed = 1;
nodes = (
(500,179,l),
(500,294,l),
(229,294,l),
(197,179,l)
);
},
{
closed = 1;
nodes = (
(801,275,l),
(801,390,l),
(544,390,l),
(544,275,l)
);
},
{
closed = 1;
nodes = (
(866,0,l),
(866,120,l),
(585,120,l),
(585,538,l),
(841,538,l),
(841,658,l),
(439,658,l),
(439,0,l)
);
}
);
width = 903;
}
);
unicode = 198;
},
{
color = 3;
glyphname = B;
kernRight = B;
layers = (
{
anchors = (
{
name = bottom;
pos = (288,0);
},
{
name = top;
pos = (288,658);
}
);
layerId = "3114FB65-9464-41A5-B67E-A8F9F43C0EF1";
shapes = (
{
closed = 1;
nodes = (
(402,332,o),
(476,402,o),
(476,501,cs),
(476,599,o),
(404,658,o),
(282,658,cs),
(119,658,l),
(119,0,l),
(307,0,ls),
(438,0,o),
(523,74,o),
(523,180,cs),
(523,288,o),
(434,355,o),
(301,355,c),
(296,332,l)
);
},
{
closed = 1;
nodes = (
(142,329,l),
(294,329,ls),
(415,329,o),
(487,272,o),
(487,180,cs),
(487,90,o),
(419,29,o),
(311,29,cs),
(155,29,l),
(155,629,l),
(277,629,ls),
(388,629,o),
(442,578,o),
(442,496,cs),
(442,412,o),
(384,357,o),
(299,357,cs),
(142,357,l)
);
}
);
width = 575;
},
{
anchors = (
{
name = bottom;
pos = (292,0);
},
{
name = top;
pos = (292,658);
}
);
layerId = "14EEE41F-D714-4243-A717-73445EE7DABA";
shapes = (
{
closed = 1;
nodes = (
(407,316,o),
(497,399,o),
(497,500,cs),
(497,596,o),
(417,658,o),
(295,658,cs),
(103,658,l),
(103,0,l),
(293,0,ls),
(445,0,o),
(540,77,o),
(540,189,cs),
(540,299,o),
(444,370,o),
(304,370,c),
(289,316,l)
);
},
{
closed = 1;
nodes = (
(163,310,l),
(284,310,ls),
(394,310,o),
(446,263,o),
(446,189,cs),
(446,116,o),
(397,68,o),
(307,68,cs),
(192,68,l),
(192,590,l),
(280,590,ls),
(374,590,o),
(409,542,o),
(409,482,cs),
(409,417,o),
(364,376,o),
(299,376,cs),
(163,376,l)
);
}
);
width = 587;
},
{
anchors = (
{
name = bottom;
pos = (325,0);
},
{
name = top;
pos = (325,658);
}
);
layerId = "090CB6A0-BE7C-4D17-A551-206C7456A8A3";
shapes = (
{
closed = 1;
nodes = (
(430,307,o),
(538,389,o),
(538,503,cs),
(538,598,o),
(449,658,o),
(330,658,cs),
(87,658,l),
(87,0,l),
(315,0,ls),
(478,0,o),
(581,83,o),
(581,198,cs),
(581,313,o),
(475,384,o),
(329,384,c),
(316,307,l)
);
},
{
closed = 1;
nodes = (
(195,285,l),
(305,285,ls),
(385,285,o),
(418,251,o),
(418,198,cs),
(418,145,o),
(387,113,o),
(323,113,cs),
(233,113,l),
(233,548,l),
(304,548,ls),
(375,548,o),
(396,510,o),
(396,470,cs),
(396,423,o),
(364,394,o),
(316,394,cs),
(195,394,l)
);
}
);
width = 620;
}
);
metricLeft = E;
unicode = 66;
},
{
color = 3;
glyphname = C;
kernLeft = O;
kernRight = C;
layers = (
{
anchors = (
{
name = bottom;
pos = (378,0);
},
{
name = top;
pos = (379,658);
}
);
layerId = "3114FB65-9464-41A5-B67E-A8F9F43C0EF1";
shapes = (
{
closed = 1;
nodes = (
(480,-7,o),
(547,17,o),
(610,61,c),
(592,90,l),
(538,46,o),
(474,22,o),
(398,22,cs),
(226,22,o),
(99,145,o),
(99,330,cs),
(99,509,o),
(216,636,o),
(392,636,cs),
(466,636,o),
(524,615,o),
(579,580,c),
(597,611,l),
(540,645,o),
(476,665,o),
(401,665,cs),
(199,665,o),
(60,525,o),
(60,325,cs),
(60,126,o),
(198,-7,o),
(396,-7,cs)
);
}
);
width = 653;
},
{
anchors = (
{
name = bottom;
pos = (386,0);
},
{
name = top;
pos = (389,658);
}
);
layerId = "14EEE41F-D714-4243-A717-73445EE7DABA";
shapes = (
{
closed = 1;
nodes = (
(479,-11,o),
(555,12,o),
(622,56,c),
(582,132,l),
(537,87,o),
(475,59,o),
(403,59,cs),
(267,59,o),
(158,169,o),
(158,336,cs),
(158,495,o),
(247,597,o),
(388,597,cs),
(454,597,o),
(512,574,o),
(570,528,c),
(614,612,l),
(551,650,o),
(481,669,o),
(409,669,cs),
(210,669,o),
(55,535,o),
(55,320,cs),
(55,123,o),
(192,-11,o),
(395,-11,cs)
);
}
);
width = 652;
},
{
anchors = (
{
name = bottom;
pos = (390,0);
},
{
name = top;
pos = (399,658);
}
);
layerId = "090CB6A0-BE7C-4D17-A551-206C7456A8A3";
shapes = (
{
closed = 1;
nodes = (
(477,-15,o),
(563,5,o),
(634,50,c),
(579,167,l),
(544,128,o),
(491,98,o),
(424,98,cs),
(317,98,o),
(235,188,o),
(235,340,cs),
(235,483,o),
(299,559,o),
(401,559,cs),
(459,559,o),
(512,535,o),
(566,489,c),
(627,619,l),
(561,656,o),
(484,673,o),
(413,673,cs),
(206,673,o),
(50,538,o),
(50,316,cs),
(50,117,o),
(182,-15,o),
(393,-15,cs)
);
}
);
width = 656;
}
);
metricLeft = "=O";
unicode = 67;
},
{
color = 3;
glyphname = D;
kernRight = O;
layers = (
{
anchors = (
{
name = bottom;
pos = (346,0);
},
{
name = center;
pos = (213,328);
},
{
name = top;
pos = (340,658);
}
);
layerId = "3114FB65-9464-41A5-B67E-A8F9F43C0EF1";
shapes = (
{
closed = 1;
nodes = (
(321,0,ls),
(566,0,o),
(683,159,o),
(683,333,cs),
(683,527,o),
(539,658,o),
(313,658,cs),
(119,658,l),
(119,0,l)
);
},
{
closed = 1;
nodes = (
(156,629,l),
(308,629,ls),
(526,629,o),
(644,500,o),
(644,328,cs),
(644,166,o),
(541,28,o),
(323,28,cs),
(156,28,l)
);
}
);
width = 743;
},
{
anchors = (
{
name = bottom;
pos = (343,0);
},
{
name = center;
pos = (218,328);
},
{
name = top;
pos = (332,658);
}
);
layerId = "14EEE41F-D714-4243-A717-73445EE7DABA";
shapes = (
{
closed = 1;
nodes = (
(305,0,ls),
(576,0,o),
(682,177,o),
(682,342,cs),
(682,540,o),
(529,658,o),
(313,658,cs),
(103,658,l),
(103,0,l)
);
},
{
closed = 1;
nodes = (
(198,587,l),
(298,587,ls),
(499,587,o),
(581,468,o),
(581,326,cs),
(581,192,o),
(516,69,o),
(313,69,cs),
(198,69,l)
);
}
);
width = 737;
},
{
anchors = (
{
name = bottom;
pos = (360,0);
},
{
name = center;
pos = (211,328);
},
{
name = top;
pos = (352,658);
}
);
layerId = "090CB6A0-BE7C-4D17-A551-206C7456A8A3";
shapes = (
{
closed = 1;
nodes = (
(307,0,ls),
(570,0,o),
(700,155,o),
(700,347,cs),
(700,555,o),
(536,658,o),
(321,658,cs),
(87,658,l),
(87,0,l)
);
},
{
closed = 1;
nodes = (
(251,547,l),
(312,547,ls),
(472,547,o),
(526,443,o),
(526,321,cs),
(526,206,o),
(482,108,o),
(321,108,cs),
(251,108,l)
);
}
);
width = 750;
}
);
metricLeft = H;
metricRight = O;
unicode = 68;
},
{
color = 3;
glyphname = Eth;
kernRight = O;
layers = (
{
layerId = "3114FB65-9464-41A5-B67E-A8F9F43C0EF1";
shapes = (
{
closed = 1;
nodes = (
(381,314,l),
(381,343,l),
(24,343,l),
(24,314,l)
);
},
{
pos = (2,0);
ref = D;
}
);
width = 745;
},
{
layerId = "14EEE41F-D714-4243-A717-73445EE7DABA";
shapes = (
{
closed = 1;
nodes = (
(389,293,l),
(389,364,l),
(27,364,l),
(27,293,l)
);
},
{
pos = (8,0);
ref = D;
}
);
width = 745;
},
{
layerId = "090CB6A0-BE7C-4D17-A551-206C7456A8A3";
shapes = (
{
closed = 1;
nodes = (
(411,274,l),
(411,384,l),
(22,384,l),
(22,274,l)
);
},
{
pos = (16,0);
ref = D;
}
);
width = 766;
}
);
metricRight = D;
unicode = 208;
},
{
color = 3;
glyphname = E;
layers = (
{
anchors = (
{
name = bottom;
pos = (315,0);
},
{
name = ogonek;
pos = (521,0);
},
{
name = top;
pos = (315,658);
},
{
name = topleft;
pos = (60,658);
}
);
layerId = "3114FB65-9464-41A5-B67E-A8F9F43C0EF1";
shapes = (
{
closed = 1;
nodes = (
(521,30,l),
(155,30,l),
(155,628,l),
(492,628,l),
(492,658,l),
(119,658,l),
(119,0,l),
(521,0,l)
);
},
{
closed = 1;
nodes = (
(454,319,l),
(454,349,l),
(133,349,l),
(133,319,l)
);
}
);
width = 579;
},
{
anchors = (
{
name = bottom;
pos = (315,0);
},
{
name = ogonek;
pos = (526,0);
},
{
name = top;
pos = (315,658);
},
{
name = topleft;
pos = (60,658);
}
);
layerId = "14EEE41F-D714-4243-A717-73445EE7DABA";
shapes = (
{
closed = 1;
nodes = (
(526,76,l),
(196,76,l),
(196,582,l),
(493,582,l),
(493,658,l),
(103,658,l),
(103,0,l),
(526,0,l)
);
},
{
closed = 1;
nodes = (
(455,297,l),
(455,371,l),
(134,371,l),
(134,297,l)
);
}
);
width = 579;
},
{
anchors = (
{
name = bottom;
pos = (319,0);
},
{
name = ogonek;
pos = (544,0);
},
{
name = top;
pos = (318,658);
},
{
name = topleft;
pos = (64,658);
}
);
layerId = "090CB6A0-BE7C-4D17-A551-206C7456A8A3";
shapes = (
{
closed = 1;
nodes = (
(544,120,l),
(249,120,l),
(249,538,l),
(515,538,l),
(515,658,l),
(87,658,l),
(87,0,l),
(544,0,l)
);
},
{
closed = 1;
nodes = (
(475,277,l),
(475,390,l),
(138,390,l),
(138,277,l)
);
}
);
width = 587;
}
);
metricLeft = H;
unicode = 69;
},
{
color = 3;
glyphname = Eogonek;
layers = (
{
layerId = "3114FB65-9464-41A5-B67E-A8F9F43C0EF1";
shapes = (
{
closed = 1;
nodes = (
(507,-289,o),
(532,-279,o),
(557,-259,c),
(545,-239,l),
(527,-254,o),
(507,-262,o),
(481,-262,cs),
(420,-262,o),
(386,-224,o),
(386,-170,cs),
(386,-111,o),
(426,-49,o),
(521,0,c),
(507,17,l),
(393,-39,o),
(350,-112,o),
(350,-177,cs),
(350,-245,o),
(396,-289,o),
(471,-289,cs)
);
},
{
ref = E;
}
);
width = 579;
},
{
layerId = "14EEE41F-D714-4243-A717-73445EE7DABA";
shapes = (
{
closed = 1;
nodes = (
(513,-289,o),
(543,-279,o),
(572,-259,c),
(550,-212,l),
(536,-221,o),
(520,-225,o),
(503,-225,cs),
(445,-225,o),
(418,-185,o),
(418,-140,cs),
(418,-89,o),
(451,-39,o),
(526,0,c),
(495,39,l),
(375,-18,o),
(326,-93,o),
(326,-161,cs),
(326,-238,o),
(379,-289,o),
(472,-289,cs)
);
},
{
ref = E;
}
);
width = 579;
},
{
layerId = "090CB6A0-BE7C-4D17-A551-206C7456A8A3";
shapes = (
{
closed = 1;
nodes = (
(510,-289,o),
(548,-275,o),
(584,-250,c),
(555,-187,l),
(542,-193,o),
(529,-195,o),
(518,-195,cs),
(470,-195,o),
(449,-161,o),
(449,-123,cs),
(449,-78,o),
(479,-30,o),
(544,0,c),
(494,47,l),
(358,-9,o),
(302,-80,o),
(302,-153,cs),
(302,-233,o),
(358,-289,o),
(460,-289,cs)
);
},
{
ref = E;
}
);
width = 587;
}
);
unicode = 280;
},
{
color = 3;
glyphname = F;
kernRight = F;
layers = (
{
anchors = (
{
name = bottom;
pos = (269,0);
},
{
name = top;
pos = (269,658);
}
);
layerId = "3114FB65-9464-41A5-B67E-A8F9F43C0EF1";
shapes = (
{
closed = 1;
nodes = (
(156,0,l),
(156,628,l),
(493,628,l),
(493,658,l),
(119,658,l),
(119,0,l)
);
},
{
closed = 1;
nodes = (
(455,298,l),
(455,328,l),
(134,328,l),
(134,298,l)
);
}
);
width = 542;
},
{
anchors = (
{
name = bottom;
pos = (273,0);
},
{
name = top;
pos = (273,658);
}
);
layerId = "14EEE41F-D714-4243-A717-73445EE7DABA";
shapes = (
{
closed = 1;
nodes = (
(198,0,l),
(198,582,l),
(496,582,l),
(496,658,l),
(103,658,l),
(103,0,l)
);
},
{
closed = 1;
nodes = (
(458,273,l),
(458,348,l),
(134,348,l),
(134,273,l)
);
}
);
width = 540;
},
{
anchors = (
{
name = bottom;
pos = (282,0);
},
{
name = top;
pos = (282,658);
}
);
layerId = "090CB6A0-BE7C-4D17-A551-206C7456A8A3";
shapes = (
{
closed = 1;
nodes = (
(251,0,l),
(251,534,l),
(523,534,l),
(523,658,l),
(87,658,l),
(87,0,l)
);
},
{
closed = 1;
nodes = (
(485,239,l),
(485,362,l),
(138,362,l),
(138,239,l)
);
}
);
width = 561;
}
);
metricLeft = E;
unicode = 70;
},
{
color = 3;
glyphname = G;
kernLeft = O;
layers = (
{
anchors = (
{
name = bottom;
pos = (419,0);
},
{
name = top;
pos = (407,658);
}
);
layerId = "3114FB65-9464-41A5-B67E-A8F9F43C0EF1";
shapes = (
{
closed = 1;
nodes = (
(495,-7,o),
(574,13,o),
(638,49,c),
(638,285,l),
(430,285,l),
(430,256,l),
(602,256,l),
(602,49,l),
(620,74,l),
(562,40,o),
(493,22,o),
(422,22,cs),
(233,22,o),
(99,146,o),
(99,330,cs),
(99,507,o),
(224,636,o),
(413,636,cs),
(489,636,o),
(559,613,o),
(617,562,c),
(635,595,l),
(578,642,o),
(503,665,o),
(420,665,cs),
(205,665,o),
(60,521,o),
(60,325,cs),
(60,126,o),
(207,-7,o),
(417,-7,cs)
);
}
);
width = 719;
},
{
anchors = (
{
name = bottom;
pos = (418,0);
},
{
name = top;
pos = (403,658);
}
);
layerId = "14EEE41F-D714-4243-A717-73445EE7DABA";
shapes = (
{
closed = 1;
nodes = (
(498,-11,o),
(581,7,o),
(648,44,c),
(648,317,l),
(424,317,l),
(424,247,l),
(559,247,l),
(559,44,l),
(608,102,l),
(557,72,o),
(496,59,o),
(436,59,cs),
(270,59,o),
(158,171,o),
(158,334,cs),
(158,488,o),
(251,597,o),
(405,597,cs),
(467,597,o),
(539,578,o),
(602,518,c),
(645,605,l),
(585,649,o),
(502,669,o),
(425,669,cs),
(208,669,o),
(55,522,o),
(55,319,cs),
(55,122,o),
(197,-11,o),
(420,-11,cs)
);
}
);
width = 721;
},
{
anchors = (
{
name = bottom;
pos = (420,0);
},
{
name = top;
pos = (405,658);
}
);
layerId = "090CB6A0-BE7C-4D17-A551-206C7456A8A3";
shapes = (
{
closed = 1;
nodes = (
(502,-15,o),
(594,0,o),
(664,37,c),
(664,344,l),
(419,344,l),
(419,240,l),
(521,240,l),
(521,67,l),
(577,131,l),
(539,108,o),
(491,97,o),
(442,97,cs),
(313,97,o),
(231,183,o),
(231,338,cs),
(231,476,o),
(296,558,o),
(411,558,cs),
(468,558,o),
(527,539,o),
(592,479,c),
(660,618,l),
(593,656,o),
(506,673,o),
(428,673,cs),
(205,673,o),
(50,528,o),
(50,316,cs),
(50,116,o),
(184,-15,o),
(424,-15,cs)
);
}
);
width = 726;
}
);
metricLeft = O;
unicode = 71;
},
{
color = 3;
glyphname = H;
kernRight = H;
layers = (
{
anchors = (
{
name = bottom;
pos = (380,0);
},
{
name = center;
pos = (380,329);
},
{
name = top;
pos = (380,658);
},
{
name = topleft;
pos = (6,658);
}
);
layerId = "3114FB65-9464-41A5-B67E-A8F9F43C0EF1";
shapes = (
{
closed = 1;
nodes = (
(648,0,l),
(648,658,l),
(611,658,l),
(611,0,l)
);
},
{
closed = 1;
nodes = (
(156,0,l),
(156,658,l),
(119,658,l),
(119,0,l)
);
},
{
closed = 1;
nodes = (
(635,319,l),
(635,349,l),
(133,349,l),
(133,319,l)
);
}
);
width = 767;
},
{
anchors = (
{
name = bottom;
pos = (381,0);
},
{
name = center;
pos = (381,329);
},
{
name = top;
pos = (381,658);
},
{
name = topleft;
pos = (16,658);
}
);
layerId = "14EEE41F-D714-4243-A717-73445EE7DABA";
shapes = (
{
closed = 1;
nodes = (
(662,0,l),
(662,658,l),
(567,658,l),
(567,0,l)
);
},
{
closed = 1;
nodes = (
(199,0,l),
(199,658,l),
(103,658,l),
(103,0,l)
);
},
{
closed = 1;
nodes = (
(632,296,l),
(632,373,l),
(134,373,l),
(134,296,l)
);
}
);
width = 765;
},
{
anchors = (
{
name = bottom;
pos = (389,0);
},
{
name = center;
pos = (389,329);
},
{
name = top;
pos = (389,658);
},
{
name = topleft;
pos = (25,658);
}
);
layerId = "090CB6A0-BE7C-4D17-A551-206C7456A8A3";
shapes = (
{
closed = 1;
nodes = (
(690,0,l),
(690,658,l),
(526,658,l),
(526,0,l)
);
},
{
closed = 1;
nodes = (
(252,0,l),
(252,658,l),
(87,658,l),
(87,0,l)
);
},
{
closed = 1;
nodes = (
(622,270,l),
(622,398,l),
(134,398,l),
(134,270,l)
);
}
);
width = 776;
}
);
unicode = 72;
},
{
color = 3;
glyphname = Hbar;
kernRight = H;
layers = (
{
layerId = "3114FB65-9464-41A5-B67E-A8F9F43C0EF1";
shapes = (
{
closed = 1;
nodes = (
(648,0,l),
(648,658,l),
(611,658,l),
(611,0,l)
);
},
{
closed = 1;
nodes = (
(156,0,l),
(156,658,l),
(119,658,l),
(119,0,l)
);
},
{
closed = 1;
nodes = (
(635,197,l),
(635,226,l),
(134,226,l),
(134,197,l)
);
},
{
closed = 1;
nodes = (
(635,442,l),
(635,471,l),
(134,471,l),
(134,442,l)
);
}
);
width = 766;
},
{
layerId = "14EEE41F-D714-4243-A717-73445EE7DABA";
shapes = (
{
closed = 1;
nodes = (
(660,0,l),
(660,658,l),
(565,658,l),
(565,0,l)
);
},
{
closed = 1;
nodes = (
(198,0,l),
(198,658,l),
(103,658,l),
(103,0,l)
);
},
{
closed = 1;
nodes = (
(630,184,l),
(630,255,l),
(134,255,l),
(134,184,l)
);
},
{
closed = 1;
nodes = (
(630,412,l),
(630,483,l),
(134,483,l),
(134,412,l)
);
}
);
width = 763;
},
{
layerId = "090CB6A0-BE7C-4D17-A551-206C7456A8A3";
shapes = (
{
closed = 1;
nodes = (
(689,0,l),
(689,658,l),
(525,658,l),
(525,0,l)
);
},
{
closed = 1;
nodes = (
(251,0,l),
(251,658,l),
(87,658,l),
(87,0,l)
);
},
{
closed = 1;
nodes = (
(628,158,l),
(628,273,l),
(142,273,l),
(142,158,l)
);
},
{
closed = 1;
nodes = (
(628,393,l),
(628,509,l),
(142,509,l),
(142,393,l)
);
}
);
width = 775;
}
);
unicode = 294;
},
{
color = 3;
glyphname = I;
kernRight = H;
layers = (
{
anchors = (
{
name = bottom;
pos = (147,0);
},
{
name = ogonek;
pos = (167,0);
},
{
name = top;
pos = (147,658);
},
{
name = topleft;
pos = (20,658);
}
);
layerId = "3114FB65-9464-41A5-B67E-A8F9F43C0EF1";
shapes = (
{
closed = 1;
nodes = (
(167,0,l),
(167,658,l),
(129,658,l),
(129,0,l)
);
}
);
width = 296;
},
{
anchors = (
{
name = bottom;
pos = (158,0);
},
{
name = ogonek;
pos = (211,0);
},
{
name = top;
pos = (158,658);
},
{
name = topleft;
pos = (21,658);
}
);
layerId = "14EEE41F-D714-4243-A717-73445EE7DABA";
shapes = (
{
closed = 1;
nodes = (
(211,0,l),
(211,658,l),
(113,658,l),
(113,0,l)
);
}
);
width = 324;
},
{
anchors = (
{
name = bottom;
pos = (179,0);
},
{
name = ogonek;
pos = (266,0);
},
{
name = top;
pos = (179,658);
},
{
name = topleft;
pos = (23,658);
}
);
layerId = "090CB6A0-BE7C-4D17-A551-206C7456A8A3";
shapes = (
{
closed = 1;
nodes = (
(266,0,l),
(266,658,l),
(97,658,l),
(97,0,l)
);
}
);
width = 362;
}
);
metricLeft = "=H+10";
metricRight = "=H+10";
unicode = 73;
},
{
color = 3;
glyphname = IJ;
kernLeft = U;
kernRight = U;
layers = (
{
layerId = "3114FB65-9464-41A5-B67E-A8F9F43C0EF1";
shapes = (
{
closed = 1;
nodes = (
(100,274,l),
(100,249,ls),
(100,93,o),
(203,-7,o),
(358,-7,cs),
(517,-7,o),
(619,100,o),
(619,264,cs),
(619,658,l),
(582,658,l),
(582,257,ls),
(582,114,o),
(497,22,o),
(363,22,cs),
(227,22,o),
(138,113,o),
(138,253,cs),
(138,274,l)
);
},
{
closed = 1;
nodes = (
(138,404,l),
(138,658,l),
(100,658,l),
(100,404,l)
);
}
);
width = 717;
},
{
layerId = "14EEE41F-D714-4243-A717-73445EE7DABA";
shapes = (
{
closed = 1;
nodes = (
(90,278,l),
(90,246,ls),
(90,85,o),
(197,-11,o),
(353,-11,cs),
(527,-11,o),
(637,103,o),
(637,276,cs),
(637,658,l),
(542,658,l),
(542,253,ls),
(542,134,o),
(478,59,o),
(368,59,cs),
(258,59,o),
(186,138,o),
(186,258,cs),
(186,278,l)
);
},
{
closed = 1;
nodes = (
(188,399,l),
(188,658,l),
(90,658,l),
(90,399,l)
);
}
);
width = 723;
},
{
layerId = "090CB6A0-BE7C-4D17-A551-206C7456A8A3";
shapes = (
{
closed = 1;
nodes = (
(80,288,l),
(80,249,ls),
(80,83,o),
(192,-15,o),
(359,-15,cs),
(547,-15,o),
(670,104,o),
(670,287,cs),
(670,658,l),
(502,658,l),
(502,246,ls),
(502,153,o),
(461,102,o),
(382,102,cs),
(311,102,o),
(251,150,o),
(251,253,cs),
(251,288,l)
);
},
{
closed = 1;
nodes = (
(252,395,l),
(252,658,l),
(80,658,l),
(80,395,l)
);
}
);
width = 745;
}
);
metricLeft = U;
metricRight = U;
unicode = 306;
},
{
color = 3;
glyphname = Iogonek;
kernRight = H;
layers = (
{
layerId = "3114FB65-9464-41A5-B67E-A8F9F43C0EF1";
shapes = (
{
closed = 1;
nodes = (
(197,-289,o),
(224,-279,o),
(249,-258,c),
(237,-238,l),
(218,-254,o),
(198,-262,o),
(170,-262,cs),
(113,-262,o),
(80,-224,o),
(80,-166,cs),
(80,-111,o),
(106,-48,o),
(167,0,c),
(149,12,l),
(72,-43,o),
(43,-114,o),
(43,-172,cs),
(43,-245,o),
(88,-289,o),
(161,-289,cs)
);
},
{
ref = I;
}
);
width = 296;
},
{
layerId = "14EEE41F-D714-4243-A717-73445EE7DABA";
shapes = (
{
closed = 1;
nodes = (
(223,-289,o),
(257,-278,o),
(288,-257,c),
(265,-210,l),
(248,-220,o),
(230,-225,o),
(210,-225,cs),
(162,-225,o),
(140,-187,o),
(140,-143,cs),
(140,-91,o),
(162,-40,o),
(211,0,c),
(168,23,l),
(80,-31,o),
(44,-102,o),
(44,-163,cs),
(44,-240,o),
(94,-289,o),
(178,-289,cs)
);
},
{
ref = I;
}
);
width = 324;
},
{
layerId = "090CB6A0-BE7C-4D17-A551-206C7456A8A3";
shapes = (
{
closed = 1;
nodes = (
(244,-289,o),
(285,-274,o),
(322,-248,c),
(294,-185,l),
(278,-192,o),
(263,-195,o),
(248,-195,cs),
(209,-195,o),
(192,-162,o),
(192,-127,cs),
(192,-80,o),
(214,-31,o),
(261,0,c),
(193,34,l),
(86,-19,o),
(42,-87,o),
(42,-157,cs),
(42,-235,o),
(95,-289,o),
(190,-289,cs)
);
},
{
alignment = -1;
ref = I;
}
);
width = 354;
}
);
unicode = 302;
},
{
color = 3;
glyphname = J;
kernLeft = J;
kernRight = H;
layers = (
{
anchors = (
{
name = bottom;
pos = (169,0);
},
{
name = top;
pos = (169,658);
}
);
layerId = "3114FB65-9464-41A5-B67E-A8F9F43C0EF1";
shapes = (
{
closed = 1;
nodes = (
(151,-78,o),
(99,-144,o),
(12,-174,c),
(21,-198,l),
(121,-169,o),
(188,-94,o),
(188,36,cs),
(188,658,l),
(151,658,l),
(151,36,ls)
);
}
);
width = 315;
},
{
anchors = (
{
name = bottom;
pos = (164,0);
},
{
name = top;
pos = (164,658);
}
);
layerId = "14EEE41F-D714-4243-A717-73445EE7DABA";
shapes = (
{
closed = 1;
nodes = (
(120,-75,o),
(74,-121,o),
(-11,-152,c),
(13,-208,l),
(132,-177,o),
(215,-114,o),
(215,53,cs),
(215,658,l),
(120,658,l),
(120,53,ls)
);
}
);
width = 317;
},
{
anchors = (
{
name = bottom;
pos = (174,0);
},
{
name = top;
pos = (176,658);
}
);
layerId = "090CB6A0-BE7C-4D17-A551-206C7456A8A3";
shapes = (
{
closed = 1;
nodes = (
(98,-62,o),
(63,-97,o),
(-13,-132,c),
(21,-217,l),
(170,-182,o),
(263,-125,o),
(263,80,cs),
(263,658,l),
(98,658,l),
(98,80,ls)
);
}
);
width = 346;
}
);
unicode = 74;
},
{
color = 3;
glyphname = K;
kernRight = K;
layers = (
{
anchors = (
{
name = bottom;
pos = (329,0);
},
{
name = top;
pos = (325,658);
}
);
layerId = "3114FB65-9464-41A5-B67E-A8F9F43C0EF1";
shapes = (
{
closed = 1;
nodes = (
(572,0,l),
(182,352,l),
(180,330,l),
(531,658,l),
(482,658,l),
(148,338,l),
(517,0,l)
);
},
{
closed = 1;
nodes = (
(155,0,l),
(155,658,l),
(119,658,l),
(119,0,l)
);
}
);
width = 592;
},
{
anchors = (
{
name = bottom;
pos = (342,0);
},
{
name = top;
pos = (335,658);
}
);
layerId = "14EEE41F-D714-4243-A717-73445EE7DABA";
shapes = (
{
closed = 1;
nodes = (
(626,0,l),
(269,366,l),
(261,322,l),
(574,658,l),
(458,658,l),
(183,336,l),
(488,0,l)
);
},
{
closed = 1;
nodes = (
(196,0,l),
(196,658,l),
(103,658,l),
(103,0,l)
);
}
);
width = 628;
},
{
anchors = (
{
name = bottom;
pos = (365,0);
},
{
name = top;
pos = (361,658);
}
);
layerId = "090CB6A0-BE7C-4D17-A551-206C7456A8A3";
shapes = (
{
closed = 1;
nodes = (
(698,0,l),
(369,393,l),
(363,316,l),
(647,658,l),
(464,658,l),
(235,336,l),
(479,0,l)
);
},
{
closed = 1;
nodes = (
(249,0,l),
(249,658,l),
(87,658,l),
(87,0,l)
);
}
);
width = 687;
}
);
metricLeft = H;
unicode = 75;
},
{
color = 3;
glyphname = L;
kernRight = L;
layers = (
{
anchors = (
{
name = bottom;
pos = (320,0);
},
{
name = center;
pos = (137,302);
},
{
name = top;
pos = (140,658);
},
{
name = topright;
pos = (429,711);
}
);
layerId = "3114FB65-9464-41A5-B67E-A8F9F43C0EF1";
shapes = (
{
closed = 1;
nodes = (
(156,0,l),
(156,658,l),
(119,658,l),
(119,0,l)
);
},
{
closed = 1;
nodes = (
(519,0,l),
(519,30,l),
(134,30,l),
(134,0,l)
);
}
);
width = 546;
},
{
anchors = (
{
name = bottom;
pos = (321,0);
},
{
name = center;
pos = (147,320);
},
{
name = top;
pos = (154,658);
},
{
name = topright;
pos = (459,711);
}
);
layerId = "14EEE41F-D714-4243-A717-73445EE7DABA";
shapes = (
{
closed = 1;
nodes = (
(198,0,l),
(198,658,l),
(103,658,l),
(103,0,l)
);
},
{
closed = 1;
nodes = (
(529,0,l),
(529,75,l),
(134,75,l),
(134,0,l)
);
}
);
width = 550;
},
{
anchors = (
{
name = bottom;
pos = (321,0);
},
{
name = center;
pos = (161,343);
},
{
name = top;
pos = (171,658);
},
{
name = topright;
pos = (507,705);
}
);
layerId = "090CB6A0-BE7C-4D17-A551-206C7456A8A3";
shapes = (
{
closed = 1;
nodes = (
(251,0,l),
(251,658,l),
(87,658,l),
(87,0,l)
);
},
{
closed = 1;
nodes = (
(544,0,l),
(544,123,l),
(138,123,l),
(138,0,l)
);
}
);
width = 564;
}
);
metricLeft = H;
unicode = 76;
},
{
color = 3;
glyphname = Lslash;
kernRight = L;
layers = (
{
anchors = (
{
name = _center;
pos = (158,302);
}
);
layerId = "3114FB65-9464-41A5-B67E-A8F9F43C0EF1";
shapes = (
{
closed = 1;
nodes = (
(376,411,l),
(362,437,l),
(37,249,l),
(51,223,l)
);
},
{
alignment = -1;
pos = (21,0);
ref = L;
}
);
width = 567;
},
{
anchors = (
{
name = _center;
pos = (168,320);
}
);
layerId = "14EEE41F-D714-4243-A717-73445EE7DABA";
shapes = (
{
closed = 1;
nodes = (
(392,407,l),
(356,471,l),
(20,276,l),
(56,214,l)
);
},
{
alignment = -1;
pos = (21,0);
ref = L;
}
);
width = 571;
},
{
anchors = (
{
name = _center;
pos = (185,343);
}
);
layerId = "090CB6A0-BE7C-4D17-A551-206C7456A8A3";
shapes = (
{
closed = 1;
nodes = (
(428,404,l),
(375,509,l),
(3,316,l),
(55,213,l)
);
},
{
alignment = -1;
pos = (25,0);
ref = L;
}
);
width = 589;
}
);
metricRight = L;
unicode = 321;
},
{
color = 3;
glyphname = M;
kernLeft = M;
kernRight = H;
layers = (
{
anchors = (
{
name = bottom;
pos = (457,0);
},
{
name = top;
pos = (456,658);
}
);
layerId = "3114FB65-9464-41A5-B67E-A8F9F43C0EF1";
shapes = (
{
closed = 1;
nodes = (
(809,0,l),
(770,658,l),
(730,658,l),
(452,93,l),
(466,93,l),
(185,658,l),
(159,658,l),
(158,632,l),
(442,59,l),
(467,59,l),
(754,642,l),
(737,643,l),
(772,0,l)
);
},
{
closed = 1;
nodes = (
(136,0,l),
(171,658,l),
(142,658,l),
(102,0,l)
);
}
);
width = 910;
},
{
anchors = (
{
name = bottom;
pos = (463,0);
},
{
name = top;
pos = (462,658);
}
);
layerId = "14EEE41F-D714-4243-A717-73445EE7DABA";
shapes = (
{
closed = 1;
nodes = (
(828,0,l),
(789,658,l),
(689,658,l),
(455,152,l),
(483,152,l),
(242,658,l),
(175,658,l),
(174,593,l),
(428,54,l),
(485,54,l),
(753,632,l),
(708,613,l),
(732,0,l)
);
},
{
closed = 1;
nodes = (
(177,0,l),
(203,658,l),
(134,658,l),
(89,0,l)
);
}
);
width = 917;
},
{
anchors = (
{
name = bottom;
pos = (471,0);
},
{
name = top;
pos = (478,658);
}
);
layerId = "090CB6A0-BE7C-4D17-A551-206C7456A8A3";
shapes = (
{
closed = 1;
nodes = (
(868,0,l),
(830,658,l),
(651,658,l),
(458,194,l),
(508,194,l),
(313,658,l),
(203,658,l),
(195,564,l),
(409,44,l),
(512,44,l),
(749,615,l),
(690,576,l),
(705,0,l)
);
},
{
closed = 1;
nodes = (
(214,0,l),
(234,658,l),
(121,658,l),
(76,0,l)
);
}
);
width = 942;
}
);
unicode = 77;
},
{
color = 3;
glyphname = N;
kernRight = H;
layers = (
{
anchors = (
{
name = bottom;
pos = (383,0);
},
{
name = top;
pos = (383,658);
}
);
layerId = "3114FB65-9464-41A5-B67E-A8F9F43C0EF1";
shapes = (
{
closed = 1;
nodes = (
(153,0,l),
(149,658,l),
(119,658,l),
(119,0,l)
);
},
{
closed = 1;
nodes = (
(631,38,l),
(158,658,l),
(134,658,l),
(133,632,l),
(614,0,l),
(632,0,l)
);
},
{
closed = 1;
nodes = (
(613,658,l),
(617,0,l),
(648,0,l),
(648,658,l)
);
}
);
width = 767;
},
{
anchors = (
{
name = bottom;
pos = (386,0);
},
{
name = top;
pos = (386,658);
}
);
layerId = "14EEE41F-D714-4243-A717-73445EE7DABA";
shapes = (
{
closed = 1;
nodes = (
(190,0,l),
(178,658,l),
(103,658,l),
(103,0,l)
);
},
{
closed = 1;
nodes = (
(628,102,l),
(198,658,l),
(136,658,l),
(134,595,l),
(591,0,l),
(630,0,l)
);
},
{
closed = 1;
nodes = (
(583,658,l),
(595,0,l),
(670,0,l),
(670,658,l)
);
}
);
width = 773;
},
{
anchors = (
{
name = bottom;
pos = (387,0);
},
{
name = top;
pos = (387,658);
}
);
layerId = "090CB6A0-BE7C-4D17-A551-206C7456A8A3";
shapes = (
{
closed = 1;
nodes = (
(230,0,l),
(208,658,l),
(87,658,l),
(87,0,l)
);
},
{
closed = 1;
nodes = (
(623,162,l),
(239,658,l),
(142,658,l),
(139,549,l),
(557,0,l),
(624,0,l)
);
},
{
closed = 1;
nodes = (
(545,658,l),
(567,0,l),
(688,0,l),
(688,658,l)
);
}
);
width = 774;
}
);
metricLeft = H;
metricRight = H;
unicode = 78;
},
{
color = 3;
glyphname = Eng;
kernRight = H;
layers = (
{
anchors = (
{
name = bottom;
pos = (390,0);
},
{
name = top;
pos = (390,658);
}
);
layerId = "3114FB65-9464-41A5-B67E-A8F9F43C0EF1";
shapes = (
{
closed = 1;
nodes = (
(629,32,l),
(156,658,l),
(134,658,l),
(133,630,l),
(613,-3,l)
);
},
{
closed = 1;
nodes = (
(154,0,l),
(150,658,l),
(119,658,l),
(119,0,l)
);
},
{
closed = 1;
nodes = (
(579,-169,o),
(646,-94,o),
(646,36,cs),
(646,658,l),
(609,658,l),
(611,36,ls),
(611,-78,o),
(558,-144,o),
(469,-174,c),
(479,-198,l)
);
}
);
width = 765;
},
{
anchors = (
{
name = bottom;
pos = (393,0);
},
{
name = top;
pos = (393,658);
}
);
layerId = "14EEE41F-D714-4243-A717-73445EE7DABA";
shapes = (
{
closed = 1;
nodes = (
(625,85,l),
(193,658,l),
(136,658,l),
(134,587,l),
(584,-1,l)
);
},
{
closed = 1;
nodes = (
(191,0,l),
(179,658,l),
(103,658,l),
(103,0,l)
);
},
{
closed = 1;
nodes = (
(584,-177,o),
(668,-114,o),
(668,53,cs),
(668,658,l),
(572,658,l),
(580,53,ls),
(580,-75,o),
(532,-121,o),
(441,-152,c),
(465,-208,l)
);
}
);
width = 771;
},
{
anchors = (
{
name = bottom;
pos = (394,0);
},
{
name = top;
pos = (394,658);
}
);
layerId = "090CB6A0-BE7C-4D17-A551-206C7456A8A3";
shapes = (
{
closed = 1;
nodes = (
(628,144,l),
(233,658,l),
(143,658,l),
(140,549,l),
(562,0,l)
);
},
{
closed = 1;
nodes = (
(232,0,l),
(212,658,l),
(87,658,l),
(87,0,l)
);
},
{
closed = 1;
nodes = (
(603,-182,o),
(696,-125,o),
(696,80,cs),
(696,658,l),
(545,658,l),
(556,79,ls),
(558,-62,o),
(514,-97,o),
(420,-132,c),
(455,-217,l)
);
}
);
width = 782;
}
);
metricLeft = N;
metricRight = N;
unicode = 330;
},
{
color = 3;
glyphname = O;
kernLeft = O;
kernRight = O;
layers = (
{
anchors = (
{
name = bottom;
pos = (409,0);
},
{
name = center;
pos = (398,328);
},
{
name = ogonek;
pos = (459,0);
},
{
name = top;
pos = (398,658);
},
{
name = topleft;
pos = (20,658);
},
{
name = topright;
pos = (581,581);
}
);
layerId = "3114FB65-9464-41A5-B67E-A8F9F43C0EF1";
shapes = (
{
closed = 1;
nodes = (
(587,-7,o),
(733,133,o),
(733,331,cs),
(733,525,o),
(592,665,o),
(400,665,cs),
(207,665,o),
(60,524,o),
(60,327,cs),
(60,134,o),
(201,-7,o),
(394,-7,cs)
);
},
{
closed = 1;
nodes = (
(228,22,o),
(100,151,o),
(100,332,cs),
(100,510,o),
(223,636,o),
(394,636,cs),
(566,636,o),
(694,508,o),
(694,326,cs),
(694,149,o),
(572,22,o),
(400,22,cs)
);
}
);
width = 793;
},
{
anchors = (
{
name = bottom;
pos = (408,0);
},
{
name = center;
pos = (397,328);
},
{
name = ogonek;
pos = (478,0);
},
{
name = top;
pos = (399,658);
},
{
name = topleft;
pos = (25,658);
},
{
name = topright;
pos = (555,549);
}
);
layerId = "14EEE41F-D714-4243-A717-73445EE7DABA";
shapes = (
{
closed = 1;
nodes = (
(578,-11,o),
(734,125,o),
(734,333,cs),
(734,528,o),
(595,669,o),
(403,669,cs),
(213,669,o),
(55,532,o),
(55,325,cs),
(55,131,o),
(194,-11,o),
(388,-11,cs)
);
},
{
closed = 1;
nodes = (
(269,59,o),
(160,170,o),
(160,340,cs),
(160,496,o),
(252,599,o),
(385,599,cs),
(524,599,o),
(632,489,o),
(632,318,cs),
(632,164,o),
(542,59,o),
(405,59,cs)
);
}
);
width = 789;
},
{
anchors = (
{
name = bottom;
pos = (415,0);
},
{
name = center;
pos = (404,328);
},
{
name = ogonek;
pos = (512,0);
},
{
name = top;
pos = (410,658);
},
{
name = topleft;
pos = (39,658);
},
{
name = topright;
pos = (549,538);
}
);
layerId = "090CB6A0-BE7C-4D17-A551-206C7456A8A3";
shapes = (
{
closed = 1;
nodes = (
(594,-15,o),
(753,122,o),
(753,339,cs),
(753,538,o),
(615,673,o),
(417,673,cs),
(210,673,o),
(50,535,o),
(50,318,cs),
(50,121,o),
(189,-15,o),
(388,-15,cs)
);
},
{
closed = 1;
nodes = (
(315,96,o),
(238,181,o),
(238,344,cs),
(238,484,o),
(296,560,o),
(392,560,cs),
(495,560,o),
(568,475,o),
(568,312,cs),
(568,176,o),
(514,96,o),
(415,96,cs)
);
}
);
width = 803;
}
);
unicode = 79;
},
{
color = 3;
glyphname = Oslash;
kernLeft = O;
kernRight = U;
layers = (
{
anchors = (
{
name = bottom;
pos = (402,0);
},
{
name = center;
pos = (397,328);
},
{
name = ogonek;
pos = (458,0);
},
{
name = top;
pos = (403,658);
},
{
name = topleft;
pos = (20,658);
},
{
name = topright;
pos = (581,581);
}
);
layerId = "3114FB65-9464-41A5-B67E-A8F9F43C0EF1";
shapes = (
{
closed = 1;
nodes = (
(587,-7,o),
(733,137,o),
(733,331,cs),
(733,522,o),
(592,665,o),
(399,665,cs),
(206,665,o),
(60,521,o),
(60,327,cs),
(60,136,o),
(201,-7,o),
(394,-7,cs)
);
},
{
closed = 1;
nodes = (
(224,21,o),
(98,152,o),
(98,332,cs),
(98,509,o),
(222,636,o),
(394,636,cs),
(569,636,o),
(695,506,o),
(695,325,cs),
(695,148,o),
(571,21,o),
(399,21,cs)
);
},
{
closed = 1;
nodes = (
(708,673,l),
(685,693,l),
(83,-22,l),
(105,-41,l)
);
}
);
width = 792;
},
{
anchors = (
{
name = bottom;
pos = (396,0);
},
{
name = center;
pos = (395,328);
},
{
name = ogonek;
pos = (476,0);
},
{
name = top;
pos = (401,658);
},
{
name = topleft;
pos = (23,658);
},
{
name = topright;
pos = (554,549);
}
);
layerId = "14EEE41F-D714-4243-A717-73445EE7DABA";
shapes = (
{
closed = 1;
nodes = (
(579,-11,o),
(734,136,o),
(734,333,cs),
(734,521,o),
(595,669,o),
(401,669,cs),
(209,669,o),
(55,522,o),
(55,324,cs),
(55,137,o),
(193,-11,o),
(386,-11,cs)
);
},
{
closed = 1;
nodes = (
(254,58,o),
(152,174,o),
(152,342,cs),
(152,494,o),
(247,599,o),
(386,599,cs),
(534,599,o),
(636,483,o),
(636,315,cs),
(636,162,o),
(540,58,o),
(402,58,cs)
);
},
{
closed = 1;
nodes = (
(713,650,l),
(658,698,l),
(67,-6,l),
(121,-52,l)
);
}
);
width = 787;
},
{
anchors = (
{
name = bottom;
pos = (389,0);
},
{
name = center;
pos = (402,328);
},
{
name = ogonek;
pos = (510,0);
},
{
name = top;
pos = (405,658);
},
{
name = topleft;
pos = (38,658);
},
{
name = topright;
pos = (547,538);
}
);
layerId = "090CB6A0-BE7C-4D17-A551-206C7456A8A3";
shapes = (
{
closed = 1;
nodes = (
(593,-15,o),
(752,130,o),
(752,338,cs),
(752,533,o),
(614,673,o),
(413,673,cs),
(207,673,o),
(50,526,o),
(50,319,cs),
(50,125,o),
(187,-15,o),
(388,-15,cs)
);
},
{
closed = 1;
nodes = (
(292,95,o),
(215,184,o),
(215,344,cs),
(215,482,o),
(281,560,o),
(392,560,cs),
(515,560,o),
(586,470,o),
(586,311,cs),
(586,175,o),
(525,95,o),
(413,95,cs)
);
},
{
closed = 1;
nodes = (
(741,622,l),
(654,703,l),
(50,21,l),
(137,-56,l)
);
}
);
width = 801;
}
);
unicode = 216;
},
{
color = 3;
glyphname = OE;
kernLeft = O;
layers = (
{
anchors = (
{
name = bottom;
pos = (482,0);
},
{
name = top;
pos = (482,658);
}
);
layerId = "3114FB65-9464-41A5-B67E-A8F9F43C0EF1";
shapes = (
{
closed = 1;
nodes = (
(452,-5,o),
(488,0,o),
(519,11,c),
(504,37,l),
(478,27,o),
(450,23,o),
(418,23,cs),
(229,23,o),
(89,151,o),
(89,331,cs),
(89,509,o),
(225,635,o),
(414,635,cs),
(446,635,o),
(478,630,o),
(503,621,c),
(509,654,l),
(481,660,o),
(451,663,o),
(418,663,cs),
(208,663,o),
(50,521,o),
(50,326,cs),
(50,134,o),
(205,-5,o),
(413,-5,cs)
);
},
{
closed = 1;
nodes = (
(817,319,l),
(817,349,l),
(496,349,l),
(496,319,l)
);
},
{
closed = 1;
nodes = (
(884,0,l),
(884,30,l),
(519,30,l),
(519,628,l),
(855,628,l),
(855,658,l),
(483,658,l),
(483,0,l)
);
}
);
width = 932;
},
{
anchors = (
{
name = bottom;
pos = (493,0);
},
{
name = top;
pos = (493,658);
}
);
layerId = "14EEE41F-D714-4243-A717-73445EE7DABA";
shapes = (
{
closed = 1;
nodes = (
(460,-6,o),
(515,8,o),
(562,34,c),
(524,93,l),
(493,72,o),
(457,62,o),
(414,62,cs),
(257,62,o),
(147,173,o),
(147,336,cs),
(147,495,o),
(250,594,o),
(401,594,cs),
(446,594,o),
(494,584,o),
(519,563,c),
(536,646,l),
(500,658,o),
(459,664,o),
(416,664,cs),
(210,664,o),
(45,522,o),
(45,322,cs),
(45,133,o),
(195,-6,o),
(398,-6,cs)
);
},
{
closed = 1;
nodes = (
(823,296,l),
(823,371,l),
(499,371,l),
(499,296,l)
);
},
{
closed = 1;
nodes = (
(891,0,l),
(891,76,l),
(564,76,l),
(564,582,l),
(861,582,l),
(861,658,l),
(472,658,l),
(472,0,l)
);
}
);
width = 934;
},
{
anchors = (
{
name = bottom;
pos = (493,0);
},
{
name = top;
pos = (493,658);
}
);
layerId = "090CB6A0-BE7C-4D17-A551-206C7456A8A3";
shapes = (
{
closed = 1;
nodes = (
(470,-8,o),
(543,13,o),
(602,51,c),
(519,137,l),
(491,114,o),
(457,103,o),
(413,103,cs),
(295,103,o),
(217,186,o),
(217,341,cs),
(217,483,o),
(285,557,o),
(400,557,cs),
(445,557,o),
(490,543,o),
(512,517,c),
(579,633,l),
(533,654,o),
(478,666,o),
(418,666,cs),
(203,666,o),
(40,525,o),
(40,316,cs),
(40,125,o),
(184,-8,o),
(387,-8,cs)
);
},
{
closed = 1;
nodes = (
(849,276,l),
(849,391,l),
(516,391,l),
(516,276,l)
);
},
{
closed = 1;
nodes = (
(914,0,l),
(914,120,l),
(621,120,l),
(621,538,l),
(889,538,l),
(889,658,l),
(468,658,l),
(468,0,l)
);
}
);
width = 947;
}
);
metricLeft = "=O-10";
metricRight = "=E-10";
unicode = 338;
},
{
color = 3;
glyphname = P;
kernRight = P;
layers = (
{
anchors = (
{
name = bottom;
pos = (286,0);
},
{
name = top;
pos = (286,658);
}
);
layerId = "3114FB65-9464-41A5-B67E-A8F9F43C0EF1";
shapes = (
{
closed = 1;
nodes = (
(418,244,o),
(515,341,o),
(515,468,cs),
(515,592,o),
(419,658,o),
(277,658,cs),
(119,658,l),
(119,0,l),
(156,0,l),
(156,629,l),
(272,629,ls),
(395,629,o),
(478,572,o),
(478,461,cs),
(478,351,o),
(401,274,o),
(263,274,cs),
(236,274,o),
(188,276,o),
(142,282,c),
(142,253,l),
(184,246,o),
(234,244,o),
(256,244,cs)
);
}
);
width = 571;
},
{
anchors = (
{
name = bottom;
pos = (291,0);
},
{
name = top;
pos = (291,658);
}
);
layerId = "14EEE41F-D714-4243-A717-73445EE7DABA";
shapes = (
{
closed = 1;
nodes = (
(434.993,227.007,o),
(545,334,o),
(545,463,cs),
(545,586,o),
(444,658,o),
(298,658,cs),
(103,658,l),
(103,0,l),
(197,0,l),
(197,587,l),
(282,587,ls),
(383,587,o),
(448,536,o),
(448,442,cs),
(448,351,o),
(391,300,o),
(277,300,cs),
(244,300,o),
(209,302,o),
(163,307,c),
(163,237,l),
(202,229,o),
(248,227,o),
(268,227,cs)
);
}
);
width = 590;
},
{
anchors = (
{
name = bottom;
pos = (302,0);
},
{
name = top;
pos = (302,658);
}
);
layerId = "090CB6A0-BE7C-4D17-A551-206C7456A8A3";
shapes = (
{
closed = 1;
nodes = (
(465,197,o),
(593,307,o),
(593,451,cs),
(593,576,o),
(488,658,o),
(320,658,cs),
(87,658,l),
(87,0,l),
(248,0,l),
(248,542,l),
(298,542,ls),
(379,542,o),
(426,501,o),
(426,426,cs),
(426,349,o),
(387,314,o),
(299,314,cs),
(262,314,o),
(226,318,o),
(191,323,c),
(187,207,l),
(227,199,o),
(267,197,o),
(297,197,cs)
);
}
);
width = 624;
}
);
metricLeft = H;
unicode = 80;
},
{
color = 3;
glyphname = Thorn;
kernRight = O;
layers = (
{
anchors = (
{
name = bottom;
pos = (290,0);
},
{
name = top;
pos = (290,658);
}
);
layerId = "3114FB65-9464-41A5-B67E-A8F9F43C0EF1";
shapes = (
{
closed = 1;
nodes = (
(156,0,l),
(156,507,l),
(308,507,ls),
(430,507,o),
(511,445,o),
(511,339,cs),
(511,240,o),
(425,159,o),
(297,159,cs),
(142,159,l),
(142,129,l),
(293,129,ls),
(443,129,o),
(547,226,o),
(547,344,cs),
(547,466,o),
(453,537,o),
(312,537,cs),
(156,537,l),
(156,658,l),
(119,658,l),
(119,0,l)
);
}
);
width = 603;
},
{
anchors = (
{
name = bottom;
pos = (306,0);
},
{
name = top;
pos = (306,658);
}
);
layerId = "14EEE41F-D714-4243-A717-73445EE7DABA";
shapes = (
{
closed = 1;
nodes = (
(197,0,l),
(197,472,l),
(329,472,ls),
(424,472,o),
(487,417,o),
(487,334,cs),
(487,252,o),
(422,194,o),
(329,194,cs),
(163,194,l),
(163,119,l),
(314,119,ls),
(464,119,o),
(579,223,o),
(579,351,cs),
(579,471,o),
(484,547,o),
(344,547,cs),
(197,547,l),
(197,658,l),
(103,658,l),
(103,0,l)
);
}
);
width = 624;
},
{
anchors = (
{
name = bottom;
pos = (328,0);
},
{
name = top;
pos = (328,658);
}
);
layerId = "090CB6A0-BE7C-4D17-A551-206C7456A8A3";
shapes = (
{
closed = 1;
nodes = (
(248,0,l),
(248,445,l),
(338,445,ls),
(417,445,o),
(463,400,o),
(463,334,cs),
(463,263,o),
(419,222,o),
(340,222,cs),
(195,222,l),
(195,103,l),
(339,103,ls),
(497,103,o),
(626,210,o),
(626,356,cs),
(626,479,o),
(524,564,o),
(359,564,cs),
(248,564,l),
(248,658,l),
(87,658,l),
(87,0,l)
);
}
);
width = 657;
}
);
metricLeft = B;
metricRight = P;
unicode = 222;
},
{
color = 3;
glyphname = Q;
kernLeft = O;
kernRight = O;
layers = (
{
layerId = "3114FB65-9464-41A5-B67E-A8F9F43C0EF1";
shapes = (
{
closed = 1;
nodes = (
(399,0,l),
(471,-101,o),
(558,-158,o),
(647,-158,cs),
(668,-158,o),
(704,-155,o),
(737,-136,c),
(725,-108,l),
(696,-123,o),
(667,-126,o),
(647,-126,cs),
(566,-126,o),
(488,-71,o),
(423,14,c)
);
},
{
ref = O;
}
);
width = 793;
},
{
layerId = "14EEE41F-D714-4243-A717-73445EE7DABA";
shapes = (
{
closed = 1;
nodes = (
(390,0,l),
(459,-108,o),
(548,-165,o),
(658,-165,cs),
(683,-165,o),
(724,-161,o),
(771,-140,c),
(749,-88,l),
(725,-99,o),
(703,-100,o),
(689,-100,cs),
(608,-100,o),
(533,-51,o),
(477,36,c)
);
},
{
ref = O;
}
);
width = 789;
},
{
layerId = "090CB6A0-BE7C-4D17-A551-206C7456A8A3";
shapes = (
{
closed = 1;
nodes = (
(386,0,l),
(461,-124,o),
(555,-184,o),
(676,-184,cs),
(706,-184,o),
(755,-179,o),
(811,-153,c),
(780,-74,l),
(760,-83,o),
(742,-85,o),
(731,-85,cs),
(656,-85,o),
(593,-30,o),
(545,54,c)
);
},
{
ref = O;
}
);
width = 803;
}
);
unicode = 81;
},
{
color = 3;
glyphname = R;
kernRight = R;
layers = (
{
anchors = (
{
name = bottom;
pos = (338,0);
},
{
name = top;
pos = (287,658);
}
);
layerId = "3114FB65-9464-41A5-B67E-A8F9F43C0EF1";
shapes = (
{
closed = 1;
nodes = (
(155,0,l),
(155,629,l),
(282,629,ls),
(390,629,o),
(450,576,o),
(450,495,cs),
(450,400,o),
(366,324,o),
(272,324,cs),
(134,324,l),
(134,296,l),
(269,296,ls),
(383,296,o),
(488,388,o),
(488,500,cs),
(488,596,o),
(411,658,o),
(284,658,cs),
(119,658,l),
(119,0,l)
);
},
{
closed = 1;
nodes = (
(646,-8,o),
(669,-5,o),
(697,4,c),
(689,27,l),
(669,22,o),
(651,20,o),
(636,20,cs),
(576,20,o),
(531,52,o),
(456,147,cs),
(323,319,l),
(292,308,l),
(422,133,ls),
(499,29,o),
(549,-8,o),
(626,-8,cs)
);
}
);
width = 673;
},
{
anchors = (
{
name = bottom;
pos = (342,0);
},
{
name = top;
pos = (290,658);
}
);
layerId = "14EEE41F-D714-4243-A717-73445EE7DABA";
shapes = (
{
closed = 1;
nodes = (
(196,0,l),
(196,588,l),
(281,588,ls),
(372,588,o),
(423,543,o),
(423,473,cs),
(423,403,o),
(361,340,o),
(291,340,cs),
(138,340,l),
(138,274,l),
(279,274,ls),
(405,274,o),
(520,376,o),
(520,490,cs),
(520,594,o),
(430,658,o),
(289,658,cs),
(103,658,l),
(103,0,l)
);
},
{
closed = 1;
nodes = (
(631,-10,o),
(661,-5,o),
(698,9,c),
(678,64,l),
(663,59,o),
(645,58,o),
(634,58,cs),
(595,58,o),
(558,76,o),
(501,147,cs),
(361,324,l),
(285,297,l),
(410,114,ls),
(473,23,o),
(520,-10,o),
(602,-10,cs)
);
}
);
width = 677;
},
{
anchors = (
{
name = bottom;
pos = (357,0);
},
{
name = top;
pos = (315,658);
}
);
layerId = "090CB6A0-BE7C-4D17-A551-206C7456A8A3";
shapes = (
{
closed = 1;
nodes = (
(245,0,l),
(245,542,l),
(305,542,ls),
(379,542,o),
(415,511,o),
(415,455,cs),
(415,399,o),
(379,352,o),
(321,352,cs),
(149,352,l),
(149,248,l),
(322,248,ls),
(457,248,o),
(581,362,o),
(581,477,cs),
(581,593,o),
(483,658,o),
(336,658,cs),
(87,658,l),
(87,0,l)
);
},
{
closed = 1;
nodes = (
(632,-12,o),
(673,-6,o),
(725,17,c),
(696,101,l),
(685,97,o),
(669,95,o),
(659,95,cs),
(633,95,o),
(604,108,o),
(564,158,cs),
(425,332,l),
(307,284,l),
(414,102,ls),
(460,23,o),
(505,-12,o),
(592,-12,cs)
);
}
);
width = 711;
}
);
metricLeft = "=B";
unicode = 82;
},
{
color = 3;
glyphname = S;
kernLeft = S;
layers = (
{
anchors = (
{
name = bottom;
pos = (270,0);
},
{
name = top;
pos = (270,658);
}
);
layerId = "3114FB65-9464-41A5-B67E-A8F9F43C0EF1";
shapes = (
{
closed = 1;
nodes = (
(420,76,o),
(363,21,o),
(260,21,cs),
(189,21,o),
(123,47,o),
(76,93,c),
(56,64,l),
(103,18,o),
(174,-8,o),
(254,-8,cs),
(378,-8,o),
(455,59,o),
(455,165,cs),
(455,381,o),
(120,340,o),
(120,511,cs),
(120,581,o),
(173,636,o),
(269,636,cs),
(327,636,o),
(383,616,o),
(421,585,c),
(437,617,l),
(394,648,o),
(334,665,o),
(274,665,cs),
(159,665,o),
(85,600,o),
(85,504,cs),
(85,307,o),
(420,351,o),
(420,157,cs)
);
}
);
width = 517;
},
{
anchors = (
{
name = bottom;
pos = (267,0);
},
{
name = top;
pos = (284,658);
}
);
layerId = "14EEE41F-D714-4243-A717-73445EE7DABA";
shapes = (
{
closed = 1;
nodes = (
(384,100,o),
(339,62,o),
(270,62,cs),
(206,62,o),
(139,90,o),
(91,134,c),
(44,55,l),
(90,17,o),
(166,-11,o),
(250,-11,cs),
(375,-11,o),
(474,59,o),
(474,184,cs),
(474,386,o),
(163,374,o),
(163,505,cs),
(163,550,o),
(194,598,o),
(269,598,cs),
(318,598,o),
(377,578,o),
(417,543,c),
(451,629,l),
(405,655,o),
(340,669,o),
(287,669,cs),
(167,669,o),
(75,598,o),
(75,482,cs),
(75,288,o),
(384,310,o),
(384,160,cs)
);
}
);
width = 524;
},
{
anchors = (
{
name = bottom;
pos = (280,0);
},
{
name = top;
pos = (300,658);
}
);
layerId = "090CB6A0-BE7C-4D17-A551-206C7456A8A3";
shapes = (
{
closed = 1;
nodes = (
(355,132,o),
(327,107,o),
(279,107,cs),
(221,107,o),
(153,136,o),
(96,177,c),
(37,44,l),
(89,13,o),
(164,-15,o),
(252,-15,cs),
(387,-15,o),
(507,57,o),
(507,201,cs),
(507,410,o),
(215,394,o),
(215,495,cs),
(215,522,o),
(233,554,o),
(285,554,cs),
(329,554,o),
(386,535,o),
(434,499,c),
(489,636,l),
(435,661,o),
(361,673,o),
(307,673,cs),
(166,673,o),
(66,594,o),
(66,463,cs),
(66,253,o),
(355,279,o),
(355,170,cs)
);
}
);
width = 544;
}
);
unicode = 83;
},
{
color = 3;
glyphname = Germandbls;
kernLeft = Germandbls;
layers = (
{
anchors = (
{
name = bottom;
pos = (358,0);
},
{
name = top;
pos = (365,658);
}
);
layerId = "3114FB65-9464-41A5-B67E-A8F9F43C0EF1";
shapes = (
{
closed = 1;
nodes = (
(143,0,l),
(143,379,ls),
(143,551,o),
(222,634,o),
(394,634,cs),
(471,634,o),
(531,615,o),
(577,596,c),
(608,625,l),
(547,645,o),
(496,664,o),
(407,664,cs),
(206,664,o),
(104,569,o),
(104,370,cs),
(104,0,l)
);
},
{
closed = 1;
nodes = (
(569,-6,o),
(643,79,o),
(643,183,cs),
(643,284,o),
(569,347,o),
(464,372,c),
(438,342,l),
(550,317,o),
(607,259,o),
(607,177,cs),
(607,88,o),
(545,24,o),
(459,24,cs),
(413,24,o),
(368,41,o),
(337,66,c),
(324,36,l),
(355,11,o),
(407,-6,o),
(457,-6,cs)
);
},
{
closed = 1;
nodes = (
(475,351,l),
(608,625,l),
(574,626,l),
(438,342,l)
);
}
);
width = 710;
},
{
anchors = (
{
name = bottom;
pos = (361,0);
},
{
name = top;
pos = (383,658);
}
);
layerId = "14EEE41F-D714-4243-A717-73445EE7DABA";
shapes = (
{
closed = 1;
nodes = (
(191,0,l),
(191,389,ls),
(191,537,o),
(265,594,o),
(381,594,cs),
(442,594,o),
(504,578,o),
(551,555,c),
(629,632,l),
(566,653,o),
(500,668,o),
(420,668,cs),
(227,668,o),
(91,584,o),
(91,360,cs),
(91,0,l)
);
},
{
closed = 1;
nodes = (
(584,-7,o),
(663,88,o),
(663,200,cs),
(663,317,o),
(564,377,o),
(483,399,c),
(418,324,l),
(503,303,o),
(570,256,o),
(570,180,cs),
(570,108,o),
(522,67,o),
(460,67,cs),
(423,67,o),
(384,81,o),
(353,102,c),
(323,23,l),
(351,7,o),
(404,-7,o),
(454,-7,cs)
);
},
{
closed = 1;
nodes = (
(509,351,l),
(629,632,l),
(547,634,l),
(418,324,l)
);
}
);
width = 712;
},
{
anchors = (
{
name = bottom;
pos = (362,0);
},
{
name = top;
pos = (405,658);
}
);
layerId = "090CB6A0-BE7C-4D17-A551-206C7456A8A3";
shapes = (
{
closed = 1;
nodes = (
(249,0,l),
(249,395,ls),
(249,513,o),
(312,552,o),
(385,552,cs),
(439,552,o),
(499,531,o),
(541,501,c),
(670,631,l),
(597,657,o),
(514,673,o),
(431,673,cs),
(238,673,o),
(76,592,o),
(76,346,cs),
(76,0,l)
);
},
{
closed = 1;
nodes = (
(616,-8,o),
(701,85,o),
(701,208,cs),
(701,355,o),
(563,409,o),
(503,429,c),
(411,312,l),
(492,288,o),
(544,251,o),
(544,193,cs),
(544,140,o),
(511,111,o),
(465,111,cs),
(438,111,o),
(406,121,o),
(382,136,c),
(336,22,l),
(363,9,o),
(421,-8,o),
(475,-8,cs)
);
},
{
closed = 1;
nodes = (
(545,339,l),
(670,631,l),
(533,623,l),
(411,312,l)
);
}
);
width = 741;
}
);
unicode = 7838;
},
{
color = 3;
glyphname = T;
kernLeft = T;
kernRight = T;
layers = (
{
anchors = (
{
name = bottom;
pos = (318,0);
},
{
name = center;
pos = (318,338);
},
{
name = top;
pos = (318,658);
}
);
layerId = "3114FB65-9464-41A5-B67E-A8F9F43C0EF1";
shapes = (
{
closed = 1;
nodes = (
(337,0,l),
(337,658,l),
(299,658,l),
(299,0,l)
);
},
{
closed = 1;
nodes = (
(610,628,l),
(610,658,l),
(26,658,l),
(26,628,l)
);
}
);
width = 636;
},
{
anchors = (
{
name = bottom;
pos = (312,0);
},
{
name = center;
pos = (312,332);
},
{
name = top;
pos = (312,658);
}
);
layerId = "14EEE41F-D714-4243-A717-73445EE7DABA";
shapes = (
{
closed = 1;
nodes = (
(361,0,l),
(361,658,l),
(262,658,l),
(262,0,l)
);
},
{
closed = 1;
nodes = (
(596,583,l),
(596,658,l),
(27,658,l),
(27,583,l)
);
}
);
width = 623;
},
{
anchors = (
{
name = bottom;
pos = (321,0);
},
{
name = center;
pos = (321,313);
},
{
name = top;
pos = (321,658);
}
);
layerId = "090CB6A0-BE7C-4D17-A551-206C7456A8A3";
shapes = (
{
closed = 1;
nodes = (
(403,0,l),
(403,658,l),
(237,658,l),
(237,0,l)
);
},
{
closed = 1;
nodes = (
(611,531,l),
(611,658,l),
(30,658,l),
(30,531,l)
);
}
);
width = 641;
}
);
unicode = 84;
},
{
color = 3;
glyphname = U;
kernLeft = U;
kernRight = U;
layers = (
{
anchors = (
{
name = bottom;
pos = (364,0);
},
{
name = ogonek;
pos = (422,0);
},
{
name = top;
pos = (367,658);
},
{
name = topright;
pos = (630,635);
}
);
layerId = "3114FB65-9464-41A5-B67E-A8F9F43C0EF1";
shapes = (
{
closed = 1;
nodes = (
(524,-7,o),
(630,101,o),
(630,268,cs),
(630,658,l),
(596,658,l),
(596,261,ls),
(596,118,o),
(508,24,o),
(370,24,cs),
(229,24,o),
(138,120,o),
(138,269,cs),
(138,658,l),
(100,658,l),
(100,263,ls),
(100,99,o),
(206,-7,o),
(364,-7,cs)
);
}
);
width = 728;
},
{
anchors = (
{
name = bottom;
pos = (367,0);
},
{
name = ogonek;
pos = (442,0);
},
{
name = top;
pos = (377,658);
},
{
name = topright;
pos = (645,606);
}
);
layerId = "14EEE41F-D714-4243-A717-73445EE7DABA";
shapes = (
{
closed = 1;
nodes = (
(532,-11,o),
(645,102,o),
(645,276,cs),
(645,658,l),
(561,658,l),
(561,255,ls),
(561,142,o),
(494,66,o),
(378,66,cs),
(259,66,o),
(186,145,o),
(186,277,cs),
(186,658,l),
(90,658,l),
(90,257,ls),
(90,93,o),
(198,-11,o),
(361,-11,cs)
);
}
);
width = 731;
},
{
anchors = (
{
name = bottom;
pos = (380,0);
},
{
name = ogonek;
pos = (479,0);
},
{
name = top;
pos = (393,658);
},
{
name = topright;
pos = (669,587);
}
);
layerId = "090CB6A0-BE7C-4D17-A551-206C7456A8A3";
shapes = (
{
closed = 1;
nodes = (
(551,-15,o),
(673,103,o),
(673,285,cs),
(673,658,l),
(531,658,l),
(531,251,ls),
(531,164,o),
(477,109,o),
(394,109,cs),
(309,109,o),
(251,166,o),
(251,272,cs),
(251,658,l),
(80,658,l),
(80,254,ls),
(80,88,o),
(194,-15,o),
(368,-15,cs)
);
}
);
width = 748;
}
);
unicode = 85;
},
{
color = 3;
glyphname = Uogonek;
kernLeft = U;
kernRight = U;
layers = (
{
layerId = "3114FB65-9464-41A5-B67E-A8F9F43C0EF1";
shapes = (
{
closed = 1;
nodes = (
(429,-289,o),
(454,-279,o),
(479,-259,c),
(466,-239,l),
(448,-254,o),
(429,-262,o),
(403,-262,cs),
(342,-262,o),
(308,-223,o),
(308,-168,cs),
(308,-108,o),
(342,-44,o),
(422,5,c),
(407,17,l),
(310,-39,o),
(272,-111,o),
(272,-174,cs),
(272,-244,o),
(318,-289,o),
(393,-289,cs)
);
},
{
ref = U;
}
);
width = 728;
},
{
layerId = "14EEE41F-D714-4243-A717-73445EE7DABA";
shapes = (
{
closed = 1;
nodes = (
(451,-289,o),
(481,-279,o),
(510,-259,c),
(487,-212,l),
(473,-221,o),
(458,-225,o),
(441,-225,cs),
(383,-225,o),
(356,-182,o),
(356,-131,cs),
(356,-78,o),
(383,-25,o),
(443,15,c),
(411,40,l),
(307,-15,o),
(264,-87,o),
(264,-151,cs),
(264,-236,o),
(317,-289,o),
(410,-289,cs)
);
},
{
ref = U;
}
);
width = 731;
},
{
layerId = "090CB6A0-BE7C-4D17-A551-206C7456A8A3";
shapes = (
{
closed = 1;
nodes = (
(469,-289,o),
(508,-275,o),
(545,-250,c),
(516,-187,l),
(502,-193,o),
(487,-195,o),
(475,-195,cs),
(422,-195,o),
(398,-158,o),
(398,-116,cs),
(398,-67,o),
(423,-14,o),
(476,19,c),
(430,54,l),
(303,-2,o),
(251,-73,o),
(251,-145,cs),
(251,-232,o),
(310,-289,o),
(417,-289,cs)
);
},
{
alignment = -1;
ref = U;
}
);
width = 748;
}
);
unicode = 370;
},
{
color = 3;
glyphname = V;
kernLeft = V;
kernRight = V;
layers = (
{
anchors = (
{
name = bottom;
pos = (346,0);
},
{
name = top;
pos = (346,658);
}
);
layerId = "3114FB65-9464-41A5-B67E-A8F9F43C0EF1";
shapes = (
{
closed = 1;
nodes = (
(363,0,l),
(643,658,l),
(605,658,l),
(338,11,l),
(362,11,l),
(92,658,l),
(50,658,l),
(328,0,l)
);
}
);
width = 693;
},
{
anchors = (
{
name = bottom;
pos = (340,0);
},
{
name = top;
pos = (340,658);
}
);
layerId = "14EEE41F-D714-4243-A717-73445EE7DABA";
shapes = (
{
closed = 1;
nodes = (
(383,0,l),
(643,658,l),
(548,658,l),
(321,22,l),
(380,22,l),
(146,658,l),
(38,658,l),
(289,0,l)
);
}
);
width = 680;
},
{
anchors = (
{
name = bottom;
pos = (347,0);
},
{
name = top;
pos = (347,658);
}
);
layerId = "090CB6A0-BE7C-4D17-A551-206C7456A8A3";
shapes = (
{
closed = 1;
nodes = (
(430,0,l),
(671,658,l),
(511,658,l),
(331,49,l),
(401,49,l),
(205,658,l),
(21,658,l),
(257,0,l)
);
}
);
width = 692;
}
);
unicode = 86;
},
{
color = 3;
glyphname = W;
kernLeft = V;
kernRight = V;
layers = (
{
anchors = (
{
name = bottom;
pos = (502,0);
},
{
name = top;
pos = (502,658);
}
);
layerId = "3114FB65-9464-41A5-B67E-A8F9F43C0EF1";
shapes = (
{
closed = 1;
nodes = (
(745,0,l),
(949,658,l),
(913,658,l),
(718,10,l),
(741,10,l),
(524,658,l),
(487,658,l),
(708,0,l)
);
},
{
closed = 1;
nodes = (
(296,0,l),
(514,658,l),
(483,658,l),
(269,11,l),
(290,11,l),
(94,658,l),
(55,658,l),
(259,0,l)
);
}
);
width = 1004;
},
{
anchors = (
{
name = bottom;
pos = (490,0);
},
{
name = top;
pos = (490,658);
}
);
layerId = "14EEE41F-D714-4243-A717-73445EE7DABA";
shapes = (
{
closed = 1;
nodes = (
(748,0,l),
(939,658,l),
(848,658,l),
(683,22,l),
(740,22,l),
(546,658,l),
(452,658,l),
(654,0,l)
);
},
{
closed = 1;
nodes = (
(326,0,l),
(522,658,l),
(446,658,l),
(259,22,l),
(314,22,l),
(143,658,l),
(43,658,l),
(232,0,l)
);
}
);
width = 980;
},
{
anchors = (
{
name = bottom;
pos = (495,0);
},
{
name = top;
pos = (501,658);
}
);
layerId = "090CB6A0-BE7C-4D17-A551-206C7456A8A3";
shapes = (
{
closed = 1;
nodes = (
(782,0,l),
(961,658,l),
(811,658,l),
(681,41,l),
(748,41,l),
(584,658,l),
(438,658,l),
(611,0,l)
);
},
{
closed = 1;
nodes = (
(374,0,l),
(548,658,l),
(430,658,l),
(272,41,l),
(338,41,l),
(202,658,l),
(30,658,l),
(203,0,l)
);
}
);
width = 990;
}
);
unicode = 87;
},
{
color = 3;
glyphname = X;
kernLeft = X;
kernRight = X;
layers = (
{
anchors = (
{
name = bottom;
pos = (318,0);
},
{
name = top;
pos = (318,658);
}
);
layerId = "3114FB65-9464-41A5-B67E-A8F9F43C0EF1";
shapes = (
{
closed = 1;
nodes = (
(83,0,l),
(308,308,l),
(534,0,l),
(581,0,l),
(332,337,l),
(570,658,l),
(528,658,l),
(313,362,l),
(97,658,l),
(51,658,l),
(289,333,l),
(40,0,l)
);
}
);
width = 625;
},
{
anchors = (
{
name = bottom;
pos = (331,0);
},
{
name = top;
pos = (331,658);
}
);
layerId = "14EEE41F-D714-4243-A717-73445EE7DABA";
shapes = (
{
closed = 1;
nodes = (
(139,0,l),
(312,267,l),
(495,0,l),
(612,0,l),
(373,339,l),
(599,658,l),
(492,658,l),
(327,401,l),
(158,658,l),
(41,658,l),
(267,328,l),
(30,0,l)
);
}
);
width = 634;
},
{
anchors = (
{
name = bottom;
pos = (356,0);
},
{
name = top;
pos = (356,658);
}
);
layerId = "090CB6A0-BE7C-4D17-A551-206C7456A8A3";
shapes = (
{
closed = 1;
nodes = (
(200,0,l),
(327,232,l),
(464,0,l),
(658,0,l),
(428,337,l),
(652,658,l),
(469,658,l),
(343,430,l),
(215,658,l),
(22,658,l),
(242,328,l),
(13,0,l)
);
}
);
width = 665;
}
);
unicode = 88;
},
{
color = 3;
glyphname = Y;
kernLeft = Y;
kernRight = Y;
layers = (
{
anchors = (
{
name = bottom;
pos = (315,0);
},
{
name = top;
pos = (315,658);
},
{
name = topleft;
pos = (22,658);
}
);
layerId = "3114FB65-9464-41A5-B67E-A8F9F43C0EF1";
shapes = (
{
closed = 1;
nodes = (
(329,286,l),
(81,658,l),
(35,658,l),
(304,263,l)
);
},
{
closed = 1;
nodes = (
(333,0,l),
(333,288,l),
(296,288,l),
(296,0,l)
);
},
{
closed = 1;
nodes = (
(593,658,l),
(553,658,l),
(304,286,l),
(326,264,l)
);
}
);
width = 628;
},
{
anchors = (
{
name = bottom;
pos = (318,0);
},
{
name = top;
pos = (318,658);
},
{
name = topleft;
pos = (25,658);
}
);
layerId = "14EEE41F-D714-4243-A717-73445EE7DABA";
shapes = (
{
closed = 1;
nodes = (
(351,296,l),
(139,658,l),
(22,658,l),
(287,239,l)
);
},
{
closed = 1;
nodes = (
(365,0,l),
(365,296,l),
(268,296,l),
(268,0,l)
);
},
{
closed = 1;
nodes = (
(612,658,l),
(510,658,l),
(296,296,l),
(348,243,l)
);
}
);
width = 634;
},
{
anchors = (
{
name = bottom;
pos = (331,0);
},
{
name = top;
pos = (335,658);
},
{
name = topleft;
pos = (24,658);
}
);
layerId = "090CB6A0-BE7C-4D17-A551-206C7456A8A3";
shapes = (
{
closed = 1;
nodes = (
(372,302,l),
(203,658,l),
(7,658,l),
(264,224,l)
);
},
{
closed = 1;
nodes = (
(414,0,l),
(414,318,l),
(245,318,l),
(245,0,l)
);
},
{
closed = 1;
nodes = (
(653,658,l),
(485,658,l),
(306,302,l),
(395,222,l)
);
}
);
width = 660;
}
);
unicode = 89;
},
{
color = 3;
glyphname = Z;
kernLeft = Z;
kernRight = Z;
layers = (
{
anchors = (
{
name = bottom;
pos = (323,0);
},
{
name = center;
pos = (308,329);
},
{
name = top;
pos = (323,658);
}
);
layerId = "3114FB65-9464-41A5-B67E-A8F9F43C0EF1";
shapes = (
{
closed = 1;
nodes = (
(572,0,l),
(572,30,l),
(73,29,l),
(87,6,l),
(561,635,l),
(559,658,l),
(75,658,l),
(75,628,l),
(545,629,l),
(531,652,l),
(57,25,l),
(60,0,l)
);
}
);
width = 615;
},
{
anchors = (
{
name = bottom;
pos = (324,0);
},
{
name = center;
pos = (307,329);
},
{
name = top;
pos = (324,658);
}
);
layerId = "14EEE41F-D714-4243-A717-73445EE7DABA";
shapes = (
{
closed = 1;
nodes = (
(573,0,l),
(573,75,l),
(84,71,l),
(122,6,l),
(562,596,l),
(562,658,l),
(70,658,l),
(70,583,l),
(535,587,l),
(494,652,l),
(53,64,l),
(55,0,l)
);
}
);
width = 613;
},
{
anchors = (
{
name = bottom;
pos = (328,0);
},
{
name = center;
pos = (316,329);
},
{
name = top;
pos = (330,658);
}
);
layerId = "090CB6A0-BE7C-4D17-A551-206C7456A8A3";
shapes = (
{
closed = 1;
nodes = (
(587,0,l),
(587,121,l),
(104,115,l),
(167,14,l),
(577,549,l),
(579,658,l),
(67,658,l),
(67,537,l),
(536,543,l),
(465,644,l),
(53,109,l),
(54,0,l)
);
}
);
width = 631;
}
);
unicode = 90;
},
{
color = 3;
glyphname = a;
kernLeft = a;
kernRight = a;
layers = (
{
anchors = (
{
name = bottom;
pos = (230,0);
},
{
name = ogonek;
pos = (440,31);
},
{
name = top;
pos = (214,409);
}
);
layerId = "3114FB65-9464-41A5-B67E-A8F9F43C0EF1";
shapes = (
{
closed = 1;
nodes = (
(401,-4,o),
(427,10,o),
(444,33,c),
(429,49,l),
(416,30,o),
(396,22,o),
(379,22,cs),
(351,22,o),
(337,43,o),
(337,84,cs),
(340,296,ls),
(341,370,o),
(305,414,o),
(236,414,cs),
(162,414,o),
(77,364,o),
(66,289,c),
(100,286,l),
(108,353,o),
(179,389,o),
(231,389,cs),
(278,389,o),
(307,359,o),
(306,292,cs),
(303,90,ls),
(302,28,o),
(328,-4,o),
(372,-4,cs)
);
},
{
closed = 1;
nodes = (
(210,-4,o),
(269,36,o),
(324,88,c),
(315,105,l),
(255,54,o),
(207,23,o),
(161,23,cs),
(123,23,o),
(92,44,o),
(92,85,cs),
(92,113,o),
(106,137,o),
(164,156,cs),
(327,209,l),
(322,231,l),
(154,179,ls),
(82,157,o),
(58,124,o),
(58,80,cs),
(58,29,o),
(97,-4,o),
(151,-4,cs)
);
}
);
width = 448;
},
{
anchors = (
{
name = bottom;
pos = (234,0);
},
{
name = ogonek;
pos = (433,20);
},
{
name = top;
pos = (221,417);
}
);
layerId = "14EEE41F-D714-4243-A717-73445EE7DABA";
shapes = (
{
closed = 1;
nodes = (
(405,-7,o),
(436,8,o),
(455,30,c),
(428,71,l),
(418,60,o),
(405,54,o),
(392,54,cs),
(376,54,o),
(367,67,o),
(367,90,cs),
(369,300,ls),
(370,377,o),
(332,426,o),
(247,426,cs),
(154,426,o),
(68,371,o),
(53,293,c),
(138,283,l),
(143,346,o),
(195,370,o),
(232,370,cs),
(268,370,o),
(288,346,o),
(287,288,cs),
(283,107,ls),
(282,33,o),
(316,-7,o),
(371,-7,cs)
);
},
{
closed = 1;
nodes = (
(216,-7,o),
(277,38,o),
(335,94,c),
(327,124,l),
(267,86,o),
(219,58,o),
(182,58,cs),
(153,58,o),
(130,74,o),
(130,103,cs),
(130,124,o),
(141,145,o),
(188,159,cs),
(337,204,l),
(332,247,l),
(167,205,ls),
(70,181,o),
(44,139,o),
(44,89,cs),
(44,32,o),
(86,-7,o),
(150,-7,cs)
);
}
);
width = 457;
},
{
anchors = (
{
name = bottom;
pos = (252,0);
},
{
name = ogonek;
pos = (411,2);
},
{
name = top;
pos = (241,425);
}
);
layerId = "090CB6A0-BE7C-4D17-A551-206C7456A8A3";
shapes = (
{
closed = 1;
nodes = (
(430,-12,o),
(470,7,o),
(495,31,c),
(466,91,l),
(455,85,o),
(445,82,o),
(435,82,cs),
(423,82,o),
(416,91,o),
(416,107,cs),
(417,304,ls),
(418,387,o),
(372,438,o),
(266,438,cs),
(163,438,o),
(59,383,o),
(41,292,c),
(175,278,l),
(181,326,o),
(211,349,o),
(241,349,cs),
(272,349,o),
(280,319,o),
(279,282,cs),
(278,126,ls),
(277,39,o),
(310,-12,o),
(382,-12,cs)
);
},
{
closed = 1;
nodes = (
(218,-12,o),
(277,24,o),
(334,84,c),
(323,130,l),
(278,106,o),
(240,85,o),
(212,85,cs),
(188,85,o),
(174,97,o),
(174,117,cs),
(174,136,o),
(188,152,o),
(217,161,cs),
(343,203,l),
(339,264,l),
(174,223,ls),
(78,200,o),
(31,165,o),
(31,97,cs),
(31,31,o),
(78,-12,o),
(154,-12,cs)
);
}
);
width = 493;
}
);
unicode = 97;
},
{
color = 3;
glyphname = aogonek;
kernLeft = a;
kernRight = a;
layers = (
{
anchors = (
{
name = top;
pos = (224,411);
}
);
layerId = "3114FB65-9464-41A5-B67E-A8F9F43C0EF1";
shapes = (
{
closed = 1;
nodes = (
(430,31,l),
(418,49,l),
(399,38,o),
(382,25,o),
(365,25,cs),
(340,25,o),
(327,44,o),
(327,79,cs),
(330,296,ls),
(331,369,o),
(297,414,o),
(230,414,cs),
(155,414,o),
(72,364,o),
(63,295,c),
(97,292,l),
(108,355,o),
(170,386,o),
(221,386,cs),
(264,386,o),
(298,359,o),
(297,292,cs),
(295,84,ls),
(294,27,o),
(321,-2,o),
(360,-2,c)
);
},
{
closed = 1;
nodes = (
(389,-289,o),
(419,-278,o),
(444,-258,c),
(432,-240,l),
(412,-255,o),
(389,-263,o),
(363,-263,cs),
(306,-263,o),
(275,-226,o),
(275,-173,cs),
(275,-103,o),
(325,-28,o),
(430,31,c),
(417,45,l),
(296,-18,o),
(242,-100,o),
(242,-178,cs),
(242,-245,o),
(285,-289,o),
(354,-289,cs)
);
},
{
closed = 1;
nodes = (
(204,-4,o),
(258,33,o),
(315,87,c),
(307,103,l),
(245,52,o),
(200,25,o),
(157,25,cs),
(120,25,o),
(91,46,o),
(91,86,cs),
(91,115,o),
(106,138,o),
(162,156,cs),
(318,207,l),
(312,229,l),
(152,181,ls),
(80,159,o),
(54,125,o),
(54,82,cs),
(54,29,o),
(94,-4,o),
(148,-4,cs)
);
}
);
width = 439;
},
{
anchors = (
{
name = top;
pos = (222,417);
}
);
layerId = "14EEE41F-D714-4243-A717-73445EE7DABA";
shapes = (
{
closed = 1;
nodes = (
(448,31,l),
(422,70,l),
(408,64,o),
(396,57,o),
(380,57,cs),
(364,57,o),
(356,67,o),
(356,87,cs),
(358,300,ls),
(359,379,o),
(322,426,o),
(247,426,cs),
(148,426,o),
(61,365,o),
(51,291,c),
(136,282,l),
(144,344,o),
(188,366,o),
(226,366,cs),
(259,366,o),
(282,348,o),
(281,288,cs),
(278,103,ls),
(276,35,o),
(310,-1,o),
(365,-1,c)
);
},
{
closed = 1;
nodes = (
(397,-289,o),
(429,-277,o),
(458,-255,c),
(436,-211,l),
(419,-221,o),
(400,-228,o),
(379,-228,cs),
(332,-228,o),
(307,-197,o),
(307,-152,cs),
(307,-89,o),
(352,-22,o),
(448,31,c),
(422,51,l),
(282,-11,o),
(222,-90,o),
(222,-169,cs),
(222,-240,o),
(272,-289,o),
(356,-289,cs)
);
},
{
closed = 1;
nodes = (
(211,-6,o),
(269,36,o),
(328,93,c),
(322,124,l),
(260,86,o),
(214,59,o),
(179,59,cs),
(150,59,o),
(130,76,o),
(130,103,cs),
(130,125,o),
(142,146,o),
(186,159,cs),
(330,203,l),
(325,244,l),
(166,205,ls),
(69,181,o),
(41,139,o),
(41,90,cs),
(41,33,o),
(84,-6,o),
(150,-6,cs)
);
}
);
width = 449;
},
{
anchors = (
{
name = top;
pos = (250,425);
}
);
layerId = "090CB6A0-BE7C-4D17-A551-206C7456A8A3";
shapes = (
{
closed = 1;
nodes = (
(497,32,l),
(468,91,l),
(454,86,o),
(444,82,o),
(432,82,cs),
(419,82,o),
(413,92,o),
(413,108,cs),
(414,304,ls),
(415,389,o),
(368,438,o),
(271,438,cs),
(162,438,o),
(54,377,o),
(41,286,c),
(175,272,l),
(183,325,o),
(211,349,o),
(241,349,cs),
(273,349,o),
(280,322,o),
(279,282,cs),
(278,126,ls),
(277,43,o),
(308,-6,o),
(385,-6,c)
);
},
{
closed = 1;
nodes = (
(431,-289,o),
(469,-274,o),
(506,-247,c),
(476,-185,l),
(463,-192,o),
(447,-197,o),
(430,-197,cs),
(386,-197,o),
(365,-169,o),
(365,-127,cs),
(365,-73,o),
(406,-12,o),
(497,32,c),
(448,51,l),
(293,-7,o),
(232,-82,o),
(232,-161,cs),
(232,-236,o),
(282,-289,o),
(380,-289,cs)
);
},
{
closed = 1;
nodes = (
(218,-12,o),
(277,24,o),
(334,84,c),
(323,130,l),
(278,106,o),
(240,85,o),
(212,85,cs),
(188,85,o),
(174,97,o),
(174,117,cs),
(174,136,o),
(188,152,o),
(217,161,cs),
(343,203,l),
(339,262,l),
(174,221,ls),
(78,198,o),
(31,165,o),
(31,96,cs),
(31,31,o),
(78,-12,o),
(156,-12,cs)
);
}
);
width = 492;
}
);
unicode = 261;
},
{
color = 3;
glyphname = ae;
kernLeft = a;
kernRight = c;
layers = (
{
anchors = (
{
name = bottom;
pos = (320,0);
},
{
name = top;
pos = (325,410);
}
);
layerId = "3114FB65-9464-41A5-B67E-A8F9F43C0EF1";
shapes = (
{
closed = 1;
nodes = (
(493,-5,o),
(543,12,o),
(593,58,c),
(578,77,l),
(537,38,o),
(491,23,o),
(448,23,cs),
(393,23,o),
(326,47,o),
(327,149,cs),
(328,303,ls),
(328,374,o),
(294,414,o),
(230,414,cs),
(153,414,o),
(66,359,o),
(56,281,c),
(90,278,l),
(101,352,o),
(172,390,o),
(226,390,cs),
(270,390,o),
(298,362,o),
(298,300,cs),
(297,148,ls),
(296,29,o),
(377,-5,o),
(443,-5,cs)
);
},
{
closed = 1;
nodes = (
(211,-5,o),
(267,25,o),
(320,88,c),
(306,108,l),
(254,46,o),
(207,22,o),
(163,22,cs),
(113,22,o),
(82,46,o),
(82,88,cs),
(82,126,o),
(105,150,o),
(179,165,cs),
(581,247,l),
(575,272,l),
(169,187,ls),
(69,166,o),
(48,125,o),
(48,83,cs),
(48,30,o),
(88,-5,o),
(153,-5,cs)
);
},
{
closed = 1;
nodes = (
(581,247,l),
(583,260,o),
(583,275,o),
(583,286,cs),
(583,351,o),
(537,414,o),
(465,414,cs),
(397,414,o),
(341,375,o),
(307,307,c),
(324,289,l),
(350,350,o),
(401,388,o),
(460,388,cs),
(523,388,o),
(551,332,o),
(551,285,cs),
(551,247,l)
);
}
);
width = 630;
},
{
anchors = (
{
name = bottom;
pos = (322,0);
},
{
name = top;
pos = (338,417);
}
);
layerId = "14EEE41F-D714-4243-A717-73445EE7DABA";
shapes = (
{
closed = 1;
nodes = (
(499,-9,o),
(559,7,o),
(614,59,c),
(581,106,l),
(545,73,o),
(503,58,o),
(464,58,cs),
(403,58,o),
(357,88,o),
(358,159,cs),
(358,302,ls),
(358,382,o),
(319,427,o),
(240,427,cs),
(142,427,o),
(53,365,o),
(43,289,c),
(126,280,l),
(137,349,o),
(187,369,o),
(227,369,cs),
(266,369,o),
(285,349,o),
(284,290,cs),
(283,155,ls),
(281,44,o),
(356,-9,o),
(447,-9,cs)
);
},
{
closed = 1;
nodes = (
(219,-9,o),
(274,28,o),
(333,91,c),
(324,127,l),
(266,83,o),
(219,55,o),
(177,55,cs),
(141,55,o),
(119,76,o),
(119,106,cs),
(119,129,o),
(135,152,o),
(194,161,cs),
(606,223,l),
(596,280,l),
(172,208,ls),
(56,188,o),
(34,138,o),
(34,96,cs),
(34,33,o),
(76,-9,o),
(147,-9,cs)
);
},
{
closed = 1;
nodes = (
(606,223,l),
(609,246,o),
(609,268,o),
(609,276,cs),
(609,360,o),
(554,426,o),
(474,426,cs),
(407,426,o),
(347,384,o),
(310,319,c),
(348,276,l),
(368,329,o),
(409,363,o),
(459,363,cs),
(522,363,o),
(534,305,o),
(534,279,cs),
(534,223,l)
);
}
);
width = 639;
},
{
anchors = (
{
name = bottom;
pos = (345,0);
},
{
name = top;
pos = (359,425);
}
);
layerId = "090CB6A0-BE7C-4D17-A551-206C7456A8A3";
shapes = (
{
closed = 1;
nodes = (
(518,-13,o),
(595,2,o),
(656,60,c),
(610,132,l),
(576,108,o),
(536,95,o),
(496,95,cs),
(431,95,o),
(400,129,o),
(400,193,cs),
(400,304,ls),
(400,390,o),
(356,439,o),
(261,439,cs),
(153,439,o),
(49,380,o),
(36,293,c),
(168,278,l),
(178,331,o),
(205,350,o),
(236,350,cs),
(271,350,o),
(280,330,o),
(280,281,cs),
(279,175,ls),
(279,54,o),
(354,-13,o),
(465,-13,cs)
);
},
{
closed = 1;
nodes = (
(224,-13,o),
(282,16,o),
(345,72,c),
(327,129,l),
(279,101,o),
(241,82,o),
(209,82,cs),
(181,82,o),
(166,99,o),
(166,120,cs),
(166,138,o),
(181,158,o),
(232,163,cs),
(646,203,l),
(639,283,l),
(175,227,ls),
(68,212,o),
(26,167,o),
(26,104,cs),
(26,33,o),
(70,-13,o),
(155,-13,cs)
);
},
{
closed = 1;
nodes = (
(651,203,l),
(655,233,o),
(655,260,o),
(655,277,cs),
(655,374,o),
(592,438,o),
(496,438,cs),
(430,438,o),
(367,403,o),
(329,353,c),
(389,277,l),
(404,319,o),
(433,347,o),
(473,347,cs),
(523,347,o),
(531,301,o),
(531,271,cs),
(531,203,l)
);
}
);
width = 679;
}
);
unicode = 230;
},
{
color = 3;
glyphname = b;
kernLeft = l;
kernRight = o;
layers = (
{
anchors = (
{
name = bottom;
pos = (242,0);
},
{
name = top;
pos = (242,406);
}
);
layerId = "3114FB65-9464-41A5-B67E-A8F9F43C0EF1";
shapes = (
{
closed = 1;
nodes = (
(385,-4,o),
(465,92,o),
(465,215,cs),
(465,333,o),
(393,413,o),
(287,413,cs),
(214,413,o),
(148,376,o),
(102,303,c),
(117,281,l),
(158,356,o),
(224,386,o),
(277,386,cs),
(370,386,o),
(429,313,o),
(429,207,cs),
(429,102,o),
(365,22,o),
(255,22,cs),
(205,22,o),
(151,36,o),
(124,63,c),
(90,45,l),
(122,13,o),
(189,-4,o),
(246,-4,cs)
);
},
{
closed = 1;
nodes = (
(124,63,l),
(124,713,l),
(90,709,l),
(90,45,l)
);
}
);
width = 511;
},
{
anchors = (
{
name = bottom;
pos = (260,0);
},
{
name = top;
pos = (260,406);
}
);
layerId = "14EEE41F-D714-4243-A717-73445EE7DABA";
shapes = (
{
closed = 1;
nodes = (
(416,-7,o),
(496,105,o),
(496,225,cs),
(496,352,o),
(411,425,o),
(313,425,cs),
(227,425,o),
(160,372,o),
(114,303,c),
(143,272,l),
(176,329,o),
(228,357,o),
(278,357,cs),
(350,357,o),
(402,299,o),
(402,196,cs),
(402,117,o),
(362,50,o),
(277,50,cs),
(235,50,o),
(193,63,o),
(166,91,c),
(80,45,l),
(108,12,o),
(180,-7,o),
(250,-7,cs)
);
},
{
closed = 1;
nodes = (
(166,91,l),
(166,718,l),
(80,703,l),
(80,45,l)
);
}
);
width = 535;
},
{
anchors = (
{
name = bottom;
pos = (276,0);
},
{
name = top;
pos = (276,416);
}
);
layerId = "090CB6A0-BE7C-4D17-A551-206C7456A8A3";
shapes = (
{
closed = 1;
nodes = (
(446,-13,o),
(527,105,o),
(527,238,cs),
(527,376,o),
(426,437,o),
(344,437,cs),
(248,437,o),
(176,375,o),
(135,319,c),
(183,272,l),
(210,310,o),
(243,331,o),
(282,331,cs),
(328,331,o),
(366,297,o),
(366,202,cs),
(366,129,o),
(344,82,o),
(287,82,cs),
(257,82,o),
(231,93,o),
(212,112,c),
(62,40,l),
(93,9,o),
(162,-13,o),
(245,-13,cs)
);
},
{
closed = 1;
nodes = (
(212,112,l),
(212,723,l),
(62,698,l),
(62,40,l)
);
}
);
width = 557;
}
);
metricRight = o;
unicode = 98;
},
{
color = 3;
glyphname = c;
kernLeft = o;
kernRight = c;
layers = (
{
anchors = (
{
name = bottom;
pos = (244,0);
},
{
name = top;
pos = (251,409);
}
);
layerId = "3114FB65-9464-41A5-B67E-A8F9F43C0EF1";
shapes = (
{
closed = 1;
nodes = (
(306,-5,o),
(359,14,o),
(399,53,c),
(384,74,l),
(352,41,o),
(307,23,o),
(259,23,cs),
(159,23,o),
(83,96,o),
(83,203,cs),
(83,306,o),
(152,388,o),
(252,388,cs),
(300,388,o),
(341,368,o),
(374,336,c),
(390,363,l),
(355,395,o),
(310,415,o),
(255,415,cs),
(136,415,o),
(46,322,o),
(46,200,cs),
(46,79,o),
(133,-5,o),
(251,-5,cs)
);
}
);
width = 430;
},
{
anchors = (
{
name = bottom;
pos = (247,0);
},
{
name = top;
pos = (260,417);
}
);
layerId = "14EEE41F-D714-4243-A717-73445EE7DABA";
shapes = (
{
closed = 1;
nodes = (
(305,-10,o),
(364,6,o),
(413,54,c),
(386,104,l),
(353,73,o),
(314,58,o),
(276,58,cs),
(196,58,o),
(133,117,o),
(133,211,cs),
(133,294,o),
(177,363,o),
(257,363,cs),
(300,363,o),
(336,343,o),
(371,308,c),
(408,375,l),
(371,408,o),
(325,427,o),
(268,427,cs),
(138,427,o),
(39,332,o),
(39,202,cs),
(39,78,o),
(129,-10,o),
(252,-10,cs)
);
}
);
width = 441;
},
{
anchors = (
{
name = bottom;
pos = (257,0);
},
{
name = top;
pos = (272,425);
}
);
layerId = "090CB6A0-BE7C-4D17-A551-206C7456A8A3";
shapes = (
{
closed = 1;
nodes = (
(311,-15,o),
(378,-2,o),
(438,57,c),
(399,131,l),
(369,108,o),
(339,96,o),
(306,96,cs),
(236,96,o),
(190,147,o),
(190,223,cs),
(190,288,o),
(221,336,o),
(278,336,cs),
(317,336,o),
(350,312,o),
(379,282,c),
(433,394,l),
(393,423,o),
(345,440,o),
(287,440,cs),
(140,440,o),
(31,341,o),
(31,203,cs),
(31,77,o),
(121,-15,o),
(260,-15,cs)
);
}
);
width = 457;
}
);
metricLeft = o;
unicode = 99;
},
{
color = 3;
glyphname = d;
kernLeft = o;
kernRight = l;
layers = (
{
anchors = (
{
name = bottom;
pos = (264,0);
},
{
name = center;
pos = (366,556);
},
{
name = top;
pos = (264,406);
},
{
name = topright;
pos = (565,763);
}
);
layerId = "3114FB65-9464-41A5-B67E-A8F9F43C0EF1";
shapes = (
{
closed = 1;
nodes = (
(313,-4,o),
(375,34,o),
(419,109,c),
(402,122,l),
(360,50,o),
(301,23,o),
(241,23,cs),
(146,23,o),
(83,98,o),
(83,199,cs),
(83,309,o),
(156,387,o),
(258,387,cs),
(322,387,o),
(372,357,o),
(404,301,c),
(416,322,l),
(383,383,o),
(324,414,o),
(255,414,cs),
(136,414,o),
(46,322,o),
(46,197,cs),
(46,81,o),
(121,-4,o),
(235,-4,cs)
);
},
{
closed = 1;
nodes = (
(434,2,l),
(434,713,l),
(400,708,l),
(400,96,l),
(404,-2,l)
);
}
);
width = 522;
},
{
anchors = (
{
name = bottom;
pos = (274,0);
},
{
name = center;
pos = (379,555);
},
{
name = top;
pos = (274,406);
},
{
name = topright;
pos = (610,763);
}
);
layerId = "14EEE41F-D714-4243-A717-73445EE7DABA";
shapes = (
{
closed = 1;
nodes = (
(310,-7,o),
(369,32,o),
(413,114,c),
(380,133,l),
(346,74,o),
(297,53,o),
(253,53,cs),
(178,53,o),
(133,119,o),
(133,207,cs),
(133,299,o),
(187,362,o),
(267,362,cs),
(315,362,o),
(356,339,o),
(382,293,c),
(404,325,l),
(379,390,o),
(320,425,o),
(251,425,cs),
(134,425,o),
(39,328,o),
(39,198,cs),
(39,79,o),
(114,-7,o),
(230,-7,cs)
);
},
{
closed = 1;
nodes = (
(460,8,l),
(460,718,l),
(373,703,l),
(373,82,l),
(388,-8,l)
);
}
);
width = 532;
},
{
anchors = (
{
name = bottom;
pos = (291,0);
},
{
name = center;
pos = (397,560);
},
{
name = top;
pos = (263,416);
},
{
name = topright;
pos = (674,742);
}
);
layerId = "090CB6A0-BE7C-4D17-A551-206C7456A8A3";
shapes = (
{
closed = 1;
nodes = (
(296,-12,o),
(358,34,o),
(399,95,c),
(356,139,l),
(331,102,o),
(299,89,o),
(272,89,cs),
(223,89,o),
(195,134,o),
(195,217,cs),
(195,290,o),
(227,335,o),
(283,335,cs),
(313,335,o),
(339,321,o),
(356,293,c),
(383,349,l),
(363,401,o),
(318,437,o),
(245,437,cs),
(120,437,o),
(31,334,o),
(31,200,cs),
(31,76,o),
(102,-12,o),
(214,-12,cs)
);
},
{
closed = 1;
nodes = (
(498,11,l),
(498,723,l),
(346,698,l),
(346,74,l),
(375,-13,l)
);
}
);
width = 551;
}
);
metricLeft = o;
metricRight = u;
unicode = 100;
},
{
color = 3;
glyphname = eth;
kernLeft = oaccent;
kernRight = oaccent;
layers = (
{
layerId = "3114FB65-9464-41A5-B67E-A8F9F43C0EF1";
shapes = (
{
closed = 1;
nodes = (
(377,-5,o),
(453,89,o),
(453,244,cs),
(453,426,o),
(327,619,o),
(104,716,c),
(93,694,l),
(306,597,o),
(419,415,o),
(419,240,cs),
(419,104,o),
(359,22,o),
(255,22,cs),
(155,22,o),
(83,97,o),
(83,203,cs),
(83,308,o),
(155,387,o),
(260,387,cs),
(322,387,o),
(374,361,o),
(414,314,c),
(426,332,l),
(384,382,o),
(324,411,o),
(256,411,cs),
(136,411,o),
(46,323,o),
(46,201,cs),
(46,82,o),
(132,-5,o),
(251,-5,cs)
);
},
{
closed = 1;
nodes = (
(437,683,l),
(423,706,l),
(80,507,l),
(95,484,l)
);
}
);
width = 499;
},
{
layerId = "14EEE41F-D714-4243-A717-73445EE7DABA";
shapes = (
{
closed = 1;
nodes = (
(393,-8,o),
(478,97,o),
(478,245,cs),
(478,431,o),
(332,635,o),
(107,719,c),
(83,669,l),
(282,579,o),
(392,405,o),
(392,234,cs),
(392,129,o),
(352,56,o),
(269,56,cs),
(192,56,o),
(133,116,o),
(133,211,cs),
(133,293,o),
(180,359,o),
(268,359,cs),
(319,359,o),
(358,337,o),
(390,298,c),
(412,340,l),
(378,388,o),
(322,416,o),
(255,416,cs),
(133,416,o),
(39,326,o),
(39,203,cs),
(39,80,o),
(131,-8,o),
(256,-8,cs)
);
},
{
closed = 1;
nodes = (
(442,661,l),
(410,714,l),
(67,516,l),
(100,463,l)
);
}
);
width = 517;
},
{
layerId = "090CB6A0-BE7C-4D17-A551-206C7456A8A3";
shapes = (
{
closed = 1;
nodes = (
(415,-12,o),
(511,97,o),
(511,246,cs),
(511,437,o),
(336,654,o),
(106,721,c),
(70,644,l),
(252,564,o),
(355,408,o),
(355,225,cs),
(355,139,o),
(337,90,o),
(280,90,cs),
(228,90,o),
(192,130,o),
(192,215,cs),
(192,283,o),
(217,328,o),
(276,328,cs),
(310,328,o),
(336,314,o),
(358,286,c),
(392,346,l),
(371,392,o),
(319,418,o),
(253,418,cs),
(130,418,o),
(31,328,o),
(31,205,cs),
(31,78,o),
(129,-12,o),
(262,-12,cs)
);
},
{
closed = 1;
nodes = (
(464,634,l),
(419,718,l),
(59,524,l),
(103,444,l)
);
}
);
width = 541;
}
);
metricLeft = o;
metricRight = o;
unicode = 240;
},
{
color = 3;
glyphname = dcroat;
kernLeft = o;
kernRight = l;
layers = (
{
layerId = "3114FB65-9464-41A5-B67E-A8F9F43C0EF1";
shapes = (
{
closed = 1;
nodes = (
(191,541,l),
(540,543,l),
(541,568,l),
(192,569,l)
);
},
{
ref = d;
}
);
width = 522;
},
{
layerId = "14EEE41F-D714-4243-A717-73445EE7DABA";
shapes = (
{
closed = 1;
nodes = (
(195,520,l),
(555,526,l),
(561,584,l),
(201,586,l)
);
},
{
ref = d;
}
);
width = 532;
},
{
layerId = "090CB6A0-BE7C-4D17-A551-206C7456A8A3";
shapes = (
{
closed = 1;
nodes = (
(193.04,508.92,l),
(583.04,520.44,l),
(592.4,603,l),
(202.4,605.88,l)
);
},
{
ref = d;
}
);
width = 551;
}
);
unicode = 273;
},
{
color = 3;
glyphname = e;
kernLeft = o;
kernRight = c;
layers = (
{
anchors = (
{
name = bottom;
pos = (247,0);
},
{
name = ogonek;
pos = (407,12);
},
{
name = top;
pos = (242,410);
}
);
layerId = "3114FB65-9464-41A5-B67E-A8F9F43C0EF1";
shapes = (
{
closed = 1;
nodes = (
(293,-5,o),
(342,12,o),
(392,58,c),
(376,78,l),
(336,39,o),
(292,23,o),
(247,23,cs),
(147,23,o),
(79,91,o),
(79,194,cs),
(79,312,o),
(152,388,o),
(253,388,cs),
(322,388,o),
(359,351,o),
(359,272,cs),
(359,252,l),
(389,252,l),
(390,258,o),
(390,266,o),
(390,273,cs),
(390,360,o),
(346,414,o),
(254,414,cs),
(135,414,o),
(46,326,o),
(46,191,cs),
(46,72,o),
(125,-5,o),
(241,-5,cs)
);
},
{
closed = 1;
nodes = (
(382,252,l),
(382,276,l),
(77,276,l),
(72,252,l)
);
}
);
width = 442;
},
{
anchors = (
{
name = bottom;
pos = (240,0);
},
{
name = ogonek;
pos = (417,11);
},
{
name = top;
pos = (245,417);
}
);
layerId = "14EEE41F-D714-4243-A717-73445EE7DABA";
shapes = (
{
closed = 1;
nodes = (
(297,-10,o),
(356,6,o),
(412,60,c),
(382,107,l),
(344,73,o),
(303,58,o),
(260,58,cs),
(179,58,o),
(122,115,o),
(122,207,cs),
(122,302,o),
(173,366,o),
(252,366,cs),
(311,366,o),
(336,330,o),
(336,261,cs),
(336,218,l),
(411,218,l),
(412,231,o),
(413,247,o),
(413,260,cs),
(413,363,o),
(361,427,o),
(259,427,cs),
(134,427,o),
(39,333,o),
(39,194,cs),
(39,67,o),
(123,-10,o),
(242,-10,cs)
);
},
{
closed = 1;
nodes = (
(400,218,l),
(400,272,l),
(96,272,l),
(85,218,l)
);
}
);
width = 456;
},
{
anchors = (
{
name = bottom;
pos = (250,0);
},
{
name = ogonek;
pos = (429,10);
},
{
name = top;
pos = (258,425);
}
);
layerId = "090CB6A0-BE7C-4D17-A551-206C7456A8A3";
shapes = (
{
closed = 1;
nodes = (
(305,-15,o),
(382,1,o),
(445,62,c),
(402,134,l),
(368,109,o),
(330,95,o),
(290,95,cs),
(213,95,o),
(171,140,o),
(171,223,cs),
(171,297,o),
(202,350,o),
(260,350,cs),
(303,350,o),
(322,318,o),
(322,258,cs),
(322,196,l),
(444,196,l),
(447,220,o),
(447,244,o),
(447,267,cs),
(447,372,o),
(383,440,o),
(270,440,cs),
(131,440,o),
(31,341,o),
(31,197,cs),
(31,62,o),
(120,-15,o),
(249,-15,cs)
);
},
{
closed = 1;
nodes = (
(435,196,l),
(435,273,l),
(119,273,l),
(102,196,l)
);
}
);
width = 481;
}
);
metricLeft = o;
unicode = 101;
},
{
color = 3;
glyphname = eogonek;
kernLeft = o;
kernRight = c;
layers = (
{
anchors = (
{
name = top;
pos = (264,410);
}
);
layerId = "3114FB65-9464-41A5-B67E-A8F9F43C0EF1";
shapes = (
{
closed = 1;
nodes = (
(301,-4,o),
(352,13,o),
(403,59,c),
(385,78,l),
(344,40,o),
(299,24,o),
(256,24,cs),
(154,24,o),
(87,92,o),
(87,194,cs),
(87,310,o),
(160,387,o),
(262,387,cs),
(331,387,o),
(367,350,o),
(367,275,cs),
(367,256,l),
(397,256,l),
(399,262,o),
(399,269,o),
(399,276,cs),
(399,359,o),
(355,413,o),
(264,413,cs),
(143,413,o),
(55,324,o),
(55,191,cs),
(55,73,o),
(133,-4,o),
(252,-4,cs)
);
},
{
closed = 1;
nodes = (
(360,-289,o),
(388,-278,o),
(415,-258,c),
(404,-238,l),
(383,-254,o),
(361,-263,o),
(327,-263,cs),
(276,-263,o),
(243,-228,o),
(243,-175,cs),
(243,-110,o),
(289,-43,o),
(403,59,c),
(352,38,l),
(248,-48,o),
(209,-115,o),
(209,-183,cs),
(209,-244,o),
(252,-289,o),
(319,-289,cs)
);
},
{
closed = 1;
nodes = (
(390,256,l),
(390,280,l),
(91,280,l),
(86,256,l)
);
}
);
width = 450;
},
{
anchors = (
{
name = top;
pos = (253,417);
}
);
layerId = "14EEE41F-D714-4243-A717-73445EE7DABA";
shapes = (
{
closed = 1;
nodes = (
(300,-9,o),
(360,6,o),
(417,60,c),
(384,106,l),
(346,74,o),
(305,58,o),
(263,58,cs),
(178,58,o),
(124,115,o),
(124,207,cs),
(124,300,o),
(175,364,o),
(254,364,cs),
(314,364,o),
(339,327,o),
(339,260,cs),
(339,218,l),
(413,218,l),
(415,231,o),
(416,247,o),
(416,260,cs),
(416,361,o),
(364,426,o),
(262,426,cs),
(137,426,o),
(42,332,o),
(42,194,cs),
(42,67,o),
(126,-9,o),
(246,-9,cs)
);
},
{
closed = 1;
nodes = (
(360,-289,o),
(392,-277,o),
(423,-255,c),
(398,-211,l),
(382,-223,o),
(364,-228,o),
(339,-228,cs),
(293,-228,o),
(263,-198,o),
(263,-154,cs),
(263,-97,o),
(307,-42,o),
(417,60,c),
(345,43,l),
(220,-35,o),
(177,-102,o),
(177,-178,cs),
(177,-237,o),
(229,-289,o),
(312,-289,cs)
);
},
{
closed = 1;
nodes = (
(402,218,l),
(402,272,l),
(100,272,l),
(90,218,l)
);
}
);
width = 458;
},
{
anchors = (
{
name = top;
pos = (257,425);
}
);
layerId = "090CB6A0-BE7C-4D17-A551-206C7456A8A3";
shapes = (
{
closed = 1;
nodes = (
(305,-15,o),
(379,11,o),
(445,60,c),
(402,133,l),
(368,109,o),
(330,96,o),
(290,96,cs),
(212,96,o),
(170,140,o),
(170,223,cs),
(170,296,o),
(201,349,o),
(260,349,cs),
(303,349,o),
(322,317,o),
(322,258,cs),
(322,196,l),
(444,196,l),
(447,220,o),
(447,244,o),
(447,267,cs),
(447,372,o),
(383,440,o),
(270,440,cs),
(131,440,o),
(31,341,o),
(31,197,cs),
(31,62,o),
(120,-15,o),
(249,-15,cs)
);
},
{
closed = 1;
nodes = (
(378,-289,o),
(417,-274,o),
(454,-247,c),
(421,-186,l),
(408,-194,o),
(394,-197,o),
(377,-197,cs),
(334,-197,o),
(311,-169,o),
(311,-126,cs),
(311,-70,o),
(349,-19,o),
(445,60,c),
(376,59,l),
(241,-2,o),
(172,-80,o),
(172,-169,cs),
(172,-232,o),
(227,-289,o),
(323,-289,cs)
);
},
{
closed = 1;
nodes = (
(435,196,l),
(435,273,l),
(119,273,l),
(102,196,l)
);
}
);
width = 481;
}
);
unicode = 281;
},
{
color = 3;
glyphname = f;
kernLeft = f;
kernRight = f;
layers = (
{
anchors = (
{
name = bottom;
pos = (170,0);
},
{
name = top;
pos = (240,529);
}
);
layerId = "3114FB65-9464-41A5-B67E-A8F9F43C0EF1";
shapes = (
{
closed = 1;
nodes = (
(162,0,l),
(162,442,ls),
(162,554,o),
(198,685,o),
(333,685,cs),
(371,685,o),
(403,674,o),
(431,657,c),
(446,684,l),
(419,701,o),
(383,711,o),
(345,711,cs),
(209,711,o),
(127,615,o),
(127,435,cs),
(127,0,l)
);
},
{
closed = 1;
nodes = (
(332,369,l),
(334,398,l),
(38,396,l),
(36,369,l)
);
}
);
width = 341;
},
{
anchors = (
{
name = bottom;
pos = (176,0);
},
{
name = top;
pos = (176,417);
}
);
layerId = "14EEE41F-D714-4243-A717-73445EE7DABA";
shapes = (
{
closed = 1;
nodes = (
(194,0,l),
(194,448,ls),
(194,551,o),
(219,649,o),
(321,649,cs),
(358,649,o),
(393,636,o),
(424,611,c),
(463,675,l),
(430,700,o),
(389,711,o),
(344,711,cs),
(208,711,o),
(106,614,o),
(106,425,cs),
(106,0,l)
);
},
{
closed = 1;
nodes = (
(348,352,l),
(354,413,l),
(31,407,l),
(26,353,l)
);
}
);
width = 352;
},
{
anchors = (
{
name = bottom;
pos = (185,0);
},
{
name = top;
pos = (243,537);
}
);
layerId = "090CB6A0-BE7C-4D17-A551-206C7456A8A3";
shapes = (
{
closed = 1;
nodes = (
(239,0,l),
(239,455,ls),
(239,558,o),
(267,602,o),
(328,602,cs),
(359,602,o),
(393,591,o),
(428,563,c),
(489,673,l),
(448,700,o),
(405,711,o),
(342,711,cs),
(197,711,o),
(85,602,o),
(85,410,cs),
(85,0,l)
);
},
{
closed = 1;
nodes = (
(372,320,l),
(382,425,l),
(23,415,l),
(14,325,l)
);
}
);
width = 378;
}
);
unicode = 102;
},
{
color = 3;
glyphname = f.short;
kernRight = f.short;
layers = (
{
anchors = (
{
name = bottom;
pos = (161,0);
},
{
name = top;
pos = (225,526);
}
);
layerId = "3114FB65-9464-41A5-B67E-A8F9F43C0EF1";
shapes = (
{
closed = 1;
nodes = (
(162,0,l),
(162,442,ls),
(162,590,o),
(210,684,o),
(321,684,cs),
(343,684,o),
(367,680,o),
(391,669,c),
(406,695,l),
(385,704,o),
(357,711,o),
(326,711,cs),
(201,711,o),
(127,615,o),
(127,435,cs),
(127,0,l)
);
},
{
closed = 1;
nodes = (
(352,398,l),
(38,396,l),
(36,370,l),
(350,370,l)
);
}
);
width = 367;
},
{
anchors = (
{
name = bottom;
pos = (161,0);
},
{
name = top;
pos = (256,581);
}
);
layerId = "14EEE41F-D714-4243-A717-73445EE7DABA";
shapes = (
{
closed = 1;
nodes = (
(194,0,l),
(194,448,ls),
(194,560,o),
(211,646,o),
(311,646,cs),
(331,646,o),
(355,641,o),
(378,627,c),
(406,694,l),
(386,703,o),
(358,711,o),
(327,711,cs),
(198,711,o),
(106,614,o),
(106,425,cs),
(106,0,l)
);
},
{
closed = 1;
nodes = (
(366,413,l),
(31,407,l),
(26,354,l),
(361,353,l)
);
}
);
width = 370;
},
{
anchors = (
{
name = bottom;
pos = (161,0);
},
{
name = top;
pos = (328,711);
}
);
layerId = "090CB6A0-BE7C-4D17-A551-206C7456A8A3";
shapes = (
{
closed = 1;
nodes = (
(239,0,l),
(239,455,ls),
(239,541,o),
(246,600,o),
(316,600,cs),
(341,600,o),
(367,593,o),
(394,577,c),
(427,690,l),
(401,703,o),
(371,711,o),
(328,711,cs),
(189,711,o),
(85,602,o),
(85,410,cs),
(85,0,l)
);
},
{
closed = 1;
nodes = (
(392,425,l),
(23,415,l),
(14,325,l),
(382,320,l)
);
}
);
width = 395;
}
);
metricLeft = f;
},
{
color = 3;
glyphname = g;
kernLeft = o;
kernRight = g;
layers = (
{
anchors = (
{
name = bottom;
pos = (237,-289);
},
{
name = top;
pos = (237,410);
}
);
layerId = "3114FB65-9464-41A5-B67E-A8F9F43C0EF1";
shapes = (
{
closed = 1;
nodes = (
(340,-289,o),
(442,-204,o),
(442,-102,cs),
(442,-20,o),
(374,-8,o),
(256,4,cs),
(159,14,o),
(106,21,o),
(106,63,cs),
(106,92,o),
(131,113,o),
(175,136,c),
(157,153,l),
(102,121,o),
(74,94,o),
(74,54,cs),
(74,-4,o),
(148,-14,o),
(240,-23,cs),
(355,-35,o),
(408,-43,o),
(408,-111,cs),
(408,-193,o),
(326,-265,o),
(217,-265,cs),
(135,-265,o),
(78,-226,o),
(78,-161,cs),
(78,-108,o),
(117,-56,o),
(208,-11,c),
(195,4,l),
(91,-42,o),
(43,-107,o),
(43,-167,cs),
(43,-242,o),
(114,-289,o),
(210,-289,cs)
);
},
{
closed = 1;
nodes = (
(322,119,o),
(392,184,o),
(392,271,cs),
(392,355,o),
(326,414,o),
(234,414,cs),
(139,414,o),
(69,351,o),
(69,265,cs),
(69,181,o),
(135,119,o),
(227,119,cs)
);
},
{
closed = 1;
nodes = (
(157,144,o),
(103,197,o),
(103,267,cs),
(103,339,o),
(156,389,o),
(229,389,cs),
(305,389,o),
(358,339,o),
(358,266,cs),
(358,196,o),
(306,144,o),
(231,144,cs)
);
},
{
closed = 1;
nodes = (
(451,373,l),
(451,398,l),
(296,393,l),
(310,373,l)
);
}
);
width = 473;
},
{
anchors = (
{
name = bottom;
pos = (244,-289);
},
{
name = top;
pos = (248,417);
}
);
layerId = "14EEE41F-D714-4243-A717-73445EE7DABA";
shapes = (
{
closed = 1;
nodes = (
(348,-289,o),
(464,-206,o),
(464,-91,cs),
(464,1,o),
(383,14,o),
(277,26,cs),
(178,36,o),
(138,45,o),
(138,80,cs),
(138,108,o),
(167,128,o),
(196,141,c),
(169,168,l),
(104,136,o),
(63,103,o),
(63,51,cs),
(63,-15,o),
(143,-33,o),
(229,-41,cs),
(335,-53,o),
(380,-59,o),
(380,-119,cs),
(380,-185,o),
(314,-231,o),
(234,-231,cs),
(168,-231,o),
(122,-201,o),
(122,-148,cs),
(122,-101,o),
(155,-54,o),
(229,-17,c),
(206,8,l),
(90,-38,o),
(34,-104,o),
(34,-166,cs),
(34,-243,o),
(108,-289,o),
(212,-289,cs)
);
},
{
closed = 1;
nodes = (
(332,119,o),
(407,188,o),
(407,281,cs),
(407,367,o),
(340,427,o),
(242,427,cs),
(138,427,o),
(59,360,o),
(59,267,cs),
(59,182,o),
(125,119,o),
(225,119,cs)
);
},
{
closed = 1;
nodes = (
(181,178,o),
(139,219,o),
(139,277,cs),
(139,332,o),
(175,368,o),
(228,368,cs),
(288,368,o),
(328,326,o),
(328,267,cs),
(328,214,o),
(293,178,o),
(239,178,cs)
);
},
{
closed = 1;
nodes = (
(472,357,l),
(472,413,l),
(301,398,l),
(312,357,l)
);
}
);
width = 488;
},
{
anchors = (
{
name = bottom;
pos = (258,-289);
},
{
name = top;
pos = (260,425);
}
);
layerId = "090CB6A0-BE7C-4D17-A551-206C7456A8A3";
shapes = (
{
closed = 1;
nodes = (
(361,-289,o),
(491,-209,o),
(491,-76,cs),
(491,28,o),
(404,44,o),
(309,53,cs),
(212,62,o),
(163,65,o),
(163,101,cs),
(163,126,o),
(191,140,o),
(223,153,c),
(195,185,l),
(113,154,o),
(48,113,o),
(48,48,cs),
(48,-25,o),
(135,-50,o),
(219,-58,cs),
(304,-66,o),
(358,-70,o),
(358,-119,cs),
(358,-166,o),
(310,-190,o),
(254,-190,cs),
(201,-190,o),
(165,-170,o),
(165,-130,cs),
(165,-92,o),
(195,-54,o),
(249,-24,c),
(220,6,l),
(90,-38,o),
(25,-104,o),
(25,-167,cs),
(25,-242,o),
(105,-289,o),
(215,-289,cs)
);
},
{
closed = 1;
nodes = (
(343,119,o),
(427,184,o),
(427,289,cs),
(427,379,o),
(362,439,o),
(251,439,cs),
(133,439,o),
(45,372,o),
(45,272,cs),
(45,182,o),
(118,119,o),
(230,119,cs)
);
},
{
closed = 1;
nodes = (
(203,214,o),
(174,241,o),
(174,282,cs),
(174,320,o),
(197,344,o),
(235,344,cs),
(278,344,o),
(305,316,o),
(305,274,cs),
(305,238,o),
(283,214,o),
(244,214,cs)
);
},
{
closed = 1;
nodes = (
(496,335,l),
(496,435,l),
(312,405,l),
(321,335,l)
);
}
);
width = 507;
}
);
unicode = 103;
},
{
color = 3;
glyphname = h;
kernLeft = l;
kernRight = n;
layers = (
{
anchors = (
{
name = bottom;
pos = (264,0);
},
{
name = center;
pos = (159,555);
},
{
name = top;
pos = (107,700);
}
);
layerId = "3114FB65-9464-41A5-B67E-A8F9F43C0EF1";
shapes = (
{
closed = 1;
nodes = (
(438,0,l),
(438,255,ls),
(438,355,o),
(384,414,o),
(297,414,cs),
(229,414,o),
(137,378,o),
(99,284,c),
(114,270,l),
(151,353,o),
(226,386,o),
(286,386,cs),
(361,386,o),
(403,334,o),
(403,245,cs),
(403,0,l)
);
},
{
closed = 1;
nodes = (
(125,0,l),
(125,713,l),
(90,708,l),
(90,0,l)
);
}
);
width = 525;
},
{
anchors = (
{
name = bottom;
pos = (274,0);
},
{
name = center;
pos = (160,554);
},
{
name = top;
pos = (126,700);
}
);
layerId = "14EEE41F-D714-4243-A717-73445EE7DABA";
shapes = (
{
closed = 1;
nodes = (
(466,0,l),
(466,268,ls),
(466,365,o),
(404,423,o),
(319,423,cs),
(243,423,o),
(163,382,o),
(113,294,c),
(142,271,l),
(173,330,o),
(232,358,o),
(282,358,cs),
(344,358,o),
(378,313,o),
(378,237,cs),
(378,0,l)
);
},
{
closed = 1;
nodes = (
(167,0,l),
(167,718,l),
(80,703,l),
(80,0,l)
);
}
);
width = 538;
},
{
anchors = (
{
name = bottom;
pos = (285,0);
},
{
name = center;
pos = (167,552);
},
{
name = top;
pos = (146,704);
}
);
layerId = "090CB6A0-BE7C-4D17-A551-206C7456A8A3";
shapes = (
{
closed = 1;
nodes = (
(505,0,l),
(505,283,ls),
(505,375,o),
(440,433,o),
(355,433,cs),
(279,433,o),
(217,394,o),
(158,330,c),
(196,283,l),
(215,313,o),
(253,330,o),
(285,330,cs),
(329,330,o),
(350,296,o),
(350,244,cs),
(350,0,l)
);
},
{
closed = 1;
nodes = (
(216,0,l),
(216,723,l),
(65,698,l),
(65,0,l)
);
}
);
width = 558;
}
);
metricRight = n;
unicode = 104;
},
{
color = 3;
glyphname = hbar;
kernLeft = l;
kernRight = n;
layers = (
{
layerId = "3114FB65-9464-41A5-B67E-A8F9F43C0EF1";
shapes = (
{
closed = 1;
nodes = (
(334,570,l),
(-15,568,l),
(-16,543,l),
(333,542,l)
);
},
{
ref = h;
}
);
width = 525;
},
{
layerId = "14EEE41F-D714-4243-A717-73445EE7DABA";
shapes = (
{
closed = 1;
nodes = (
(344,589,l),
(-16,583,l),
(-22,525,l),
(338,523,l)
);
},
{
ref = h;
}
);
width = 538;
},
{
layerId = "090CB6A0-BE7C-4D17-A551-206C7456A8A3";
shapes = (
{
closed = 1;
nodes = (
(370.96,603.08,l),
(-19.04,591.56,l),
(-28.4,509,l),
(361.6,506.12,l)
);
},
{
ref = h;
}
);
width = 558;
}
);
unicode = 295;
},
{
color = 3;
glyphname = idotless;
kernLeft = n;
layers = (
{
anchors = (
{
name = bottom;
pos = (125,0);
},
{
name = ogonek;
pos = (142,0);
},
{
name = top;
pos = (125,409);
}
);
layerId = "3114FB65-9464-41A5-B67E-A8F9F43C0EF1";
shapes = (
{
closed = 1;
nodes = (
(142,0,l),
(142,412,l),
(108,407,l),
(108,0,l)
);
}
);
width = 250;
},
{
anchors = (
{
name = bottom;
pos = (133,0);
},
{
name = ogonek;
pos = (177,0);
},
{
name = top;
pos = (133,417);
}
);
layerId = "14EEE41F-D714-4243-A717-73445EE7DABA";
shapes = (
{
closed = 1;
nodes = (
(177,0,l),
(177,425,l),
(89,410,l),
(89,0,l)
);
}
);
width = 265;
},
{
anchors = (
{
name = bottom;
pos = (145,0);
},
{
name = ogonek;
pos = (221,0);
},
{
name = top;
pos = (145,425);
}
);
layerId = "090CB6A0-BE7C-4D17-A551-206C7456A8A3";
shapes = (
{
closed = 1;
nodes = (
(221,0,l),
(221,438,l),
(66,412,l),
(66,0,l)
);
}
);
width = 286;
}
);
unicode = 305;
},
{
color = 3;
glyphname = igrave;
layers = (
{
anchors = (
{
name = top;
pos = (89,723);
}
);
layerId = "3114FB65-9464-41A5-B67E-A8F9F43C0EF1";
shapes = (
{
closed = 1;
nodes = (
(169,512,l),
(52,703,l),
(13,703,l),
(141,512,l)
);
},
{
ref = idotless;
}
);
width = 250;
},
{
anchors = (
{
name = top;
pos = (95,715);
}
);
layerId = "14EEE41F-D714-4243-A717-73445EE7DABA";
shapes = (
{
closed = 1;
nodes = (
(192,507,l),
(98,708,l),
(-1,708,l),
(127,507,l)
);
},
{
ref = idotless;
}
);
width = 265;
},
{
anchors = (
{
name = top;
pos = (130,728);
}
);
layerId = "090CB6A0-BE7C-4D17-A551-206C7456A8A3";
shapes = (
{
closed = 1;
nodes = (
(229,505,l),
(152,711,l),
(-16,711,l),
(118,505,l)
);
},
{
ref = idotless;
}
);
width = 286;
}
);
unicode = 236;
},
{
color = 3;
glyphname = iogonek;
layers = (
{
layerId = "3114FB65-9464-41A5-B67E-A8F9F43C0EF1";
shapes = (
{
closed = 1;
nodes = (
(172,-289,o),
(199,-279,o),
(224,-258,c),
(212,-238,l),
(192,-254,o),
(172,-262,o),
(145,-262,cs),
(88,-262,o),
(55,-224,o),
(55,-165,cs),
(55,-110,o),
(81,-48,o),
(142,0,c),
(127,14,l),
(50,-41,o),
(21,-113,o),
(21,-172,cs),
(21,-245,o),
(64,-289,o),
(136,-289,cs)
);
},
{
ref = idotless;
},
{
pos = (42,0);
ref = dotaccentcomb;
}
);
width = 250;
},
{
layerId = "14EEE41F-D714-4243-A717-73445EE7DABA";
shapes = (
{
closed = 1;
nodes = (
(189,-289,o),
(223,-278,o),
(254,-257,c),
(231,-210,l),
(214,-220,o),
(196,-225,o),
(176,-225,cs),
(128,-225,o),
(106,-187,o),
(106,-143,cs),
(106,-91,o),
(128,-40,o),
(177,0,c),
(143,30,l),
(54,-26,o),
(18,-99,o),
(18,-163,cs),
(18,-240,o),
(64,-289,o),
(144,-289,cs)
);
},
{
ref = idotless;
},
{
pos = (40,0);
ref = dotaccentcomb;
}
);
width = 265;
},
{
layerId = "090CB6A0-BE7C-4D17-A551-206C7456A8A3";
shapes = (
{
closed = 1;
nodes = (
(219,-289,o),
(260,-274,o),
(297,-248,c),
(268,-185,l),
(254,-192,o),
(238,-194,o),
(223,-194,cs),
(180,-194,o),
(163,-160,o),
(163,-121,cs),
(163,-74,o),
(181,-34,o),
(221,0,c),
(155,31,l),
(62,-22,o),
(24,-91,o),
(24,-161,cs),
(24,-236,o),
(74,-289,o),
(165,-289,cs)
);
},
{
ref = idotless;
},
{
pos = (38,0);
ref = dotaccentcomb;
}
);
width = 286;
}
);
unicode = 303;
},
{
color = 3;
glyphname = jdotless;
layers = (
{
anchors = (
{
name = bottom;
pos = (125,0);
},
{
name = top;
pos = (125,409);
}
);
layerId = "3114FB65-9464-41A5-B67E-A8F9F43C0EF1";
shapes = (
{
closed = 1;
nodes = (
(108,-159,o),
(75,-239,o),
(7,-269,c),
(16,-289,l),
(103,-258,o),
(142,-171,o),
(142,-19,cs),
(142,412,l),
(108,407,l),
(108,-19,ls)
);
}
);
width = 250;
},
{
anchors = (
{
name = bottom;
pos = (133,0);
},
{
name = top;
pos = (133,417);
}
);
layerId = "14EEE41F-D714-4243-A717-73445EE7DABA";
shapes = (
{
closed = 1;
nodes = (
(89,-138,o),
(57,-214,o),
(-9,-247,c),
(11,-289,l),
(125,-257,o),
(177,-166,o),
(177,-7,cs),
(177,425,l),
(89,410,l),
(89,-7,ls)
);
}
);
width = 265;
},
{
anchors = (
{
name = bottom;
pos = (145,-116);
},
{
name = top;
pos = (145,425);
}
);
layerId = "090CB6A0-BE7C-4D17-A551-206C7456A8A3";
shapes = (
{
closed = 1;
nodes = (
(68,-111,o),
(38,-180,o),
(-25,-219,c),
(9,-289,l),
(154,-255,o),
(223,-159,o),
(223,10,cs),
(223,438,l),
(68,412,l),
(68,10,ls)
);
}
);
width = 288;
}
);
metricRight = idotless;
unicode = 567;
},
{
color = 3;
glyphname = k;
kernLeft = l;
kernRight = k;
layers = (
{
anchors = (
{
name = bottom;
pos = (228,0);
},
{
name = top;
pos = (111,711);
}
);
layerId = "3114FB65-9464-41A5-B67E-A8F9F43C0EF1";
shapes = (
{
closed = 1;
nodes = (
(411,0,l),
(411,2,l),
(144,230,l),
(140,205,l),
(394,408,l),
(394,410,l),
(347,410,l),
(116,216,l),
(116,202,l),
(131,202,l),
(360,0,l)
);
},
{
closed = 1;
nodes = (
(124,0,l),
(124,713,l),
(90,709,l),
(90,0,l)
);
}
);
width = 422;
},
{
anchors = (
{
name = bottom;
pos = (250,0);
},
{
name = top;
pos = (130,711);
}
);
layerId = "14EEE41F-D714-4243-A717-73445EE7DABA";
shapes = (
{
closed = 1;
nodes = (
(466,0,l),
(466,2,l),
(221,259,l),
(210,200,l),
(449,415,l),
(449,417,l),
(336,417,l),
(156,223,l),
(156,202,l),
(173,202,l),
(346,0,l)
);
},
{
closed = 1;
nodes = (
(166,0,l),
(166,718,l),
(80,703,l),
(80,0,l)
);
}
);
width = 467;
},
{
anchors = (
{
name = bottom;
pos = (290,0);
},
{
name = top;
pos = (146,706);
}
);
layerId = "090CB6A0-BE7C-4D17-A551-206C7456A8A3";
shapes = (
{
closed = 1;
nodes = (
(545,0,l),
(545,2,l),
(321,295,l),
(312,191,l),
(531,423,l),
(531,425,l),
(343,425,l),
(209,232,l),
(209,205,l),
(225,205,l),
(354,0,l)
);
},
{
closed = 1;
nodes = (
(216,0,l),
(216,723,l),
(65,698,l),
(65,0,l)
);
}
);
width = 547;
}
);
metricLeft = h;
unicode = 107;
},
{
color = 3;
glyphname = l;
kernLeft = l;
kernRight = l;
layers = (
{
anchors = (
{
name = bottom;
pos = (119,0);
},
{
name = center;
pos = (117,340);
},
{
name = top;
pos = (119,711);
},
{
name = topright;
pos = (264,762);
}
);
layerId = "3114FB65-9464-41A5-B67E-A8F9F43C0EF1";
shapes = (
{
closed = 1;
nodes = (
(133,0,l),
(133,713,l),
(98,709,l),
(98,0,l)
);
}
);
width = 230;
},
{
anchors = (
{
name = bottom;
pos = (133,0);
},
{
name = center;
pos = (127,343);
},
{
name = top;
pos = (133,711);
},
{
name = topright;
pos = (319,763);
}
);
layerId = "14EEE41F-D714-4243-A717-73445EE7DABA";
shapes = (
{
closed = 1;
nodes = (
(170,0,l),
(170,718,l),
(83,703,l),
(83,0,l)
);
}
);
width = 251;
},
{
anchors = (
{
name = bottom;
pos = (148,0);
},
{
name = center;
pos = (140,344);
},
{
name = top;
pos = (145,707);
},
{
name = topright;
pos = (390,742);
}
);
layerId = "090CB6A0-BE7C-4D17-A551-206C7456A8A3";
shapes = (
{
closed = 1;
nodes = (
(215,0,l),
(215,723,l),
(65,697,l),
(65,0,l)
);
}
);
width = 279;
}
);
unicode = 108;
},
{
color = 3;
glyphname = lslash;
kernLeft = l;
kernRight = l;
layers = (
{
layerId = "3114FB65-9464-41A5-B67E-A8F9F43C0EF1";
metricLeft = "=+20po";
metricRight = "=+20";
shapes = (
{
closed = 1;
nodes = (
(240,386,l),
(240,415,l),
(38,296,l),
(37,266,l)
);
},
{
alignment = 1;
pos = (20,0);
ref = l;
}
);
width = 260;
},
{
layerId = "14EEE41F-D714-4243-A717-73445EE7DABA";
metricLeft = "=+20po";
metricRight = "=+20";
shapes = (
{
closed = 1;
nodes = (
(267,381,l),
(267,451,l),
(34,310,l),
(33,240,l)
);
},
{
alignment = 1;
pos = (20,0);
ref = l;
}
);
width = 287;
},
{
layerId = "090CB6A0-BE7C-4D17-A551-206C7456A8A3";
metricLeft = "=+20po";
metricRight = "=+20";
shapes = (
{
closed = 1;
nodes = (
(306,368,l),
(306,481,l),
(19,324,l),
(19,211,l)
);
},
{
alignment = 1;
pos = (20,0);
ref = l;
}
);
width = 326;
}
);
metricLeft = "=+20";
metricRight = "=+20";
unicode = 322;
},
{
color = 3;
glyphname = m;
kernLeft = n;
kernRight = n;
layers = (
{
anchors = (
{
name = bottom;
pos = (403,0);
},
{
name = top;
pos = (403,410);
}
);
layerId = "3114FB65-9464-41A5-B67E-A8F9F43C0EF1";
shapes = (
{
closed = 1;
nodes = (
(718,0,l),
(718,255,ls),
(718,355,o),
(670,414,o),
(588,414,cs),
(513,414,o),
(432,370,o),
(399,287,c),
(412,270,l),
(445,346,o),
(512,386,o),
(575,386,cs),
(646,386,o),
(683,335,o),
(683,248,cs),
(683,0,l)
);
},
{
closed = 1;
nodes = (
(422,0,l),
(422,255,ls),
(422,355,o),
(372,414,o),
(290,414,cs),
(223,414,o),
(135,377,o),
(100,284,c),
(115,270,l),
(150,353,o),
(222,386,o),
(278,386,cs),
(348,386,o),
(387,335,o),
(387,248,cs),
(387,0,l)
);
},
{
closed = 1;
nodes = (
(123,0,l),
(123,306,l),
(118,412,l),
(88,407,l),
(88,0,l)
);
}
);
width = 805;
},
{
anchors = (
{
name = bottom;
pos = (395,0);
},
{
name = top;
pos = (395,417);
}
);
layerId = "14EEE41F-D714-4243-A717-73445EE7DABA";
shapes = (
{
closed = 1;
nodes = (
(717,0,l),
(717,268,ls),
(717,365,o),
(661,423,o),
(583,423,cs),
(509,423,o),
(435,381,o),
(388,294,c),
(417,271,l),
(446,330,o),
(500,358,o),
(544,358,cs),
(600,358,o),
(629,315,o),
(629,245,cs),
(629,0,l)
);
},
{
closed = 1;
nodes = (
(441,0,l),
(441,268,ls),
(441,365,o),
(383,423,o),
(305,423,cs),
(231,423,o),
(155,381,o),
(108,294,c),
(136,271,l),
(166,330,o),
(222,358,o),
(268,358,cs),
(322,358,o),
(353,315,o),
(353,245,cs),
(353,0,l)
);
},
{
closed = 1;
nodes = (
(160,0,l),
(160,332,l),
(144,425,l),
(72,409,l),
(72,0,l)
);
}
);
width = 789;
},
{
anchors = (
{
name = bottom;
pos = (405,0);
},
{
name = top;
pos = (405,425);
}
);
layerId = "090CB6A0-BE7C-4D17-A551-206C7456A8A3";
shapes = (
{
closed = 1;
nodes = (
(755,0,l),
(755,283,ls),
(755,375,o),
(693,433,o),
(612,433,cs),
(539,433,o),
(481,394,o),
(424,330,c),
(461,283,l),
(479,313,o),
(515,330,o),
(543,330,cs),
(582,330,o),
(601,298,o),
(601,250,cs),
(601,0,l)
);
},
{
closed = 1;
nodes = (
(484,0,l),
(484,283,ls),
(484,375,o),
(421,433,o),
(341,433,cs),
(267,433,o),
(207,394,o),
(150,330,c),
(186,283,l),
(205,313,o),
(242,330,o),
(272,330,cs),
(310,330,o),
(329,298,o),
(329,250,cs),
(329,0,l)
);
},
{
closed = 1;
nodes = (
(207,0,l),
(207,351,l),
(178,437,l),
(53,414,l),
(53,0,l)
);
}
);
width = 808;
}
);
metricLeft = n;
metricRight = n;
unicode = 109;
},
{
color = 3;
glyphname = n;
kernLeft = n;
kernRight = n;
layers = (
{
anchors = (
{
name = bottom;
pos = (265,0);
},
{
name = top;
pos = (265,406);
}
);
layerId = "3114FB65-9464-41A5-B67E-A8F9F43C0EF1";
shapes = (
{
closed = 1;
nodes = (
(439,0,l),
(439,255,ls),
(439,355,o),
(385,414,o),
(298,414,cs),
(230,414,o),
(138,378,o),
(100,284,c),
(115,270,l),
(152,353,o),
(227,386,o),
(287,386,cs),
(362,386,o),
(404,335,o),
(404,245,cs),
(404,0,l)
);
},
{
closed = 1;
nodes = (
(123,0,l),
(123,304,l),
(118,412,l),
(88,407,l),
(88,0,l)
);
}
);
width = 526;
},
{
anchors = (
{
name = bottom;
pos = (260,0);
},
{
name = top;
pos = (260,415);
}
);
layerId = "14EEE41F-D714-4243-A717-73445EE7DABA";
shapes = (
{
closed = 1;
nodes = (
(460,0,l),
(460,268,ls),
(460,365,o),
(398,423,o),
(313,423,cs),
(237,423,o),
(157,382,o),
(108,294,c),
(136,271,l),
(168,330,o),
(226,358,o),
(277,358,cs),
(338,358,o),
(373,313,o),
(373,237,cs),
(373,0,l)
);
},
{
closed = 1;
nodes = (
(160,0,l),
(160,331,l),
(144,425,l),
(72,409,l),
(72,0,l)
);
}
);
width = 532;
},
{
anchors = (
{
name = bottom;
pos = (268,0);
},
{
name = top;
pos = (267,425);
}
);
layerId = "090CB6A0-BE7C-4D17-A551-206C7456A8A3";
shapes = (
{
closed = 1;
nodes = (
(496,0,l),
(496,283,ls),
(496,375,o),
(431,433,o),
(346,433,cs),
(270,433,o),
(208,394,o),
(150,330,c),
(188,283,l),
(207,313,o),
(245,330,o),
(277,330,cs),
(320,330,o),
(342,296,o),
(342,244,cs),
(342,0,l)
);
},
{
closed = 1;
nodes = (
(207,0,l),
(207,351,l),
(178,437,l),
(53,414,l),
(53,0,l)
);
}
);
width = 549;
}
);
unicode = 110;
},
{
color = 3;
glyphname = eng;
kernLeft = n;
kernRight = n;
layers = (
{
anchors = (
{
name = bottom;
pos = (279,-11);
},
{
name = top;
pos = (278,410);
}
);
layerId = "3114FB65-9464-41A5-B67E-A8F9F43C0EF1";
shapes = (
{
closed = 1;
nodes = (
(399,-260,o),
(439,-174,o),
(439,-19,cs),
(439,255,ls),
(439,355,o),
(385,414,o),
(298,414,cs),
(230,414,o),
(138,378,o),
(100,284,c),
(115,270,l),
(152,353,o),
(227,386,o),
(287,386,cs),
(362,386,o),
(404,335,o),
(404,245,cs),
(404,-19,ls),
(404,-161,o),
(372,-242,o),
(303,-272,c),
(312,-292,l)
);
},
{
closed = 1;
nodes = (
(123,0,l),
(123,304,l),
(118,412,l),
(88,407,l),
(88,0,l)
);
}
);
width = 526;
},
{
anchors = (
{
name = bottom;
pos = (284,-13);
},
{
name = top;
pos = (283,417);
}
);
layerId = "14EEE41F-D714-4243-A717-73445EE7DABA";
shapes = (
{
closed = 1;
nodes = (
(408,-257,o),
(460,-167,o),
(460,-6,cs),
(460,268,ls),
(460,365,o),
(398,423,o),
(313,423,cs),
(237,423,o),
(157,382,o),
(108,294,c),
(136,271,l),
(168,330,o),
(226,358,o),
(277,358,cs),
(338,358,o),
(373,313,o),
(373,237,cs),
(373,-6,ls),
(373,-139,o),
(341,-215,o),
(275,-248,c),
(295,-290,l)
);
},
{
closed = 1;
nodes = (
(160,0,l),
(160,331,l),
(144,425,l),
(72,409,l),
(72,0,l)
);
}
);
width = 532;
},
{
anchors = (
{
name = bottom;
pos = (284,-5);
},
{
name = top;
pos = (283,425);
}
);
layerId = "090CB6A0-BE7C-4D17-A551-206C7456A8A3";
shapes = (
{
closed = 1;
nodes = (
(429,-255,o),
(496,-159,o),
(496,10,cs),
(496,283,ls),
(496,375,o),
(431,433,o),
(346,433,cs),
(270,433,o),
(208,394,o),
(150,330,c),
(186,283,l),
(207,313,o),
(245,330,o),
(277,330,cs),
(320,330,o),
(342,296,o),
(342,244,cs),
(342,10,ls),
(342,-111,o),
(312,-180,o),
(249,-219,c),
(284,-289,l)
);
},
{
closed = 1;
nodes = (
(207,0,l),
(207,351,l),
(178,437,l),
(53,414,l),
(53,0,l)
);
}
);
width = 549;
}
);
metricLeft = n;
unicode = 331;
},
{
color = 3;
glyphname = o;
kernLeft = o;
kernRight = o;
layers = (
{
anchors = (
{
name = bottom;
pos = (255,0);
},
{
name = center;
pos = (255,203);
},
{
name = ogonek;
pos = (283,0);
},
{
name = top;
pos = (258,409);
},
{
name = topright;
pos = (374,364);
}
);
layerId = "3114FB65-9464-41A5-B67E-A8F9F43C0EF1";
shapes = (
{
closed = 1;
nodes = (
(373,-5,o),
(463,85,o),
(463,209,cs),
(463,328,o),
(377,415,o),
(261,415,cs),
(137,415,o),
(46,325,o),
(46,201,cs),
(46,82,o),
(132,-5,o),
(250,-5,cs)
);
},
{
closed = 1;
nodes = (
(156,21,o),
(83,96,o),
(83,205,cs),
(83,310,o),
(154,389,o),
(257,389,cs),
(355,389,o),
(427,314,o),
(427,206,cs),
(427,102,o),
(357,21,o),
(253,21,cs)
);
}
);
width = 509;
},
{
anchors = (
{
name = bottom;
pos = (263,0);
},
{
name = center;
pos = (263,203);
},
{
name = ogonek;
pos = (302,0);
},
{
name = top;
pos = (270,417);
},
{
name = topright;
pos = (392,343);
}
);
layerId = "14EEE41F-D714-4243-A717-73445EE7DABA";
shapes = (
{
closed = 1;
nodes = (
(389,-10,o),
(486,84,o),
(486,216,cs),
(486,338,o),
(395,427,o),
(271,427,cs),
(138,427,o),
(39,333,o),
(39,202,cs),
(39,79,o),
(130,-10,o),
(255,-10,cs)
);
},
{
closed = 1;
nodes = (
(193,51,o),
(133,112,o),
(133,213,cs),
(133,297,o),
(178,366,o),
(259,366,cs),
(334,366,o),
(392,306,o),
(392,206,cs),
(392,124,o),
(349,51,o),
(267,51,cs)
);
}
);
width = 525;
},
{
anchors = (
{
name = bottom;
pos = (272,0);
},
{
name = center;
pos = (273,203);
},
{
name = ogonek;
pos = (327,1);
},
{
name = top;
pos = (284,425);
},
{
name = topright;
pos = (389,319);
}
);
layerId = "090CB6A0-BE7C-4D17-A551-206C7456A8A3";
shapes = (
{
closed = 1;
nodes = (
(409,-15,o),
(516,86,o),
(516,222,cs),
(516,349,o),
(419,440,o),
(285,440,cs),
(139,440,o),
(31,342,o),
(31,204,cs),
(31,77,o),
(127,-15,o),
(263,-15,cs)
);
},
{
closed = 1;
nodes = (
(229,85,o),
(194,125,o),
(194,216,cs),
(194,292,o),
(216,339,o),
(270,339,cs),
(322,339,o),
(355,299,o),
(355,209,cs),
(355,134,o),
(335,85,o),
(280,85,cs)
);
}
);
width = 546;
}
);
unicode = 111;
},
{
color = 3;
glyphname = oslash;
kernLeft = o;
kernRight = o;
layers = (
{
anchors = (
{
name = bottom;
pos = (255,0);
},
{
name = center;
pos = (255,203);
},
{
name = ogonek;
pos = (283,0);
},
{
name = top;
pos = (257,409);
},
{
name = topright;
pos = (374,364);
}
);
layerId = "3114FB65-9464-41A5-B67E-A8F9F43C0EF1";
shapes = (
{
closed = 1;
nodes = (
(373,-5,o),
(463,85,o),
(463,209,cs),
(463,328,o),
(377,415,o),
(261,415,cs),
(137,415,o),
(46,325,o),
(46,201,cs),
(46,82,o),
(132,-5,o),
(250,-5,cs)
);
},
{
closed = 1;
nodes = (
(154,20,o),
(80,96,o),
(80,205,cs),
(80,310,o),
(152,389,o),
(257,389,cs),
(356,389,o),
(429,314,o),
(429,206,cs),
(429,102,o),
(358,20,o),
(253,20,cs)
);
},
{
closed = 1;
nodes = (
(467,419,l),
(446,437,l),
(45,-13,l),
(65,-30,l)
);
}
);
width = 509;
},
{
anchors = (
{
name = bottom;
pos = (263,0);
},
{
name = center;
pos = (263,203);
},
{
name = ogonek;
pos = (302,0);
},
{
name = top;
pos = (267,417);
},
{
name = topright;
pos = (392,343);
}
);
layerId = "14EEE41F-D714-4243-A717-73445EE7DABA";
shapes = (
{
closed = 1;
nodes = (
(389,-10,o),
(486,85,o),
(486,216,cs),
(486,338,o),
(395,427,o),
(271,427,cs),
(138,427,o),
(39,333,o),
(39,202,cs),
(39,80,o),
(130,-10,o),
(255,-10,cs)
);
},
{
closed = 1;
nodes = (
(189,50,o),
(126,112,o),
(126,213,cs),
(126,297,o),
(173,367,o),
(259,367,cs),
(338,367,o),
(400,306,o),
(400,206,cs),
(400,124,o),
(354,50,o),
(267,50,cs)
);
},
{
closed = 1;
nodes = (
(494,416,l),
(445,457,l),
(35,-3,l),
(83,-44,l)
);
}
);
width = 525;
},
{
anchors = (
{
name = bottom;
pos = (274,0);
},
{
name = center;
pos = (275,203);
},
{
name = ogonek;
pos = (329,1);
},
{
name = top;
pos = (284,425);
},
{
name = topright;
pos = (391,319);
}
);
layerId = "090CB6A0-BE7C-4D17-A551-206C7456A8A3";
shapes = (
{
closed = 1;
nodes = (
(412,-15,o),
(520,87,o),
(520,222,cs),
(520,349,o),
(422,440,o),
(287,440,cs),
(140,440,o),
(31,341,o),
(31,204,cs),
(31,77,o),
(128,-15,o),
(265,-15,cs)
);
},
{
closed = 1;
nodes = (
(225,78,o),
(173,131,o),
(173,220,cs),
(173,286,o),
(203,345,o),
(270,345,cs),
(331,345,o),
(381,295,o),
(381,209,cs),
(381,143,o),
(352,78,o),
(285,78,cs)
);
},
{
closed = 1;
nodes = (
(524,417,l),
(454,476,l),
(31,3,l),
(100,-56,l)
);
}
);
width = 550;
}
);
unicode = 248;
},
{
color = 3;
glyphname = oe;
kernLeft = o;
kernRight = c;
layers = (
{
anchors = (
{
name = bottom;
pos = (396,0);
},
{
name = top;
pos = (396,409);
}
);
layerId = "3114FB65-9464-41A5-B67E-A8F9F43C0EF1";
shapes = (
{
closed = 1;
nodes = (
(348,-5,o),
(424,81,o),
(424,199,cs),
(424,324,o),
(354,415,o),
(244,415,cs),
(133,415,o),
(46,326,o),
(46,201,cs),
(46,82,o),
(127,-5,o),
(237,-5,cs)
);
},
{
closed = 1;
nodes = (
(151,21,o),
(82,96,o),
(82,204,cs),
(82,310,o),
(150,388,o),
(241,388,cs),
(333,388,o),
(395,310,o),
(395,197,cs),
(395,98,o),
(333,21,o),
(241,21,cs)
);
},
{
closed = 1;
nodes = (
(634,-5,o),
(683,12,o),
(731,57,c),
(717,77,l),
(676,39,o),
(632,22,o),
(586,22,cs),
(491,22,o),
(427,93,o),
(427,199,cs),
(427,315,o),
(497,389,o),
(594,389,cs),
(662,389,o),
(699,353,o),
(699,280,cs),
(699,260,l),
(728,260,l),
(730,267,o),
(730,274,o),
(730,281,cs),
(730,362,o),
(687,415,o),
(597,415,cs),
(482,415,o),
(397,327,o),
(397,197,cs),
(397,74,o),
(472,-5,o),
(582,-5,cs)
);
},
{
closed = 1;
nodes = (
(722,260,l),
(722,284,l),
(424,284,l),
(419,260,l)
);
}
);
width = 781;
},
{
anchors = (
{
name = bottom;
pos = (390,0);
},
{
name = top;
pos = (390,417);
}
);
layerId = "14EEE41F-D714-4243-A717-73445EE7DABA";
shapes = (
{
closed = 1;
nodes = (
(358,-10,o),
(429,82,o),
(429,205,cs),
(429,332,o),
(367,427,o),
(249,427,cs),
(130,427,o),
(39,336,o),
(39,204,cs),
(39,77,o),
(124,-10,o),
(240,-10,cs)
);
},
{
closed = 1;
nodes = (
(186,53,o),
(130,112,o),
(130,212,cs),
(130,298,o),
(172,364,o),
(242,364,cs),
(312,364,o),
(361,301,o),
(361,200,cs),
(361,123,o),
(326,53,o),
(253,53,cs)
);
},
{
closed = 1;
nodes = (
(607,-10,o),
(665,6,o),
(718,58,c),
(688,104,l),
(650,72,o),
(608,56,o),
(567,56,cs),
(488,56,o),
(439,117,o),
(439,207,cs),
(439,308,o),
(489,366,o),
(560,366,cs),
(617,366,o),
(643,328,o),
(643,264,cs),
(643,221,l),
(715,221,l),
(718,236,o),
(718,250,o),
(718,266,cs),
(718,364,o),
(667,427,o),
(570,427,cs),
(454,427,o),
(368,335,o),
(368,200,cs),
(368,70,o),
(443,-10,o),
(556,-10,cs)
);
},
{
closed = 1;
nodes = (
(704,221,l),
(704,274,l),
(409,274,l),
(398,221,l)
);
}
);
width = 761;
},
{
anchors = (
{
name = bottom;
pos = (396,0);
},
{
name = top;
pos = (396,425);
}
);
layerId = "090CB6A0-BE7C-4D17-A551-206C7456A8A3";
shapes = (
{
closed = 1;
nodes = (
(376,-15,o),
(457,84,o),
(457,216,cs),
(457,345,o),
(386,440,o),
(262,440,cs),
(130,440,o),
(31,343,o),
(31,205,cs),
(31,74,o),
(122,-15,o),
(250,-15,cs)
);
},
{
closed = 1;
nodes = (
(225,87,o),
(191,125,o),
(191,216,cs),
(191,294,o),
(212,337,o),
(260,337,cs),
(309,337,o),
(337,296,o),
(337,206,cs),
(337,134,o),
(322,87,o),
(271,87,cs)
);
},
{
closed = 1;
nodes = (
(603,-14,o),
(680,1,o),
(741,60,c),
(698,131,l),
(663,108,o),
(623,94,o),
(585,94,cs),
(510,94,o),
(473,140,o),
(473,221,cs),
(473,301,o),
(504,349,o),
(556,349,cs),
(598,349,o),
(617,315,o),
(617,258,cs),
(617,196,l),
(737,196,l),
(741,222,o),
(741,244,o),
(741,270,cs),
(741,373,o),
(676,440,o),
(568,440,cs),
(433,440,o),
(350,341,o),
(350,199,cs),
(350,63,o),
(429,-14,o),
(550,-14,cs)
);
},
{
closed = 1;
nodes = (
(729,196,l),
(729,273,l),
(418,273,l),
(401,196,l)
);
}
);
width = 775;
}
);
metricLeft = o;
metricRight = e;
unicode = 339;
},
{
color = 3;
glyphname = p;
kernLeft = n;
kernRight = o;
layers = (
{
anchors = (
{
name = bottom;
pos = (261,0);
},
{
name = top;
pos = (261,410);
}
);
layerId = "3114FB65-9464-41A5-B67E-A8F9F43C0EF1";
shapes = (
{
closed = 1;
nodes = (
(386,-4,o),
(476,87,o),
(476,213,cs),
(476,328,o),
(401,413,o),
(286,413,cs),
(209,413,o),
(146,376,o),
(102,301,c),
(119,287,l),
(161,359,o),
(220,386,o),
(280,386,cs),
(376,386,o),
(439,310,o),
(439,209,cs),
(439,99,o),
(365,22,o),
(263,22,cs),
(199,22,o),
(149,51,o),
(117,107,c),
(106,88,l),
(138,26,o),
(197,-4,o),
(266,-4,cs)
);
},
{
closed = 1;
nodes = (
(122,-285,l),
(122,315,l),
(117,412,l),
(88,407,l),
(88,-289,l)
);
}
);
width = 522;
},
{
anchors = (
{
name = bottom;
pos = (265,0);
},
{
name = top;
pos = (265,417);
}
);
layerId = "14EEE41F-D714-4243-A717-73445EE7DABA";
shapes = (
{
closed = 1;
nodes = (
(397,-6,o),
(492,90,o),
(492,220,cs),
(492,337,o),
(417,423,o),
(300,423,cs),
(221,423,o),
(163,384,o),
(118,303,c),
(150,281,l),
(185,340,o),
(234,361,o),
(278,361,cs),
(353,361,o),
(398,294,o),
(398,210,cs),
(398,116,o),
(345,55,o),
(264,55,cs),
(216,55,o),
(174,77,o),
(149,122,c),
(127,91,l),
(152,29,o),
(206,-6,o),
(277,-6,cs)
);
},
{
closed = 1;
nodes = (
(159,-274,l),
(159,335,l),
(143,425,l),
(72,409,l),
(72,-289,l)
);
}
);
width = 531;
},
{
anchors = (
{
name = bottom;
pos = (271,0);
},
{
name = top;
pos = (276,425);
}
);
layerId = "090CB6A0-BE7C-4D17-A551-206C7456A8A3";
shapes = (
{
closed = 1;
nodes = (
(417,-9,o),
(521,94,o),
(521,232,cs),
(521,348,o),
(448,436,o),
(329,436,cs),
(251,436,o),
(197,397,o),
(147,314,c),
(191,275,l),
(216,315,o),
(249,330,o),
(280,330,cs),
(333,330,o),
(360,282,o),
(360,212,cs),
(360,134,o),
(328,89,o),
(271,89,cs),
(241,89,o),
(212,102,o),
(194,131,c),
(162,70,l),
(185,22,o),
(230,-9,o),
(294,-9,cs)
);
},
{
closed = 1;
nodes = (
(206,-263,l),
(206,351,l),
(177,437,l),
(54,414,l),
(54,-289,l)
);
}
);
width = 551;
}
);
metricRight = o;
unicode = 112;
},
{
color = 3;
glyphname = thorn;
kernLeft = l;
kernRight = o;
layers = (
{
anchors = (
{
name = bottom;
pos = (262,0);
},
{
name = top;
pos = (262,410);
}
);
layerId = "3114FB65-9464-41A5-B67E-A8F9F43C0EF1";
shapes = (
{
closed = 1;
nodes = (
(387,-4,o),
(477,87,o),
(477,213,cs),
(477,328,o),
(401,413,o),
(287,413,cs),
(209,413,o),
(147,376,o),
(102,301,c),
(120,288,l),
(161,360,o),
(221,387,o),
(280,387,cs),
(377,387,o),
(440,311,o),
(440,210,cs),
(440,100,o),
(366,23,o),
(263,23,cs),
(200,23,o),
(149,52,o),
(118,109,c),
(106,88,l),
(139,26,o),
(198,-4,o),
(266,-4,cs)
);
},
{
closed = 1;
nodes = (
(122,-284,l),
(122,713,l),
(88,709,l),
(88,-289,l)
);
}
);
width = 523;
},
{
anchors = (
{
name = bottom;
pos = (266,0);
},
{
name = top;
pos = (266,417);
}
);
layerId = "14EEE41F-D714-4243-A717-73445EE7DABA";
shapes = (
{
closed = 1;
nodes = (
(398,-6,o),
(493,90,o),
(493,220,cs),
(493,337,o),
(418,423,o),
(301,423,cs),
(222,423,o),
(164,384,o),
(119,303,c),
(151,283,l),
(186,342,o),
(235,363,o),
(279,363,cs),
(354,363,o),
(399,296,o),
(399,212,cs),
(399,118,o),
(346,57,o),
(265,57,cs),
(217,57,o),
(175,79,o),
(150,124,c),
(128,91,l),
(153,29,o),
(207,-6,o),
(278,-6,cs)
);
},
{
closed = 1;
nodes = (
(159,-274,l),
(159,718,l),
(73,703,l),
(73,-289,l)
);
}
);
width = 532;
},
{
anchors = (
{
name = bottom;
pos = (305,0);
},
{
name = top;
pos = (305,425);
}
);
layerId = "090CB6A0-BE7C-4D17-A551-206C7456A8A3";
shapes = (
{
closed = 1;
nodes = (
(418,-9,o),
(521,94,o),
(521,232,cs),
(521,348,o),
(448,436,o),
(329,436,cs),
(252,436,o),
(197,397,o),
(147,314,c),
(187,281,l),
(215,318,o),
(249,332,o),
(280,332,cs),
(333,332,o),
(361,285,o),
(361,214,cs),
(361,136,o),
(329,91,o),
(272,91,cs),
(242,91,o),
(213,104,o),
(195,133,c),
(162,70,l),
(185,22,o),
(231,-9,o),
(295,-9,cs)
);
},
{
closed = 1;
nodes = (
(206,-263,l),
(207,723,l),
(55,698,l),
(55,-289,l)
);
}
);
width = 551;
}
);
metricRight = "=p";
unicode = 254;
},
{
color = 3;
glyphname = q;
kernLeft = o;
kernRight = q;
layers = (
{
anchors = (
{
name = bottom;
pos = (259,0);
},
{
name = top;
pos = (259,410);
}
);
layerId = "3114FB65-9464-41A5-B67E-A8F9F43C0EF1";
shapes = (
{
closed = 1;
nodes = (
(128,414,o),
(45,318,o),
(45,196,cs),
(45,78,o),
(123,-4,o),
(231,-4,cs),
(307,-4,o),
(372,38,o),
(417,110,c),
(402,129,l),
(362,59,o),
(301,23,o),
(238,23,cs),
(147,23,o),
(82,96,o),
(82,201,cs),
(82,309,o),
(151,387,o),
(266,387,cs),
(310,387,o),
(366,381,o),
(394,366,c),
(429,385,l),
(397,404,o),
(332,414,o),
(271,414,cs)
);
},
{
closed = 1;
nodes = (
(394,366,l),
(394,-289,l),
(429,-285,l),
(429,385,l)
);
}
);
width = 517;
},
{
anchors = (
{
name = bottom;
pos = (268,0);
},
{
name = top;
pos = (268,417);
}
);
layerId = "14EEE41F-D714-4243-A717-73445EE7DABA";
shapes = (
{
closed = 1;
nodes = (
(116,423,o),
(38,314,o),
(38,196,cs),
(38,68,o),
(130,-6,o),
(229,-6,cs),
(313,-6,o),
(378,48,o),
(422,116,c),
(394,142,l),
(362,90,o),
(314,59,o),
(261,59,cs),
(188,59,o),
(132,116,o),
(132,214,cs),
(132,301,o),
(172,365,o),
(265,365,cs),
(300,365,o),
(347,357,o),
(370,342,c),
(457,393,l),
(428,412,o),
(352,423,o),
(281,423,cs)
);
},
{
closed = 1;
nodes = (
(370,342,l),
(370,-289,l),
(457,-274,l),
(457,393,l)
);
}
);
width = 529;
},
{
anchors = (
{
name = bottom;
pos = (284,0);
},
{
name = top;
pos = (289,425);
}
);
layerId = "090CB6A0-BE7C-4D17-A551-206C7456A8A3";
shapes = (
{
closed = 1;
nodes = (
(108,435,o),
(31,321,o),
(31,191,cs),
(31,53,o),
(135,-9,o),
(220,-9,cs),
(314,-9,o),
(382,53,o),
(423,107,c),
(375,152,l),
(347,115,o),
(313,94,o),
(277,94,cs),
(230,94,o),
(191,128,o),
(191,217,cs),
(191,295,o),
(211,340,o),
(274,340,cs),
(299,340,o),
(330,332,o),
(345,320,c),
(496,398,l),
(464,420,o),
(390,435,o),
(308,435,cs)
);
},
{
closed = 1;
nodes = (
(345,320,l),
(345,-289,l),
(496,-263,l),
(496,398,l)
);
}
);
width = 549;
}
);
metricRight = u;
unicode = 113;
},
{
color = 3;
glyphname = r;
kernLeft = n;
kernRight = r;
layers = (
{
anchors = (
{
name = bottom;
pos = (194,0);
},
{
name = top;
pos = (218,410);
}
);
layerId = "3114FB65-9464-41A5-B67E-A8F9F43C0EF1";
shapes = (
{
closed = 1;
nodes = (
(122,0,l),
(122,293,l),
(118,412,l),
(88,407,l),
(88,0,l)
);
},
{
closed = 1;
nodes = (
(160,337,o),
(205,383,o),
(265,383,cs),
(290,383,o),
(312,374,o),
(327,357,c),
(344,385,l),
(326,404,o),
(302,413,o),
(274,413,cs),
(203,413,o),
(150,363,o),
(106,278,c),
(116,261,l)
);
}
);
width = 365;
},
{
anchors = (
{
name = bottom;
pos = (173,0);
},
{
name = top;
pos = (215,417);
}
);
layerId = "14EEE41F-D714-4243-A717-73445EE7DABA";
shapes = (
{
closed = 1;
nodes = (
(159,0,l),
(159,328,l),
(144,425,l),
(72,410,l),
(72,0,l)
);
},
{
closed = 1;
nodes = (
(178,317,o),
(221,346,o),
(268,346,cs),
(293,346,o),
(317,338,o),
(334,325,c),
(369,400,l),
(350,415,o),
(323,423,o),
(294,423,cs),
(224,423,o),
(167,370,o),
(124,287,c),
(144,262,l)
);
}
);
width = 377;
},
{
anchors = (
{
name = bottom;
pos = (156,0);
},
{
name = top;
pos = (222,425);
}
);
layerId = "090CB6A0-BE7C-4D17-A551-206C7456A8A3";
shapes = (
{
closed = 1;
nodes = (
(207,0,l),
(207,351,l),
(178,437,l),
(53,414,l),
(53,0,l)
);
},
{
closed = 1;
nodes = (
(201,286,o),
(240,304,o),
(284,304,cs),
(309,304,o),
(332,296,o),
(349,284,c),
(399,414,l),
(379,427,o),
(353,434,o),
(325,434,cs),
(250,434,o),
(196,377,o),
(151,285,c),
(175,252,l)
);
}
);
width = 400;
}
);
metricLeft = n;
unicode = 114;
},
{
color = 3;
glyphname = s;
kernLeft = o;
kernRight = o;
layers = (
{
anchors = (
{
name = bottom;
pos = (191,0);
},
{
name = top;
pos = (193,410);
}
);
layerId = "3114FB65-9464-41A5-B67E-A8F9F43C0EF1";
shapes = (
{
closed = 1;
nodes = (
(264,-5,o),
(322,45,o),
(322,111,cs),
(322,245,o),
(99,210,o),
(99,316,cs),
(99,360,o),
(138,390,o),
(194,390,cs),
(228,390,o),
(268,378,o),
(292,355,c),
(303,384,l),
(275,404,o),
(234,415,o),
(195,415,cs),
(125,415,o),
(67,378,o),
(67,311,cs),
(67,181,o),
(289,218,o),
(289,106,cs),
(289,57,o),
(244,20,o),
(181,20,cs),
(134,20,o),
(83,39,o),
(55,68,c),
(43,39,l),
(72,14,o),
(122,-5,o),
(179,-5,cs)
);
}
);
width = 368;
},
{
anchors = (
{
name = bottom;
pos = (200,0);
},
{
name = top;
pos = (196,417);
}
);
layerId = "14EEE41F-D714-4243-A717-73445EE7DABA";
shapes = (
{
closed = 1;
nodes = (
(288,-11,o),
(345,53,o),
(345,126,cs),
(345,269,o),
(132,234,o),
(132,321,cs),
(132,348,o),
(155,371,o),
(201,371,cs),
(229,371,o),
(276,358,o),
(302,331,c),
(326,398,l),
(295,418,o),
(248,428,o),
(205,428,cs),
(122,428,o),
(53,385,o),
(53,303,cs),
(53,161,o),
(263,201,o),
(263,108,cs),
(263,77,o),
(237,49,o),
(188,49,cs),
(145,49,o),
(92,68,o),
(58,98,c),
(34,28,l),
(67,6,o),
(123,-11,o),
(183,-11,cs)
);
}
);
width = 383;
},
{
anchors = (
{
name = bottom;
pos = (211,0);
},
{
name = top;
pos = (209,425);
}
);
layerId = "090CB6A0-BE7C-4D17-A551-206C7456A8A3";
shapes = (
{
closed = 1;
nodes = (
(326,-15,o),
(375,62,o),
(375,138,cs),
(375,290,o),
(175,252,o),
(175,316,cs),
(175,333,o),
(190,348,o),
(230,348,cs),
(255,348,o),
(302,336,o),
(327,314,c),
(362,415,l),
(325,431,o),
(270,440,o),
(225,440,cs),
(117,440,o),
(40,391,o),
(40,296,cs),
(40,147,o),
(235,186,o),
(235,119,cs),
(235,101,o),
(216,84,o),
(175,84,cs),
(139,84,o),
(91,100,o),
(60,124,c),
(26,18,l),
(62,-2,o),
(128,-15,o),
(186,-15,cs)
);
}
);
width = 405;
}
);
unicode = 115;
},
{
color = 3;
glyphname = germandbls;
kernRight = a;
layers = (
{
anchors = (
{
name = bottom;
pos = (283,0);
},
{
name = top;
pos = (295,711);
}
);
layerId = "3114FB65-9464-41A5-B67E-A8F9F43C0EF1";
shapes = (
{
closed = 1;
nodes = (
(437,-7,o),
(486,53,o),
(486,130,cs),
(486,259,o),
(337,285,o),
(337,366,cs),
(337,432,o),
(433,476,o),
(433,573,cs),
(433,655,o),
(375,711,o),
(289,711,cs),
(165,711,o),
(88,617,o),
(88,472,cs),
(88,0,l),
(124,0,l),
(124,471,ls),
(124,608,o),
(181,684,o),
(283,684,cs),
(351,684,o),
(398,637,o),
(398,567,cs),
(398,474,o),
(303,431,o),
(303,358,cs),
(303,268,o),
(452,243,o),
(452,126,cs),
(452,65,o),
(416,20,o),
(351,20,cs),
(307,20,o),
(272,37,o),
(248,60,c),
(232,33,l),
(273,-3,o),
(321,-7,o),
(350,-7,cs)
);
}
);
width = 532;
},
{
anchors = (
{
name = bottom;
pos = (295,0);
},
{
name = top;
pos = (309,711);
}
);
layerId = "14EEE41F-D714-4243-A717-73445EE7DABA";
shapes = (
{
closed = 1;
nodes = (
(464,-8,o),
(508,73,o),
(508,146,cs),
(508,271,o),
(372,300,o),
(372,370,cs),
(372,429,o),
(462,465,o),
(462,565,cs),
(462,648,o),
(402,711,o),
(300,711,cs),
(160,711,o),
(74,603,o),
(74,451,cs),
(74,0,l),
(163,0,l),
(163,449,ls),
(163,580,o),
(200,645,o),
(280,645,cs),
(339,645,o),
(374,604,o),
(374,545,cs),
(374,455,o),
(284,420,o),
(284,350,cs),
(284,263,o),
(423,230,o),
(423,133,cs),
(423,94,o),
(404,57,o),
(356,57,cs),
(323,57,o),
(294,74,o),
(273,91,c),
(240,21,l),
(282,-4,o),
(326,-8,o),
(355,-8,cs)
);
}
);
width = 546;
},
{
anchors = (
{
name = bottom;
pos = (315,0);
},
{
name = top;
pos = (332,711);
}
);
layerId = "090CB6A0-BE7C-4D17-A551-206C7456A8A3";
shapes = (
{
closed = 1;
nodes = (
(517,-11,o),
(550,90,o),
(550,155,cs),
(550,277,o),
(432,308,o),
(432,380,cs),
(432,439,o),
(507,471,o),
(507,561,cs),
(507,642,o),
(445,711,o),
(325,711,cs),
(160,711,o),
(56,592,o),
(56,420,cs),
(57,0,l),
(211,0,l),
(211,441,ls),
(211,553,o),
(234,610,o),
(292,610,cs),
(340,610,o),
(362,572,o),
(362,528,cs),
(362,451,o),
(286,417,o),
(286,348,cs),
(286,263,o),
(404,227,o),
(404,148,cs),
(404,121,o),
(393,98,o),
(363,98,cs),
(342,98,o),
(321,110,o),
(303,123,c),
(260,24,l),
(297,1,o),
(338,-11,o),
(382,-11,cs)
);
}
);
width = 580;
}
);
metricRight = s;
unicode = 223;
},
{
color = 3;
glyphname = t;
kernLeft = n;
kernRight = t;
layers = (
{
anchors = (
{
name = bottom;
pos = (230,0);
},
{
name = center;
pos = (176,234);
},
{
name = top;
pos = (182,464);
},
{
name = topright;
pos = (281,763);
}
);
layerId = "3114FB65-9464-41A5-B67E-A8F9F43C0EF1";
shapes = (
{
closed = 1;
nodes = (
(274,-7,o),
(315,7,o),
(354,43,c),
(341,62,l),
(309,33,o),
(276,20,o),
(242,20,cs),
(187,20,o),
(157,55,o),
(157,118,cs),
(157,500,l),
(131,497,l),
(121,389,l),
(121,113,ls),
(121,38,o),
(165,-7,o),
(235,-7,cs)
);
},
{
closed = 1;
nodes = (
(335,398,l),
(33,396,l),
(31,369,l),
(333,369,l)
);
}
);
width = 377;
},
{
anchors = (
{
name = bottom;
pos = (232,0);
},
{
name = center;
pos = (170,234);
},
{
name = top;
pos = (185,475);
},
{
name = topright;
pos = (330,763);
}
);
layerId = "14EEE41F-D714-4243-A717-73445EE7DABA";
shapes = (
{
closed = 1;
nodes = (
(277,-7,o),
(325,10,o),
(364,48,c),
(339,87,l),
(311,67,o),
(283,58,o),
(257,58,cs),
(215,58,o),
(188,85,o),
(188,139,cs),
(188,517,l),
(131,505,l),
(100,397,l),
(100,123,ls),
(100,39,o),
(159,-7,o),
(233,-7,cs)
);
},
{
closed = 1;
nodes = (
(343,413,l),
(26,407,l),
(21,353,l),
(338,352,l)
);
}
);
width = 381;
},
{
anchors = (
{
name = bottom;
pos = (234,0);
},
{
name = center;
pos = (167,234);
},
{
name = top;
pos = (194,490);
},
{
name = topright;
pos = (388,763);
}
);
layerId = "090CB6A0-BE7C-4D17-A551-206C7456A8A3";
shapes = (
{
closed = 1;
nodes = (
(293,-9,o),
(348,13,o),
(389,57,c),
(354,121,l),
(333,108,o),
(307,102,o),
(288,102,cs),
(254,102,o),
(233,121,o),
(233,167,cs),
(233,536,l),
(134,518,l),
(82,404,l),
(82,136,ls),
(82,40,o),
(143,-9,o),
(236,-9,cs)
);
},
{
closed = 1;
nodes = (
(367,425,l),
(22,415,l),
(13,325,l),
(357,320,l)
);
}
);
width = 397;
}
);
unicode = 116;
},
{
color = 3;
glyphname = tcaron;
layers = (
{
layerId = "3114FB65-9464-41A5-B67E-A8F9F43C0EF1";
shapes = (
{
closed = 1;
nodes = (
(274,-7,o),
(317,9,o),
(356,48,c),
(343,65,l),
(311,34,o),
(275,20,o),
(240,20,cs),
(187,20,o),
(156,55,o),
(156,118,cs),
(156,382,l),
(156,389,l),
(156,501,l),
(131,497,l),
(121,389,l),
(121,113,ls),
(121,38,o),
(164,-7,o),
(233,-7,cs)
);
},
{
closed = 1;
nodes = (
(335,398,l),
(33,396,l),
(31,373,l),
(333,373,l)
);
},
{
closed = 1;
nodes = (
(278,710,l),
(247,710,l),
(247,464,l),
(272,464,l)
);
}
);
width = 377;
},
{
layerId = "14EEE41F-D714-4243-A717-73445EE7DABA";
shapes = (
{
closed = 1;
nodes = (
(277,-7,o),
(326,11,o),
(366,51,c),
(340,89,l),
(312,68,o),
(283,59,o),
(256,59,cs),
(215,59,o),
(188,84,o),
(188,140,cs),
(188,376,l),
(188,390,l),
(188,517,l),
(131,505,l),
(100,397,l),
(100,123,ls),
(100,39,o),
(158,-7,o),
(232,-7,cs)
);
},
{
closed = 1;
nodes = (
(343,413,l),
(26,407,l),
(21,356,l),
(338,355,l)
);
},
{
closed = 1;
nodes = (
(326,710,l),
(249,710,l),
(249,463,l),
(304,463,l)
);
}
);
width = 381;
},
{
layerId = "090CB6A0-BE7C-4D17-A551-206C7456A8A3";
shapes = (
{
closed = 1;
nodes = (
(293,-9,o),
(348,13,o),
(389,57,c),
(354,121,l),
(333,108,o),
(307,102,o),
(288,102,cs),
(254,102,o),
(233,121,o),
(233,167,cs),
(233,364,l),
(213,387,l),
(213,536,l),
(123,526,l),
(82,404,l),
(82,136,ls),
(82,40,o),
(143,-9,o),
(236,-9,cs)
);
},
{
closed = 1;
nodes = (
(367,425,l),
(22,415,l),
(13,325,l),
(357,320,l)
);
},
{
closed = 1;
nodes = (
(380,710,l),
(254,710,l),
(254,464,l),
(342,465,l)
);
}
);
width = 397;
}
);
unicode = 357;
},
{
color = 3;
glyphname = u;
kernLeft = u;
kernRight = u;
layers = (
{
anchors = (
{
name = bottom;
pos = (252,0);
},
{
name = ogonek;
pos = (426,2);
},
{
name = top;
pos = (261,410);
},
{
name = topright;
pos = (476,406);
}
);
layerId = "3114FB65-9464-41A5-B67E-A8F9F43C0EF1";
shapes = (
{
closed = 1;
nodes = (
(292,-4,o),
(378,35,o),
(414,129,c),
(399,145,l),
(365,58,o),
(293,23,o),
(235,23,cs),
(164,23,o),
(122,76,o),
(122,164,cs),
(122,412,l),
(87,407,l),
(87,155,ls),
(87,55,o),
(140,-4,o),
(223,-4,cs)
);
},
{
closed = 1;
nodes = (
(426,2,l),
(426,412,l),
(391,407,l),
(391,111,l),
(396,-2,l)
);
}
);
width = 514;
},
{
anchors = (
{
name = bottom;
pos = (253,0);
},
{
name = ogonek;
pos = (454,8);
},
{
name = top;
pos = (271,417);
},
{
name = topright;
pos = (485,406);
}
);
layerId = "14EEE41F-D714-4243-A717-73445EE7DABA";
shapes = (
{
closed = 1;
nodes = (
(292,-6,o),
(369,37,o),
(418,123,c),
(388,146,l),
(358,88,o),
(301,59,o),
(254,59,cs),
(193,59,o),
(160,105,o),
(160,179,cs),
(160,425,l),
(72,409,l),
(72,149,ls),
(72,52,o),
(132,-6,o),
(217,-6,cs)
);
},
{
closed = 1;
nodes = (
(454,8,l),
(454,425,l),
(366,409,l),
(366,87,l),
(381,-8,l)
);
}
);
width = 526;
},
{
anchors = (
{
name = bottom;
pos = (271,0);
},
{
name = ogonek;
pos = (494,11);
},
{
name = top;
pos = (282,425);
},
{
name = topright;
pos = (495,406);
}
);
layerId = "090CB6A0-BE7C-4D17-A551-206C7456A8A3";
shapes = (
{
closed = 1;
nodes = (
(278,-8,o),
(340,31,o),
(398,95,c),
(360,141,l),
(341,112,o),
(303,95,o),
(272,95,cs),
(229,95,o),
(208,129,o),
(208,180,cs),
(208,438,l),
(53,412,l),
(53,142,ls),
(53,50,o),
(117,-8,o),
(205,-8,cs)
);
},
{
closed = 1;
nodes = (
(494,11,l),
(494,438,l),
(340,412,l),
(340,74,l),
(369,-13,l)
);
}
);
width = 547;
}
);
metricLeft = "=|n";
metricRight = "=|n";
unicode = 117;
},
{
color = 3;
glyphname = v;
kernLeft = v;
kernRight = v;
layers = (
{
anchors = (
{
name = bottom;
pos = (224,0);
},
{
name = top;
pos = (224,410);
}
);
layerId = "3114FB65-9464-41A5-B67E-A8F9F43C0EF1";
shapes = (
{
closed = 1;
nodes = (
(241,0,l),
(416,410,l),
(380,410,l),
(220,12,l),
(242,13,l),
(74,410,l),
(36,410,l),
(211,0,l)
);
}
);
width = 452;
},
{
anchors = (
{
name = bottom;
pos = (225,0);
},
{
name = top;
pos = (225,417);
}
);
layerId = "14EEE41F-D714-4243-A717-73445EE7DABA";
shapes = (
{
closed = 1;
nodes = (
(265,0,l),
(433,417,l),
(344,417,l),
(213,25,l),
(253,25,l),
(117,417,l),
(20,417,l),
(186,0,l)
);
}
);
width = 451;
},
{
anchors = (
{
name = bottom;
pos = (238,0);
},
{
name = top;
pos = (243,425);
}
);
layerId = "090CB6A0-BE7C-4D17-A551-206C7456A8A3";
shapes = (
{
closed = 1;
nodes = (
(313,0,l),
(470,425,l),
(322,425,l),
(224,39,l),
(268,39,l),
(169,425,l),
(7,425,l),
(162,0,l)
);
}
);
width = 476;
}
);
unicode = 118;
},
{
color = 3;
glyphname = w;
kernLeft = v;
kernRight = v;
layers = (
{
anchors = (
{
name = bottom;
pos = (361,0);
},
{
name = top;
pos = (361,410);
}
);
layerId = "3114FB65-9464-41A5-B67E-A8F9F43C0EF1";
shapes = (
{
closed = 1;
nodes = (
(214,0,l),
(368,382,l),
(354,382,l),
(511,0,l),
(542,0,l),
(690,410,l),
(653,410,l),
(525,25,l),
(536,26,l),
(379,410,l),
(348,410,l),
(196,26,l),
(209,26,l),
(74,410,l),
(36,410,l),
(184,0,l)
);
}
);
width = 726;
},
{
anchors = (
{
name = bottom;
pos = (364,0);
},
{
name = top;
pos = (364,417);
}
);
layerId = "14EEE41F-D714-4243-A717-73445EE7DABA";
shapes = (
{
closed = 1;
nodes = (
(245,0,l),
(367,344,l),
(352,344,l),
(483,0,l),
(562,0,l),
(709,417,l),
(617,417,l),
(520,56,l),
(543,57,l),
(408,417,l),
(327,417,l),
(202,57,l),
(222,57,l),
(115,417,l),
(20,417,l),
(166,0,l)
);
}
);
width = 727;
},
{
anchors = (
{
name = bottom;
pos = (373,0);
},
{
name = top;
pos = (380,425);
}
);
layerId = "090CB6A0-BE7C-4D17-A551-206C7456A8A3";
shapes = (
{
closed = 1;
nodes = (
(286,0,l),
(378,292,l),
(358,292,l),
(462,0,l),
(596,0,l),
(743,425,l),
(590,425,l),
(524,80,l),
(554,81,l),
(444,425,l),
(319,425,l),
(222,82,l),
(250,82,l),
(165,425,l),
(7,425,l),
(152,0,l)
);
}
);
width = 749;
}
);
metricLeft = v;
metricRight = v;
unicode = 119;
},
{
color = 3;
glyphname = x;
kernLeft = n;
layers = (
{
anchors = (
{
name = bottom;
pos = (218,0);
},
{
name = top;
pos = (218,409);
}
);
layerId = "3114FB65-9464-41A5-B67E-A8F9F43C0EF1";
shapes = (
{
closed = 1;
nodes = (
(71,0,l),
(217,190,l),
(362,0,l),
(406,0,l),
(238,213,l),
(395,409,l),
(356,409,l),
(221,235,l),
(86,409,l),
(43,409,l),
(200,211,l),
(30,0,l)
);
}
);
width = 435;
},
{
anchors = (
{
name = bottom;
pos = (226,0);
},
{
name = top;
pos = (226,417);
}
);
layerId = "14EEE41F-D714-4243-A717-73445EE7DABA";
shapes = (
{
closed = 1;
nodes = (
(115,0,l),
(222,162,l),
(327,0,l),
(437,0,l),
(277,218,l),
(428,417,l),
(333,417,l),
(235,271,l),
(140,417,l),
(31,417,l),
(181,214,l),
(16,0,l)
);
}
);
width = 452;
},
{
anchors = (
{
name = bottom;
pos = (249,0);
},
{
name = top;
pos = (249,425);
}
);
layerId = "090CB6A0-BE7C-4D17-A551-206C7456A8A3";
shapes = (
{
closed = 1;
nodes = (
(172,0,l),
(244,143,l),
(320,0,l),
(499,0,l),
(345,220,l),
(490,425,l),
(327,425,l),
(258,293,l),
(191,425,l),
(14,425,l),
(155,217,l),
(3,0,l)
);
}
);
width = 500;
}
);
unicode = 120;
},
{
color = 3;
glyphname = y;
kernLeft = v;
kernRight = v;
layers = (
{
anchors = (
{
name = bottom;
pos = (333,0);
},
{
name = top;
pos = (234,410);
}
);
layerId = "3114FB65-9464-41A5-B67E-A8F9F43C0EF1";
shapes = (
{
closed = 1;
nodes = (
(251,26,l),
(74,410,l),
(36,410,l),
(233,-13,l)
);
},
{
closed = 1;
nodes = (
(235,17,l),
(96,-289,l),
(134,-289,l),
(430,410,l),
(394,410,l)
);
}
);
width = 466;
},
{
anchors = (
{
name = bottom;
pos = (356,0);
},
{
name = top;
pos = (235,417);
}
);
layerId = "14EEE41F-D714-4243-A717-73445EE7DABA";
shapes = (
{
closed = 1;
nodes = (
(264,57,l),
(116,417,l),
(20,417,l),
(227,-41,l)
);
},
{
closed = 1;
nodes = (
(232,30,l),
(79,-289,l),
(172,-289,l),
(451,417,l),
(363,417,l)
);
}
);
width = 469;
},
{
anchors = (
{
name = bottom;
pos = (399,-24);
},
{
name = top;
pos = (252,425);
}
);
layerId = "090CB6A0-BE7C-4D17-A551-206C7456A8A3";
shapes = (
{
closed = 1;
nodes = (
(281,78,l),
(168,425,l),
(7,425,l),
(224,-79,l)
);
},
{
closed = 1;
nodes = (
(244,46,l),
(69,-289,l),
(229,-289,l),
(493,425,l),
(342,425,l)
);
}
);
width = 499;
}
);
metricLeft = v;
metricRight = v;
unicode = 121;
},
{
color = 3;
glyphname = z;
kernLeft = n;
layers = (
{
anchors = (
{
name = bottom;
pos = (209,0);
},
{
name = center;
pos = (211,205);
},
{
name = top;
pos = (218,409);
}
);
layerId = "3114FB65-9464-41A5-B67E-A8F9F43C0EF1";
shapes = (
{
closed = 1;
nodes = (
(46,0,l),
(388,0,l),
(390,25,l),
(62,24,l),
(79,11,l),
(377,385,l),
(372,398,l),
(59,398,l),
(58,373,l),
(357,374,l),
(339,386,l),
(41,15,l)
);
}
);
width = 422;
},
{
anchors = (
{
name = bottom;
pos = (204,0);
},
{
name = center;
pos = (212,209);
},
{
name = top;
pos = (221,417);
}
);
layerId = "14EEE41F-D714-4243-A717-73445EE7DABA";
shapes = (
{
closed = 1;
nodes = (
(39,0,l),
(391,0,l),
(395,59,l),
(84,55,l),
(125,21,l),
(391,386,l),
(385,413,l),
(54,413,l),
(50,354,l),
(343,359,l),
(296,389,l),
(31,32,l)
);
}
);
width = 423;
},
{
anchors = (
{
name = bottom;
pos = (218,0);
},
{
name = center;
pos = (220,213);
},
{
name = top;
pos = (229,425);
}
);
layerId = "090CB6A0-BE7C-4D17-A551-206C7456A8A3";
shapes = (
{
closed = 1;
nodes = (
(35,0,l),
(410,0,l),
(417,104,l),
(115,96,l),
(168,37,l),
(418,370,l),
(411,425,l),
(45,425,l),
(39,321,l),
(335,331,l),
(271,384,l),
(23,63,l)
);
}
);
width = 439;
}
);
unicode = 122;
},
{
color = 3;
glyphname = ordfeminine;
layers = (
{
anchors = (
{
name = bottom;
pos = (201,309);
},
{
name = ogonek;
pos = (261,398);
},
{
name = top;
pos = (147,658);
}
);
layerId = "3114FB65-9464-41A5-B67E-A8F9F43C0EF1";
shapes = (
{
closed = 1;
nodes = (
(358,303,o),
(382,317,o),
(396,338,c),
(380,352,l),
(369,334,o),
(352,326,o),
(336,326,cs),
(311,326,o),
(299,345,o),
(300,379,cs),
(303,563,ls),
(303,627,o),
(271,665,o),
(215,665,cs),
(149,665,o),
(74,618,o),
(66,549,c),
(95,546,l),
(104,607,o),
(164,641,o),
(209,641,cs),
(250,641,o),
(276,616,o),
(275,560,cs),
(272,384,ls),
(271,331,o),
(293,303,o),
(332,303,cs)
);
},
{
closed = 1;
nodes = (
(185,303,o),
(233,331,o),
(289,379,c),
(288,400,l),
(230,355,o),
(183,327,o),
(145,327,cs),
(112,327,o),
(89,345,o),
(89,374,cs),
(89,398,o),
(103,417,o),
(151,435,cs),
(292,484,l),
(288,507,l),
(141,456,ls),
(81,436,o),
(59,407,o),
(59,371,cs),
(59,330,o),
(92,303,o),
(136,303,cs)
);
}
);
width = 416;
},
{
anchors = (
{
name = bottom;
pos = (198,308);
},
{
name = ogonek;
pos = (264,398);
},
{
name = top;
pos = (150,658);
}
);
layerId = "14EEE41F-D714-4243-A717-73445EE7DABA";
shapes = (
{
closed = 1;
nodes = (
(352,303,o),
(380,318,o),
(393,342,c),
(362,373,l),
(354,361,o),
(341,355,o),
(329,355,cs),
(314,355,o),
(307,365,o),
(308,385,cs),
(310,560,ls),
(310,626,o),
(278,664,o),
(215,664,cs),
(132,664,o),
(56,612,o),
(48,546,c),
(118,538,l),
(126,589,o),
(167,610,o),
(199,610,cs),
(230,610,o),
(246,594,o),
(245,550,cs),
(242,398,ls),
(241,335,o),
(268,303,o),
(318,303,cs)
);
},
{
closed = 1;
nodes = (
(186,303,o),
(232,334,o),
(285,382,c),
(283,415,l),
(229,382,o),
(186,357,o),
(155,357,cs),
(130,357,o),
(113,371,o),
(113,393,cs),
(113,410,o),
(123,424,o),
(161,437,cs),
(286,476,l),
(282,516,l),
(143,478,ls),
(63,458,o),
(40,425,o),
(40,385,cs),
(40,336,o),
(76,303,o),
(128,303,cs)
);
}
);
width = 399;
},
{
anchors = (
{
name = bottom;
pos = (197,308);
},
{
name = ogonek;
pos = (272,398);
},
{
name = top;
pos = (159,658);
}
);
layerId = "090CB6A0-BE7C-4D17-A551-206C7456A8A3";
shapes = (
{
closed = 1;
nodes = (
(353,302,o),
(386,319,o),
(400,345,c),
(364,388,l),
(357,379,o),
(346,374,o),
(337,374,cs),
(328,374,o),
(324,380,o),
(324,392,cs),
(326,558,ls),
(327,626,o),
(288,664,o),
(220,664,cs),
(125,664,o),
(43,609,o),
(34,544,c),
(139,533,l),
(147,573,o),
(172,586,o),
(195,586,cs),
(216,586,o),
(226,576,o),
(226,545,cs),
(223,405,ls),
(221,338,o),
(254,302,o),
(314,302,cs)
);
},
{
closed = 1;
nodes = (
(191,302,o),
(235,335,o),
(286,385,c),
(285,426,l),
(233,402,o),
(192,380,o),
(167,380,cs),
(149,380,o),
(137,391,o),
(137,406,cs),
(137,418,o),
(146,431,o),
(174,439,cs),
(288,472,l),
(284,526,l),
(148,496,ls),
(50,475,o),
(26,437,o),
(26,392,cs),
(26,340,o),
(70,302,o),
(128,302,cs)
);
}
);
width = 399;
}
);
unicode = 170;
},
{
color = 3;
glyphname = ordmasculine;
layers = (
{
layerId = "3114FB65-9464-41A5-B67E-A8F9F43C0EF1";
shapes = (
{
closed = 1;
nodes = (
(312,303,o),
(388,380,o),
(388,488,cs),
(388,590,o),
(317,665,o),
(218,665,cs),
(116,665,o),
(40,587,o),
(40,481,cs),
(40,378,o),
(112,303,o),
(211,303,cs)
);
},
{
closed = 1;
nodes = (
(132,326,o),
(72,392,o),
(72,484,cs),
(72,574,o),
(132,641,o),
(216,641,cs),
(298,641,o),
(356,576,o),
(356,485,cs),
(356,396,o),
(298,326,o),
(214,326,cs)
);
}
);
width = 428;
},
{
layerId = "14EEE41F-D714-4243-A717-73445EE7DABA";
shapes = (
{
closed = 1;
nodes = (
(319,302,o),
(398,381,o),
(398,489,cs),
(398,590,o),
(324,664,o),
(223,664,cs),
(113,664,o),
(33,586,o),
(33,478,cs),
(33,377,o),
(107,302,o),
(210,302,cs)
);
},
{
closed = 1;
nodes = (
(159,356,o),
(112,406,o),
(112,487,cs),
(112,554,o),
(148,610,o),
(213,610,cs),
(273,610,o),
(319,560,o),
(319,481,cs),
(319,415,o),
(285,356,o),
(220,356,cs)
);
}
);
width = 431;
},
{
layerId = "090CB6A0-BE7C-4D17-A551-206C7456A8A3";
shapes = (
{
closed = 1;
nodes = (
(324,302,o),
(407,381,o),
(407,490,cs),
(407,590,o),
(329,663,o),
(225,663,cs),
(110,663,o),
(26,585,o),
(26,476,cs),
(26,376,o),
(103,302,o),
(209,302,cs)
);
},
{
closed = 1;
nodes = (
(184,388,o),
(151,424,o),
(151,488,cs),
(151,536,o),
(170,578,o),
(212,578,cs),
(250,578,o),
(282,542,o),
(282,479,cs),
(282,433,o),
(265,388,o),
(222,388,cs)
);
}
);
width = 435;
}
);
unicode = 186;
},
{
glyphname = "hamza-ar";
layers = (
{
anchors = (
{
name = bottom;
pos = (249,-96);
},
{
name = top;
pos = (249,509);
}
);
layerId = "14EEE41F-D714-4243-A717-73445EE7DABA";
shapes = (
{
closed = 1;
nodes = (
(236,75,l),
(209,75,o),
(192,96,o),
(192,122,cs),
(192,157,o),
(229,211,o),
(378,301,c),
(341,362,l),
(334,362,l),
(240,304,o),
(120,235,o),
(120,134,cs),
(120,105,o),
(130,74,o),
(152,40,c)
);
},
{
closed = 1;
nodes = (
(427,0,l),
(448,68,l),
(448,75,l),
(190,75,l),
(177,68,l),
(177,68,o),
(131,75,o),
(89,75,cs),
(87,75,l),
(50,6,l),
(53,0,l)
);
}
);
width = 498;
},
{
anchors = (
{
name = bottom;
pos = (271,-96);
},
{
name = top;
pos = (271,509);
}
);
layerId = "090CB6A0-BE7C-4D17-A551-206C7456A8A3";
shapes = (
{
closed = 1;
nodes = (
(313,119,l),
(290,119,o),
(276,136,o),
(276,158,cs),
(276,188,o),
(307,232,o),
(431,308,c),
(362,406,l),
(355,406,l),
(261,348,o),
(141,279,o),
(141,178,cs),
(141,149,o),
(151,118,o),
(173,84,c)
);
},
{
closed = 1;
nodes = (
(462,0,l),
(496,112,l),
(496,119,l),
(210,119,l),
(177,112,l),
(177,112,o),
(142,119,o),
(111,119,cs),
(103,119,l),
(45,9,l),
(50,0,l)
);
}
);
width = 541;
},
{
anchors = (
{
name = bottom;
pos = (219,-96);
},
{
name = top;
pos = (219,509);
}
);
associatedMasterId = "090CB6A0-BE7C-4D17-A551-206C7456A8A3";
layerId = "B246FC91-93F8-4DCF-B897-BCAAE2BC900C";
name = "Mar 24 20, 14:37";
shapes = (
{
closed = 1;
nodes = (
(158,0,l),
(158,0,o),
(167,106,o),
(167,137,cs),
(167,209,o),
(221,266,o),
(288,266,cs),
(362,266,l),
(372,361,l),
(288,361,ls),
(162,361,o),
(59,261,o),
(59,137,cs),
(59,77,o),
(50,12,o),
(50,12,c),
(59,0,l)
);
},
{
closed = 1;
nodes = (
(400,0,l),
(400,110,l),
(273,110,ls),
(210,110,o),
(84,101,o),
(84,101,c),
(84,0,l)
);
}
);
width = 600;
},
{
anchors = (
{
name = bottom;
pos = (226,-96);
},
{
name = top;
pos = (226,509);
}
);
associatedMasterId = "090CB6A0-BE7C-4D17-A551-206C7456A8A3";
layerId = "C6BBE24D-4ABF-4E51-9CA1-B3CF4E022E54";
name = "Mar 25 20, 15:45";
shapes = (
{
closed = 1;
nodes = (
(175,0,l),
(181,48,o),
(184,98,o),
(184,138,cs),
(184,202,o),
(231,252,o),
(289,252,cs),
(370,252,l),
(383,362,l),
(289,362,ls),
(162,362,o),
(59,262,o),
(59,138,cs),
(59,96,o),
(55,47,o),
(51,12,c),
(59,0,l)
);
},
{
closed = 1;
nodes = (
(400,0,l),
(400,119,l),
(303,119,ls),
(240,119,o),
(114,110,o),
(114,110,c),
(114,0,l)
);
}
);
width = 440;
},
{
anchors = (
{
name = bottom;
pos = (183,-96);
},
{
name = top;
pos = (183,381);
}
);
associatedMasterId = "14EEE41F-D714-4243-A717-73445EE7DABA";
layerId = "1AD2DFE8-5B3A-4C9E-904F-52AE6D0D4E35";
name = "Sep 26 22, 14:47";
shapes = (
{
closed = 1;
nodes = (
(135,0,l),
(135,0,o),
(142,72,o),
(142,108,cs),
(142,165,o),
(185,210,o),
(238,210,cs),
(296,210,l),
(304,285,l),
(238,285,ls),
(138,285,o),
(57,206,o),
(57,108,cs),
(57,61,o),
(50,10,o),
(50,10,c),
(57,0,l)
);
},
{
closed = 1;
nodes = (
(326,0,l),
(326,75,l),
(226,75,ls),
(176,75,o),
(77,68,o),
(77,68,c),
(77,0,l)
);
}
);
width = 366;
},
{
anchors = (
{
name = bottom;
pos = (183,-96);
},
{
name = top;
pos = (183,381);
}
);
associatedMasterId = "14EEE41F-D714-4243-A717-73445EE7DABA";
layerId = "9545BBB6-8E10-43C2-B396-4495067B81ED";
name = "Sep 26 22, 18:07";
shapes = (
{
closed = 1;
nodes = (
(326,0,l),
(326,85,l),
(226,85,ls),
(176,85,o),
(77,78,o),
(77,78,c),
(77,0,l)
);
},
{
closed = 1;
nodes = (
(124,0,l),
(129,35,o),
(132,77,o),
(132,108,cs),
(132,158,o),
(179,200,o),
(238,200,cs),
(295,200,l),
(304,285,l),
(238,285,ls),
(138,285,o),
(57,206,o),
(57,108,cs),
(57,75,o),
(53,36,o),
(50,10,c),
(57,0,l)
);
}
);
width = 366;
},
{
anchors = (
{
name = bottom;
pos = (228,-96);
},
{
name = top;
pos = (228,465);
}
);
layerId = "3114FB65-9464-41A5-B67E-A8F9F43C0EF1";
shapes = (
{
closed = 1;
nodes = (
(160,30,l),
(147,30,o),
(123,68,o),
(123,113,cs),
(123,209,o),
(238,276,o),
(337,340,c),
(323,362,l),
(316,362,l),
(218,299,o),
(93,224,o),
(93,113,cs),
(93,81,o),
(103,48,o),
(126,10,c)
);
},
{
closed = 1;
nodes = (
(394,0,l),
(401,23,l),
(401,30,l),
(142,30,l),
(136,23,l),
(136,23,o),
(108,30,o),
(74,30,cs),
(68,30,l),
(55,6,l),
(58,0,l)
);
}
);
width = 456;
},
{
anchors = (
{
name = bottom;
pos = (215,-96);
},
{
name = top;
pos = (215,509);
}
);
associatedMasterId = "090CB6A0-BE7C-4D17-A551-206C7456A8A3";
layerId = "71A6EE0E-4526-4EF4-AE9C-D3BD436F0830";
name = "Oct 9 22, 12:37";
shapes = (
{
closed = 1;
nodes = (
(164,0,l),
(170,48,o),
(173,99,o),
(173,138,cs),
(173,202,o),
(220,252,o),
(278,252,cs),
(359,252,l),
(372,362,l),
(278,362,ls),
(151,362,o),
(48,262,o),
(48,138,cs),
(48,96,o),
(44,47,o),
(40,12,c),
(48,0,l)
);
},
{
closed = 1;
nodes = (
(389,0,l),
(389,119,l),
(289,119,ls),
(239,119,o),
(140,112,o),
(140,112,c),
(140,0,l)
);
}
);
width = 429;
},
{
anchors = (
{
name = bottom;
pos = (183,-96);
},
{
name = top;
pos = (183,381);
}
);
associatedMasterId = "14EEE41F-D714-4243-A717-73445EE7DABA";
layerId = "DD512D2B-5E84-4E5B-A474-443FC02E91C3";
name = "Oct 11 22, 13:48";
shapes = (
{
closed = 1;
nodes = (
(125,0,l),
(128,27,o),
(132,71,o),
(132,108,cs),
(132,164,o),
(179,210,o),
(238,210,cs),
(296,210,l),
(303,274,l),
(303,285,l),
(238,285,ls),
(138,285,o),
(57,206,o),
(57,108,cs),
(57,75,o),
(53,36,o),
(50,10,c),
(57,0,l)
);
},
{
closed = 1;
nodes = (
(326,0,l),
(326,75,l),
(226,75,ls),
(176,75,o),
(77,68,o),
(77,68,c),
(77,0,l)
);
}
);
width = 376;
},
{
anchors = (
{
name = bottom;
pos = (215,-96);
},
{
name = top;
pos = (215,509);
}
);
associatedMasterId = "090CB6A0-BE7C-4D17-A551-206C7456A8A3";
layerId = "E371FC15-7A5F-400F-9AB7-B5C6ABFE6AC8";
name = "Oct 11 22, 13:50";
shapes = (
{
closed = 1;
nodes = (
(164,0,l),
(170,48,o),
(173,99,o),
(173,138,cs),
(173,202,o),
(220,252,o),
(278,252,cs),
(359,252,l),
(371,351,l),
(371,362,l),
(278,362,ls),
(151,362,o),
(48,262,o),
(48,138,cs),
(48,96,o),
(44,47,o),
(40,12,c),
(48,0,l)
);
},
{
closed = 1;
nodes = (
(389,0,l),
(389,119,l),
(289,119,ls),
(239,119,o),
(140,112,o),
(140,112,c),
(140,0,l)
);
}
);
width = 429;
},
{
anchors = (
{
name = bottom;
pos = (193,-96);
},
{
name = top;
pos = (193,381);
}
);
associatedMasterId = "3114FB65-9464-41A5-B67E-A8F9F43C0EF1";
layerId = "33857271-8D60-4D64-A06A-8211F3EE1A75";
name = "Oct 11 22, 13:51";
shapes = (
{
closed = 1;
nodes = (
(89,0,l),
(92,25,o),
(97,70,o),
(97,108,cs),
(97,189,o),
(165,255,o),
(248,255,cs),
(298,255,l),
(300,274,l),
(300,285,l),
(248,285,ls),
(148,285,o),
(67,206,o),
(67,108,cs),
(67,75,o),
(63,36,o),
(60,10,c),
(67,0,l)
);
},
{
closed = 1;
nodes = (
(336,0,l),
(336,30,l),
(216,30,ls),
(166,30,o),
(67,23,o),
(67,23,c),
(67,0,l)
);
}
);
width = 396;
}
);
unicode = 1569;
},
{
glyphname = "alef-ar";
layers = (
{
anchors = (
{
name = bottom;
pos = (108,-48);
},
{
name = top;
pos = (108,804);
}
);
layerId = "14EEE41F-D714-4243-A717-73445EE7DABA";
shapes = (
{
closed = 1;
nodes = (
(145,0,l),
(160,14,l),
(160,14,o),
(145,138,o),
(145,247,cs),
(145,747,l),
(142,755,l),
(70,746,l),
(70,0,l)
);
}
);
width = 230;
},
{
anchors = (
{
name = bottom;
pos = (95,-70);
},
{
name = top;
pos = (93,780);
}
);
associatedMasterId = "14EEE41F-D714-4243-A717-73445EE7DABA";
layerId = "000178C5-23D3-4A14-B85E-7A97FCC399F3";
name = "Dec 4 19, 13:45";
shapes = (
{
closed = 1;
nodes = (
(135,0,l),
(150,14,l),
(144,95,o),
(134,166,o),
(135,237,c),
(135,716,l),
(50,716,l),
(50,0,l)
);
}
);
width = 200;
},
{
anchors = (
{
name = bottom;
pos = (129,-58);
},
{
name = top;
pos = (129,804);
}
);
layerId = "090CB6A0-BE7C-4D17-A551-206C7456A8A3";
shapes = (
{
closed = 1;
nodes = (
(195,0,l),
(210,14,l),
(210,14,o),
(195,138,o),
(195,247,cs),
(195,753,l),
(192,761,l),
(60,745,l),
(60,0,l)
);
}
);
width = 270;
},
{
anchors = (
{
name = bottom;
pos = (104,-48);
},
{
name = top;
pos = (104,804);
}
);
associatedMasterId = "14EEE41F-D714-4243-A717-73445EE7DABA";
layerId = "7F3F5221-23E9-47ED-BC99-F374C7E686C9";
name = "Sep 26 22, 14:44";
shapes = (
{
closed = 1;
nodes = (
(145,0,l),
(160,14,l),
(160,14,o),
(145,138,o),
(145,247,cs),
(145,756,l),
(60,746,l),
(60,0,l)
);
}
);
width = 240;
},
{
anchors = (
{
name = bottom;
pos = (102,-48);
},
{
name = top;
pos = (102,804);
}
);
layerId = "3114FB65-9464-41A5-B67E-A8F9F43C0EF1";
shapes = (
{
closed = 1;
nodes = (
(110,0,l),
(125,14,l),
(125,14,o),
(110,138,o),
(110,247,cs),
(110,743,l),
(107,751,l),
(80,747,l),
(80,0,l)
);
}
);
width = 205;
}
);
unicode = 1575;
},
{
glyphname = "alef-ar.fina";
layers = (
{
anchors = (
{
name = bottom;
pos = (108,-48);
},
{
name = top;
pos = (108,804);
}
);
layerId = "14EEE41F-D714-4243-A717-73445EE7DABA";
shapes = (
{
closed = 1;
nodes = (
(145,747,l),
(142,755,l),
(70,746,l),
(70,1,l),
(145,0,l)
);
},
{
closed = 1;
nodes = (
(231,0,l),
(231,75,l),
(70,75,l),
(70,0,l)
);
},
{
pos = (181,0);
ref = _connection.r;
}
);
width = 231;
},
{
anchors = (
{
name = bottom;
pos = (95,-70);
},
{
name = top;
pos = (95,800);
}
);
associatedMasterId = "14EEE41F-D714-4243-A717-73445EE7DABA";
layerId = "6C46519A-E7B5-4255-B537-29BE5CAB0258";
name = "Dec 4 19, 13:52";
shapes = (
{
closed = 1;
nodes = (
(251,0,l),
(251,75,l),
(221,75,l),
(125,67,l),
(125,0,l)
);
},
{
closed = 1;
nodes = (
(135,0,l),
(135,716,l),
(50,716,l),
(50,0,l)
);
},
{
pos = (201,0);
ref = _connection.r;
}
);
width = 251;
},
{
anchors = (
{
name = bottom;
pos = (95,-70);
},
{
name = top;
pos = (93,760);
}
);
associatedMasterId = "14EEE41F-D714-4243-A717-73445EE7DABA";
layerId = "4329D98B-ABBA-4C60-B72B-0C6E96E377C0";
name = "Dec 4 19, 14:08";
shapes = (
{
closed = 1;
nodes = (
(135,0,l),
(150,14,l),
(150,14,o),
(135,138,o),
(135,247,cs),
(135,716,l),
(50,706,l),
(50,0,l)
);
},
{
closed = 1;
nodes = (
(251,0,l),
(251,75,l),
(221,75,l),
(125,67,l),
(125,0,l)
);
},
{
pos = (201,0);
ref = _connection.r;
}
);
width = 251;
},
{
anchors = (
{
name = bottom;
pos = (95,-70);
},
{
name = top;
pos = (93,760);
}
);
associatedMasterId = "14EEE41F-D714-4243-A717-73445EE7DABA";
layerId = "A2719580-B9B8-4878-9E29-1F1E5D8123EE";
name = "Dec 4 19, 14:10";
shapes = (
{
closed = 1;
nodes = (
(135,0,l),
(135,14,l),
(135,716,l),
(50,706,l),
(50,0,l)
);
},
{
closed = 1;
nodes = (
(251,0,l),
(251,75,l),
(125,75,l),
(125,0,l)
);
},
{
closed = 1;
nodes = (
(135,247,l),
(50,247,l),
(50,138,o),
(35,14,o),
(35,14,c),
(50,0,l),
(135,0,l)
);
},
{
pos = (201,0);
ref = _connection.r;
}
);
width = 251;
},
{
anchors = (
{
name = bottom;
pos = (128,-48);
},
{
name = top;
pos = (128,804);
}
);
layerId = "090CB6A0-BE7C-4D17-A551-206C7456A8A3";
shapes = (
{
closed = 1;
nodes = (
(195,753,l),
(192,761,l),
(60,745,l),
(60,1,l),
(195,0,l)
);
},
{
closed = 1;
nodes = (
(281,0,l),
(281,119,l),
(60,119,l),
(60,0,l)
);
},
{
pos = (231,0);
ref = _connection.r;
}
);
width = 281;
},
{
anchors = (
{
name = bottom;
pos = (95,-48);
},
{
name = top;
pos = (95,804);
}
);
layerId = "3114FB65-9464-41A5-B67E-A8F9F43C0EF1";
shapes = (
{
closed = 1;
nodes = (
(110,743,l),
(107,751,l),
(80,747,l),
(80,1,l),
(110,0,l)
);
},
{
closed = 1;
nodes = (
(196,0,l),
(196,30,l),
(80,30,l),
(80,0,l)
);
},
{
pos = (146,0);
ref = _connection.r;
}
);
width = 196;
},
{
anchors = (
{
name = bottom;
pos = (128,-48);
},
{
name = top;
pos = (128,804);
}
);
associatedMasterId = "090CB6A0-BE7C-4D17-A551-206C7456A8A3";
layerId = "11D1FF1E-E260-4171-A6E0-6A9C24D95C97";
name = "Oct 7 22, 12:42";
shapes = (
{
closed = 1;
nodes = (
(195,756,l),
(60,740,l),
(60,1,l),
(195,0,l)
);
},
{
closed = 1;
nodes = (
(281,0,l),
(281,119,l),
(60,119,l),
(60,0,l)
);
},
{
pos = (231,0);
ref = _connection.r;
}
);
width = 281;
},
{
anchors = (
{
name = bottom;
pos = (108,-48);
},
{
name = top;
pos = (108,804);
}
);
associatedMasterId = "14EEE41F-D714-4243-A717-73445EE7DABA";
layerId = "CE5ECA3C-0F8A-4540-9E42-9B5D40A8FC49";
name = "Oct 7 22, 12:42";
shapes = (
{
closed = 1;
nodes = (
(145,0,l),
(145,755,l),
(70,746,l),
(70,0,l)
);
},
{
closed = 1;
nodes = (
(231,0,l),
(231,75,l),
(70,75,l),
(70,0,l)
);
},
{
pos = (181,0);
ref = _connection.r;
}
);
width = 231;
},
{
anchors = (
{
name = bottom;
pos = (95,-48);
},
{
name = top;
pos = (95,804);
}
);
associatedMasterId = "3114FB65-9464-41A5-B67E-A8F9F43C0EF1";
layerId = "6B496B63-7FB5-44C6-AAA0-092D43F11A69";
name = "Oct 7 22, 12:42";
shapes = (
{
closed = 1;
nodes = (
(110,0,l),
(110,752,l),
(80,748,l),
(80,0,l)
);
},
{
closed = 1;
nodes = (
(196,0,l),
(196,30,l),
(80,30,l),
(80,0,l)
);
},
{
pos = (146,0);
ref = _connection.r;
}
);
width = 196;
}
);
metricLeft = "=alef-ar";
metricRight = "=-20";
},
{
glyphname = "alef-ar.short";
layers = (
{
anchors = (
{
name = bottom;
pos = (115,-48);
},
{
name = top;
pos = (115,716);
}
);
layerId = "14EEE41F-D714-4243-A717-73445EE7DABA";
shapes = (
{
closed = 1;
nodes = (
(145,0,l),
(160,14,l),
(160,14,o),
(145,138,o),
(145,247,cs),
(145,659,l),
(142,667,l),
(70,658,l),
(70,0,l)
);
}
);
width = 230;
},
{
associatedMasterId = "14EEE41F-D714-4243-A717-73445EE7DABA";
layerId = "63067D81-B144-4BC7-9223-DE3B49682313";
name = "Dec 20 19, 16:30";
shapes = (
{
ref = "alef-ar";
}
);
width = 230;
},
{
anchors = (
{
name = bottom;
pos = (135,-58);
},
{
name = top;
pos = (135,714);
}
);
layerId = "090CB6A0-BE7C-4D17-A551-206C7456A8A3";
shapes = (
{
closed = 1;
nodes = (
(195,0,l),
(210,14,l),
(210,14,o),
(195,138,o),
(195,247,cs),
(195,663,l),
(192,671,l),
(60,655,l),
(60,0,l)
);
}
);
width = 270;
},
{
anchors = (
{
name = bottom;
pos = (103,-48);
},
{
name = top;
pos = (103,717);
}
);
layerId = "3114FB65-9464-41A5-B67E-A8F9F43C0EF1";
shapes = (
{
closed = 1;
nodes = (
(110,0,l),
(125,14,l),
(125,14,o),
(110,138,o),
(110,247,cs),
(110,656,l),
(107,664,l),
(80,660,l),
(80,0,l)
);
}
);
width = 205;
}
);
},
{
glyphname = "alef-ar.short.fina";
layers = (
{
anchors = (
{
name = bottom;
pos = (108,-48);
},
{
name = top;
pos = (108,716);
}
);
layerId = "14EEE41F-D714-4243-A717-73445EE7DABA";
shapes = (
{
closed = 1;
nodes = (
(145,659,l),
(142,667,l),
(70,658,l),
(70,1,l),
(145,0,l)
);
},
{
closed = 1;
nodes = (
(231,0,l),
(231,75,l),
(70,75,l),
(70,0,l)
);
},
{
pos = (181,0);
ref = _connection.r;
}
);
width = 231;
},
{
anchors = (
{
name = bottom;
pos = (128,-48);
},
{
name = top;
pos = (128,714);
}
);
layerId = "090CB6A0-BE7C-4D17-A551-206C7456A8A3";
shapes = (
{
closed = 1;
nodes = (
(195,663,l),
(192,671,l),
(60,655,l),
(60,1,l),
(195,0,l)
);
},
{
closed = 1;
nodes = (
(281,0,l),
(281,119,l),
(60,119,l),
(60,0,l)
);
},
{
pos = (231,0);
ref = _connection.r;
}
);
width = 281;
},
{
anchors = (
{
name = bottom;
pos = (95,-48);
},
{
name = top;
pos = (95,717);
}
);
layerId = "3114FB65-9464-41A5-B67E-A8F9F43C0EF1";
shapes = (
{
closed = 1;
nodes = (
(110,656,l),
(107,664,l),
(80,660,l),
(80,1,l),
(110,0,l)
);
},
{
closed = 1;
nodes = (
(196,0,l),
(196,30,l),
(80,30,l),
(80,0,l)
);
},
{
pos = (146,0);
ref = _connection.r;
}
);
width = 196;
}
);
},
{
glyphname = "behDotless-ar";
layers = (
{
anchors = (
{
name = bottom;
pos = (458,-96);
},
{
name = ring;
pos = (458,47);
},
{
name = top;
pos = (458,338);
}
);
layerId = "14EEE41F-D714-4243-A717-73445EE7DABA";
shapes = (
{
closed = 1;
nodes = (
(781,0,l),
(781,75,l),
(468,75,ls),
(284,75,o),
(168,93,o),
(102,133,c),
(91,133,l),
(55,74,l),
(153,11,o),
(318,0,o),
(468,0,cs)
);
},
{
pos = (685,0);
ref = "behDotless-ar.init";
}
);
width = 916;
},
{
anchors = (
{
name = bottom;
pos = (472,-70);
},
{
name = ring;
pos = (472,0);
},
{
name = top;
pos = (472,500);
}
);
associatedMasterId = "14EEE41F-D714-4243-A717-73445EE7DABA";
layerId = "37F58C7D-4100-419F-A8F3-DEBE2078F050";
name = "Nov 20 19, 22:04";
shapes = (
{
closed = 1;
nodes = (
(849,0,l),
(864,14,l),
(858,95,o),
(848,166,o),
(849,237,cs),
(849,448,l),
(764,448,l),
(764,135,l),
(777,42,l),
(773,0,l)
);
},
{
closed = 1;
nodes = (
(784,67,l),
(678,75,l),
(391,75,l),
(391,0,l),
(784,0,l)
);
},
{
closed = 1;
nodes = (
(70,319,o),
(50,276,o),
(50,217,cs),
(50,28,o),
(241,0,o),
(391,0,c),
(391,75,l),
(208,75,o),
(135,116,o),
(135,217,cs),
(135,254,o),
(143,281,o),
(168,325,c),
(94,362,l)
);
}
);
width = 944;
},
{
anchors = (
{
name = bottom;
pos = (472,-70);
},
{
name = ring;
pos = (472,0);
},
{
name = top;
pos = (472,500);
}
);
associatedMasterId = "14EEE41F-D714-4243-A717-73445EE7DABA";
layerId = "F43BD355-534A-4EC5-BD64-A98DF66E58FC";
name = "Nov 21 19, 16:58";
shapes = (
{
closed = 1;
nodes = (
(849,0,l),
(864,14,l),
(858,95,o),
(849,166,o),
(849,237,cs),
(849,389,l),
(764,389,l),
(764,135,l),
(777,42,l),
(773,0,l)
);
},
{
closed = 1;
nodes = (
(784,67,l),
(678,75,l),
(343,75,l),
(343,0,l),
(784,0,l)
);
},
{
closed = 1;
nodes = (
(90,16,o),
(229,0,o),
(343,0,c),
(343,75,l),
(200,75,o),
(114,100,o),
(88,159,c),
(108,159,l),
(21,85,l),
(31,108,l)
);
}
);
width = 944;
},
{
anchors = (
{
name = bottom;
pos = (472,-70);
},
{
name = ring;
pos = (472,0);
},
{
name = top;
pos = (472,480);
}
);
associatedMasterId = "14EEE41F-D714-4243-A717-73445EE7DABA";
layerId = "C1DDC24F-F64E-448E-B04C-2D56C94CFCE6";
name = "Nov 22 19, 17:04";
shapes = (
{
closed = 1;
nodes = (
(849,0,l),
(864,14,l),
(858,95,o),
(849,166,o),
(849,237,cs),
(849,398,l),
(764,398,l),
(764,135,l),
(777,42,l),
(773,0,l)
);
},
{
closed = 1;
nodes = (
(784,67,l),
(678,75,l),
(391,75,l),
(391,0,l),
(784,0,l)
);
},
{
closed = 1;
nodes = (
(70,319,o),
(50,276,o),
(50,217,cs),
(50,28,o),
(241,0,o),
(391,0,c),
(391,75,l),
(208,75,o),
(135,116,o),
(135,217,cs),
(135,254,o),
(143,281,o),
(168,325,c),
(94,362,l)
);
}
);
width = 944;
},
{
anchors = (
{
name = bottom;
pos = (472,-70);
},
{
name = ring;
pos = (472,0);
},
{
name = top;
pos = (472,480);
}
);
associatedMasterId = "14EEE41F-D714-4243-A717-73445EE7DABA";
layerId = "8C13A46E-D854-4321-A2C2-E014E1D7D66A";
name = "Nov 22 19, 17:08";
shapes = (
{
closed = 1;
nodes = (
(849,0,l),
(864,14,l),
(858,95,o),
(849,166,o),
(849,237,cs),
(849,389,l),
(764,389,l),
(764,135,l),
(777,42,l),
(773,0,l)
);
},
{
closed = 1;
nodes = (
(784,67,l),
(678,75,l),
(343,75,l),
(343,0,l),
(784,0,l)
);
},
{
closed = 1;
nodes = (
(90,16,o),
(229,0,o),
(343,0,c),
(343,75,l),
(200,75,o),
(114,100,o),
(88,159,c),
(108,159,l),
(21,85,l),
(31,108,l)
);
}
);
width = 944;
},
{
anchors = (
{
name = bottom;
pos = (472,-70);
},
{
name = ring;
pos = (472,0);
},
{
name = top;
pos = (472,480);
}
);
associatedMasterId = "14EEE41F-D714-4243-A717-73445EE7DABA";
layerId = "3AC51FB4-E95A-4F53-8514-77D07B757D86";
name = "Dec 4 19, 14:14";
shapes = (
{
closed = 1;
nodes = (
(343,75,l),
(200,75,o),
(114,100,o),
(88,159,c),
(108,159,l),
(21,85,l),
(31,108,l),
(90,16,o),
(229,0,o),
(343,0,c)
);
},
{
closed = 1;
nodes = (
(784,0,l),
(784,67,l),
(678,75,l),
(343,75,l),
(343,0,l)
);
},
{
closed = 1;
nodes = (
(849,0,l),
(864,14,l),
(858,95,o),
(849,166,o),
(849,237,cs),
(849,389,l),
(764,389,l),
(764,265,ls),
(764,194,o),
(773,123,o),
(779,42,c),
(773,0,l)
);
}
);
width = 944;
},
{
anchors = (
{
name = bottom;
pos = (472,-70);
},
{
name = ring;
pos = (472,0);
},
{
name = top;
pos = (472,480);
}
);
associatedMasterId = "14EEE41F-D714-4243-A717-73445EE7DABA";
layerId = "6D784801-9313-4E0F-92C3-E1572AB7A0D4";
name = "Dec 4 19, 14:17";
shapes = (
{
closed = 1;
nodes = (
(343,75,l),
(200,75,o),
(114,100,o),
(88,159,c),
(108,159,l),
(21,85,l),
(31,108,l),
(90,16,o),
(229,0,o),
(343,0,c)
);
},
{
closed = 1;
nodes = (
(784,0,l),
(784,67,l),
(678,75,l),
(343,75,l),
(343,0,l)
);
},
{
closed = 1;
nodes = (
(764,153,o),
(776,42,o),
(776,42,c),
(773,0,l),
(849,0,l),
(864,14,l),
(864,14,o),
(849,138,o),
(849,247,cs),
(849,389,l),
(764,379,l),
(764,265,ls)
);
},
{
closed = 1;
nodes = (
(980,75,l),
(980,0,l),
(1106,0,l),
(1106,68,l),
(1106,68,o),
(1050,75,o),
(1000,75,cs)
);
},
{
closed = 1;
nodes = (
(1186,14,l),
(1186,14,o),
(1171,138,o),
(1171,247,cs),
(1171,348,l),
(1086,338,l),
(1086,265,ls),
(1086,153,o),
(1098,42,o),
(1098,42,c),
(1095,0,l),
(1171,0,l)
);
}
);
width = 944;
},
{
anchors = (
{
name = bottom;
pos = (472,-70);
},
{
name = ring;
pos = (472,0);
},
{
name = top;
pos = (472,389);
}
);
associatedMasterId = "14EEE41F-D714-4243-A717-73445EE7DABA";
layerId = "C54795E9-6FCE-4D88-BA72-376A535EF207";
name = "Dec 4 19, 14:26";
shapes = (
{
closed = 1;
nodes = (
(343,75,l),
(200,75,o),
(114,100,o),
(88,159,c),
(108,159,l),
(21,85,l),
(31,108,l),
(90,16,o),
(229,0,o),
(343,0,c)
);
},
{
closed = 1;
nodes = (
(764,153,o),
(776,42,o),
(776,42,c),
(773,0,l),
(849,0,l),
(864,14,l),
(864,14,o),
(849,138,o),
(849,247,cs),
(849,389,l),
(764,379,l),
(764,265,ls)
);
},
{
closed = 1;
nodes = (
(784,0,l),
(784,68,l),
(784,68,o),
(728,75,o),
(678,75,cs),
(343,75,l),
(343,0,l)
);
}
);
width = 944;
},
{
anchors = (
{
name = bottom;
pos = (472,-70);
},
{
name = ring;
pos = (472,0);
},
{
name = top;
pos = (472,389);
}
);
associatedMasterId = "14EEE41F-D714-4243-A717-73445EE7DABA";
layerId = "7B6CBCB8-3657-4C86-B5A7-A54938259C22";
name = "Dec 4 19, 14:28";
shapes = (
{
closed = 1;
nodes = (
(764,153,o),
(776,42,o),
(776,42,c),
(773,0,l),
(849,0,l),
(864,14,l),
(864,14,o),
(849,138,o),
(849,247,cs),
(849,389,l),
(764,379,l),
(764,265,ls)
);
},
{
closed = 1;
nodes = (
(784,0,l),
(784,68,l),
(784,68,o),
(728,75,o),
(678,75,cs),
(343,75,l),
(343,0,l)
);
},
{
closed = 1;
nodes = (
(188,75,o),
(112,99,o),
(88,149,c),
(127,139,l),
(34,42,l),
(17,108,l),
(65,15,o),
(219,0,o),
(343,0,c),
(343,75,l)
);
}
);
width = 944;
},
{
anchors = (
{
name = bottom;
pos = (472,-70);
},
{
name = ring;
pos = (472,0);
},
{
name = top;
pos = (472,389);
}
);
associatedMasterId = "14EEE41F-D714-4243-A717-73445EE7DABA";
layerId = "E8FB3D7A-E026-4884-94C9-158A59A7BF55";
name = "Dec 4 19, 14:31";
shapes = (
{
closed = 1;
nodes = (
(764,153,o),
(776,42,o),
(776,42,c),
(773,0,l),
(849,0,l),
(864,14,l),
(864,14,o),
(849,138,o),
(849,247,cs),
(849,389,l),
(764,379,l),
(764,265,ls)
);
},
{
closed = 1;
nodes = (
(784,0,l),
(784,68,l),
(784,68,o),
(728,75,o),
(678,75,cs),
(471,75,l),
(471,0,l)
);
},
{
closed = 0;
nodes = (
(127,139,l)
);
},
{
closed = 1;
nodes = (
(237,75,o),
(116,106,o),
(68,172,c),
(116,170,l),
(34,51,l),
(2,126,l),
(80,17,o),
(287,0,o),
(471,0,c),
(471,75,l)
);
}
);
width = 944;
},
{
anchors = (
{
name = bottom;
pos = (472,-70);
},
{
name = ring;
pos = (472,0);
},
{
name = top;
pos = (472,389);
}
);
associatedMasterId = "14EEE41F-D714-4243-A717-73445EE7DABA";
layerId = "2B2C5DE6-45EF-4702-A719-EB7C9B9BA05E";
name = "Jan 3 20, 12:19";
shapes = (
{
closed = 1;
nodes = (
(464,75,l),
(230,75,o),
(109,106,o),
(61,172,c),
(116,170,l),
(34,51,l),
(2,126,l),
(80,17,o),
(287,0,o),
(471,0,c)
);
},
{
closed = 0;
nodes = (
(127,139,l)
);
},
{
closed = 1;
nodes = (
(784,0,l),
(784,68,l),
(784,68,o),
(728,75,o),
(678,75,cs),
(461,75,l),
(471,0,l)
);
},
{
closed = 1;
nodes = (
(849,0,l),
(864,14,l),
(864,14,o),
(849,138,o),
(849,247,cs),
(849,389,l),
(764,379,l),
(764,265,ls),
(764,153,o),
(776,42,o),
(776,42,c),
(773,0,l)
);
}
);
width = 944;
},
{
anchors = (
{
name = bottom;
pos = (468,-96);
},
{
name = ring;
pos = (468,61);
},
{
name = top;
pos = (468,338);
}
);
layerId = "090CB6A0-BE7C-4D17-A551-206C7456A8A3";
shapes = (
{
closed = 1;
nodes = (
(734,0,l),
(739,119,l),
(461,119,ls),
(296,119,o),
(186,134,o),
(117,165,c),
(107,165,l),
(50,73,l),
(148,11,o),
(312,0,o),
(461,0,cs)
);
},
{
pos = (650,0);
ref = "behDotless-ar.init";
}
);
width = 936;
},
{
anchors = (
{
name = bottom;
pos = (453,-96);
},
{
name = ring;
pos = (472,0);
},
{
name = top;
pos = (453,338);
}
);
associatedMasterId = "090CB6A0-BE7C-4D17-A551-206C7456A8A3";
layerId = "5BA81F59-69C4-4F24-8488-53AC7B31885D";
name = "Mar 24 20, 15:03";
shapes = (
{
closed = 1;
nodes = (
(849,0,l),
(864,14,l),
(864,14,o),
(849,138,o),
(849,247,cs),
(849,463,l),
(724,448,l),
(724,265,ls),
(724,153,o),
(736,42,o),
(736,42,c),
(733,0,l)
);
},
{
closed = 1;
nodes = (
(744,0,l),
(744,103,l),
(744,103,o),
(688,110,o),
(638,110,cs),
(471,110,l),
(471,0,l),
(638,0,l)
);
},
{
closed = 1;
nodes = (
(237,110,o),
(125,140,o),
(96,203,c),
(141,211,l),
(40,44,l),
(-11,147,l),
(55,19,o),
(276,0,o),
(471,0,c),
(471,110,l)
);
}
);
width = 600;
},
{
anchors = (
{
name = bottom;
pos = (453,-96);
},
{
name = ring;
pos = (472,0);
},
{
name = top;
pos = (453,338);
}
);
associatedMasterId = "14EEE41F-D714-4243-A717-73445EE7DABA";
layerId = "508B38CD-8BAC-4CD6-BED1-F63F6D2502AE";
name = "Mar 24 20, 15:03";
shapes = (
{
closed = 1;
nodes = (
(464,75,l),
(230,75,o),
(109,106,o),
(61,172,c),
(116,170,l),
(44,51,l),
(2,126,l),
(80,17,o),
(287,0,o),
(471,0,c)
);
},
{
closed = 1;
nodes = (
(784,0,l),
(784,68,l),
(784,68,o),
(728,75,o),
(678,75,cs),
(464,75,l),
(471,0,l)
);
},
{
closed = 1;
nodes = (
(849,0,l),
(864,14,l),
(864,14,o),
(849,138,o),
(849,247,cs),
(849,458,l),
(764,448,l),
(764,265,ls),
(764,153,o),
(776,42,o),
(776,42,c),
(773,0,l)
);
}
);
width = 944;
},
{
anchors = (
{
name = bottom;
pos = (453,-96);
},
{
name = ring;
pos = (472,0);
},
{
name = top;
pos = (453,338);
}
);
associatedMasterId = "090CB6A0-BE7C-4D17-A551-206C7456A8A3";
layerId = "F6BF9D77-F83E-4FF5-97F5-A0E9F5FADAD8";
name = "Mar 24 20, 15:12";
shapes = (
{
closed = 1;
nodes = (
(471,110,l),
(223,110,o),
(104,140,o),
(73,203,c),
(141,211,l),
(40,44,l),
(-11,147,l),
(55,19,o),
(276,0,o),
(471,0,c)
);
},
{
closed = 1;
nodes = (
(744,0,l),
(744,103,l),
(744,103,o),
(688,110,o),
(638,110,cs),
(471,110,l),
(471,0,l)
);
},
{
closed = 1;
nodes = (
(849,0,l),
(864,14,l),
(864,14,o),
(849,138,o),
(849,247,cs),
(849,458,l),
(724,443,l),
(724,265,ls),
(724,153,o),
(736,42,o),
(736,42,c),
(733,0,l)
);
}
);
width = 944;
},
{
anchors = (
{
name = bottom;
pos = (448,-96);
},
{
name = ring;
pos = (472,0);
},
{
name = top;
pos = (448,338);
}
);
associatedMasterId = "090CB6A0-BE7C-4D17-A551-206C7456A8A3";
layerId = "8098BD34-70D8-48E5-BC4E-70186168AE43";
name = "Mar 25 20, 15:48";
shapes = (
{
closed = 1;
nodes = (
(471,110,l),
(223,110,o),
(104,140,o),
(73,203,c),
(141,211,l),
(40,44,l),
(-11,147,l),
(55,19,o),
(276,0,o),
(471,0,c)
);
},
{
closed = 1;
nodes = (
(744,0,l),
(749,109,l),
(749,109,o),
(659,119,o),
(659,119,cs),
(471,119,l),
(471,0,l)
);
},
{
closed = 1;
nodes = (
(849,0,l),
(864,14,l),
(864,14,o),
(849,138,o),
(849,247,cs),
(849,458,l),
(679,438,l),
(714,488,l),
(714,265,ls),
(714,153,o),
(726,42,o),
(726,42,c),
(723,0,l)
);
}
);
width = 944;
},
{
anchors = (
{
name = bottom;
pos = (448,-96);
},
{
name = ring;
pos = (472,0);
},
{
name = top;
pos = (448,338);
}
);
associatedMasterId = "090CB6A0-BE7C-4D17-A551-206C7456A8A3";
layerId = "997B86A4-DB16-4D01-AEB4-88F9E21D0FB7";
name = "Mar 25 20, 15:50";
shapes = (
{
closed = 1;
nodes = (
(228,119,o),
(121,152,o),
(104,215,c),
(146,221,l),
(28,19,l),
(-21,170,l),
(30,21,o),
(265,0,o),
(471,0,c),
(471,119,l)
);
},
{
closed = 1;
nodes = (
(744,0,l),
(749,109,l),
(749,109,o),
(659,119,o),
(659,119,c),
(471,119,l),
(471,0,l)
);
},
{
closed = 1;
nodes = (
(849,0,l),
(864,14,l),
(864,14,o),
(849,138,o),
(849,247,cs),
(849,458,l),
(679,438,l),
(714,488,l),
(714,265,ls),
(714,153,o),
(726,42,o),
(726,42,c),
(723,0,l)
);
}
);
width = 944;
},
{
anchors = (
{
name = bottom;
pos = (455,-96);
},
{
name = ring;
pos = (474,0);
},
{
name = top;
pos = (455,338);
}
);
associatedMasterId = "14EEE41F-D714-4243-A717-73445EE7DABA";
layerId = "3A16A303-781F-4781-AFE1-2B3B6F87E2FF";
name = "Sep 26 22, 15:00";
shapes = (
{
closed = 1;
nodes = (
(466,75,l),
(229,75,o),
(106,106,o),
(57,172,c),
(118,170,l),
(46,51,l),
(4,126,l),
(82,17,o),
(289,0,o),
(473,0,c)
);
},
{
closed = 1;
nodes = (
(786,0,l),
(786,68,l),
(786,68,o),
(730,75,o),
(680,75,cs),
(466,75,l),
(473,0,l)
);
},
{
closed = 1;
nodes = (
(851,0,l),
(866,14,l),
(866,14,o),
(851,138,o),
(851,247,cs),
(851,362,l),
(766,352,l),
(766,265,ls),
(766,153,o),
(778,42,o),
(778,42,c),
(775,0,l)
);
}
);
width = 946;
},
{
anchors = (
{
name = bottom;
pos = (443,-96);
},
{
name = ring;
pos = (443,28);
},
{
name = top;
pos = (443,338);
}
);
layerId = "3114FB65-9464-41A5-B67E-A8F9F43C0EF1";
shapes = (
{
closed = 1;
nodes = (
(786,0,l),
(786,30,l),
(473,30,ls),
(283,30,o),
(159,50,o),
(84,94,c),
(73,94,l),
(60,74,l),
(158,11,o),
(323,0,o),
(473,0,cs)
);
},
{
pos = (690,0);
ref = "behDotless-ar.init";
}
);
width = 881;
}
);
unicode = 1646;
},
{
glyphname = "behDotless-ar.fina";
layers = (
{
layerId = "14EEE41F-D714-4243-A717-73445EE7DABA";
shapes = (
{
closed = 1;
nodes = (
(919,0,l),
(919,75,l),
(815,75,l),
(815,0,l)
);
},
{
pos = (869,0);
ref = _connection.r;
},
{
ref = "behDotless-ar";
}
);
width = 919;
},
{
anchors = (
{
name = bottom;
pos = (472,-70);
},
{
name = ring;
pos = (472,0);
},
{
name = top;
pos = (472,430);
}
);
associatedMasterId = "14EEE41F-D714-4243-A717-73445EE7DABA";
layerId = "1C3EA0F1-3220-45A7-BB0E-E54029F06AC2";
name = "Nov 22 19, 17:04";
shapes = (
{
closed = 1;
nodes = (
(784,67,l),
(678,75,l),
(391,75,l),
(391,0,l),
(784,0,l)
);
},
{
closed = 1;
nodes = (
(70,319,o),
(50,276,o),
(50,217,cs),
(50,28,o),
(241,0,o),
(391,0,c),
(391,75,l),
(208,75,o),
(135,116,o),
(135,217,cs),
(135,254,o),
(143,281,o),
(168,325,c),
(94,362,l)
);
},
{
closed = 1;
nodes = (
(849,0,l),
(864,14,l),
(858,95,o),
(848,166,o),
(849,237,c),
(849,348,l),
(764,348,l),
(764,135,l),
(777,42,l),
(773,0,l)
);
},
{
closed = 1;
nodes = (
(942,0,l),
(942,75,l),
(818,75,l),
(818,0,l)
);
},
{
pos = (892,0);
ref = _connection.r;
}
);
width = 942;
},
{
anchors = (
{
name = bottom;
pos = (472,-70);
},
{
name = ring;
pos = (472,0);
},
{
name = top;
pos = (472,430);
}
);
associatedMasterId = "14EEE41F-D714-4243-A717-73445EE7DABA";
layerId = "CD4F5824-A2A7-4F7F-A4FC-114B8B1CFD0A";
name = "Dec 4 19, 14:23";
shapes = (
{
closed = 1;
nodes = (
(942,0,l),
(942,75,l),
(818,75,l),
(818,0,l)
);
},
{
closed = 1;
nodes = (
(784,67,l),
(678,75,l),
(343,75,l),
(343,0,l),
(784,0,l)
);
},
{
closed = 1;
nodes = (
(90,16,o),
(229,0,o),
(343,0,c),
(343,75,l),
(200,75,o),
(114,100,o),
(88,159,c),
(108,159,l),
(21,85,l),
(31,108,l)
);
},
{
closed = 1;
nodes = (
(849,0,l),
(864,14,l),
(858,95,o),
(849,166,o),
(849,237,cs),
(849,348,l),
(764,348,l),
(764,265,ls),
(764,194,o),
(773,123,o),
(779,42,c),
(773,0,l)
);
},
{
pos = (892,0);
ref = _connection.r;
}
);
width = 942;
},
{
anchors = (
{
name = bottom;
pos = (472,-70);
},
{
name = ring;
pos = (472,0);
},
{
name = top;
pos = (472,348);
}
);
associatedMasterId = "14EEE41F-D714-4243-A717-73445EE7DABA";
layerId = "ABAE9F08-D66F-429D-B789-E4CB17D3BD14";
name = "Dec 4 19, 14:30";
shapes = (
{
closed = 1;
nodes = (
(942,0,l),
(942,75,l),
(818,75,l),
(818,0,l)
);
},
{
closed = 1;
nodes = (
(343,75,l),
(200,75,o),
(114,100,o),
(88,159,c),
(108,159,l),
(21,85,l),
(31,108,l),
(90,16,o),
(229,0,o),
(343,0,c)
);
},
{
closed = 1;
nodes = (
(764,153,o),
(776,42,o),
(776,42,c),
(773,0,l),
(849,0,l),
(864,14,l),
(864,14,o),
(849,138,o),
(849,247,cs),
(849,348,l),
(764,338,l),
(764,265,ls)
);
},
{
closed = 1;
nodes = (
(784,0,l),
(784,68,l),
(784,68,o),
(728,75,o),
(678,75,cs),
(343,75,l),
(343,0,l)
);
},
{
pos = (892,0);
ref = _connection.r;
}
);
width = 942;
},
{
anchors = (
{
name = bottom;
pos = (472,-70);
},
{
name = ring;
pos = (472,0);
},
{
name = top;
pos = (472,348);
}
);
associatedMasterId = "14EEE41F-D714-4243-A717-73445EE7DABA";
layerId = "5584AF21-BC7A-4AE0-8B54-2D30F2A6CB39";
name = "Dec 4 19, 14:30";
shapes = (
{
closed = 1;
nodes = (
(942,0,l),
(942,75,l),
(818,75,l),
(818,0,l)
);
},
{
closed = 1;
nodes = (
(764,153,o),
(776,42,o),
(776,42,c),
(773,0,l),
(849,0,l),
(864,14,l),
(864,14,o),
(849,138,o),
(849,247,cs),
(849,348,l),
(764,338,l),
(764,265,ls)
);
},
{
closed = 1;
nodes = (
(784,0,l),
(784,68,l),
(784,68,o),
(728,75,o),
(678,75,cs),
(471,75,l),
(471,0,l)
);
},
{
closed = 1;
nodes = (
(237,75,o),
(116,106,o),
(68,172,c),
(116,170,l),
(34,51,l),
(2,126,l),
(80,17,o),
(287,0,o),
(471,0,c),
(471,75,l)
);
},
{
pos = (892,0);
ref = _connection.r;
}
);
width = 942;
},
{
layerId = "090CB6A0-BE7C-4D17-A551-206C7456A8A3";
shapes = (
{
closed = 1;
nodes = (
(944,0,l),
(944,119,l),
(840,119,l),
(840,0,l)
);
},
{
pos = (894,0);
ref = _connection.r;
},
{
ref = "behDotless-ar";
}
);
width = 944;
},
{
anchors = (
{
name = bottom;
pos = (453,-96);
},
{
name = ring;
pos = (472,0);
},
{
name = top;
pos = (453,338);
}
);
associatedMasterId = "090CB6A0-BE7C-4D17-A551-206C7456A8A3";
layerId = "A28DD53D-98C3-4B44-AE48-4D8F69A067E8";
name = "Mar 25 20, 15:57";
shapes = (
{
closed = 1;
nodes = (
(471,110,l),
(223,110,o),
(104,140,o),
(73,203,c),
(141,211,l),
(40,44,l),
(-11,147,l),
(55,19,o),
(276,0,o),
(471,0,c)
);
},
{
closed = 1;
nodes = (
(744,0,l),
(744,103,l),
(744,103,o),
(688,110,o),
(638,110,cs),
(471,110,l),
(471,0,l)
);
},
{
closed = 1;
nodes = (
(922,0,l),
(922,110,l),
(818,110,l),
(818,0,l)
);
},
{
closed = 1;
nodes = (
(849,0,l),
(864,14,l),
(864,14,o),
(849,138,o),
(849,247,cs),
(849,362,l),
(724,347,l),
(724,265,ls),
(724,153,o),
(736,42,o),
(736,42,c),
(733,0,l)
);
},
{
pos = (872,0);
ref = _connection.r;
}
);
width = 922;
},
{
anchors = (
{
name = bottom;
pos = (472,-96);
},
{
name = ring;
pos = (472,0);
},
{
name = top;
pos = (472,389);
}
);
associatedMasterId = "14EEE41F-D714-4243-A717-73445EE7DABA";
layerId = "E22B6EEE-6842-474A-B052-07DBF7054198";
name = "Sep 26 22, 12:49";
shapes = (
{
closed = 1;
nodes = (
(464,75,l),
(230,75,o),
(109,106,o),
(61,172,c),
(116,170,l),
(44,51,l),
(2,126,l),
(80,17,o),
(287,0,o),
(471,0,c)
);
},
{
closed = 1;
nodes = (
(784,0,l),
(784,68,l),
(784,68,o),
(728,75,o),
(678,75,cs),
(461,75,l),
(471,0,l)
);
},
{
closed = 1;
nodes = (
(912,0,l),
(912,75,l),
(818,75,l),
(818,0,l)
);
},
{
closed = 1;
nodes = (
(849,0,l),
(864,14,l),
(864,14,o),
(849,138,o),
(849,247,cs),
(849,362,l),
(764,352,l),
(764,265,ls),
(764,153,o),
(776,42,o),
(776,42,c),
(773,0,l)
);
},
{
pos = (862,0);
ref = _connection.r;
}
);
width = 912;
},
{
anchors = (
{
name = bottom;
pos = (472,-96);
},
{
name = ring;
pos = (472,0);
},
{
name = top;
pos = (472,389);
}
);
associatedMasterId = "14EEE41F-D714-4243-A717-73445EE7DABA";
layerId = "EC5B39AC-B435-4847-9C9C-62B693468D07";
name = "Sep 26 22, 15:03";
shapes = (
{
closed = 1;
nodes = (
(464,75,l),
(230,75,o),
(109,106,o),
(61,172,c),
(116,170,l),
(44,51,l),
(2,126,l),
(80,17,o),
(287,0,o),
(471,0,c)
);
},
{
closed = 1;
nodes = (
(784,0,l),
(784,75,l),
(678,75,l),
(461,75,l),
(471,0,l)
);
},
{
closed = 1;
nodes = (
(912,0,l),
(912,75,l),
(818,75,l),
(818,0,l)
);
},
{
closed = 1;
nodes = (
(849,0,l),
(864,14,l),
(864,14,o),
(849,138,o),
(849,247,cs),
(849,362,l),
(764,352,l),
(764,265,ls),
(764,153,o),
(776,42,o),
(776,42,c),
(773,0,l)
);
},
{
pos = (862,0);
ref = _connection.r;
}
);
width = 912;
},
{
layerId = "3114FB65-9464-41A5-B67E-A8F9F43C0EF1";
shapes = (
{
closed = 1;
nodes = (
(869,0,l),
(869,30,l),
(775,30,l),
(775,0,l)
);
},
{
pos = (819,0);
ref = _connection.r;
},
{
ref = "behDotless-ar";
}
);
width = 869;
}
);
metricLeft = "=behDotless-ar";
metricRight = "=-20";
},
{
glyphname = "behDotless-ar.medi";
layers = (
{
layerId = "14EEE41F-D714-4243-A717-73445EE7DABA";
shapes = (
{
closed = 1;
nodes = (
(244,0,l),
(244,75,l),
(140,75,l),
(140,0,l)
);
},
{
pos = (194,0);
ref = _connection.r;
},
{
ref = "behDotless-ar.init";
}
);
width = 244;
},
{
anchors = (
{
name = bottom;
pos = (149,-70);
},
{
name = ring;
pos = (137,0);
},
{
name = top;
pos = (149,440);
}
);
associatedMasterId = "14EEE41F-D714-4243-A717-73445EE7DABA";
layerId = "144B7664-46A8-4EA6-A04B-5EFEBF9A4BB3";
name = "Nov 21 19, 23:29";
shapes = (
{
closed = 1;
nodes = (
(191,0,l),
(206,14,l),
(200,95,o),
(190,166,o),
(191,237,c),
(191,359,l),
(106,359,l),
(106,135,l),
(119,42,l),
(115,0,l)
);
},
{
closed = 1;
nodes = (
(126,67,l),
(20,75,l),
(0,75,l),
(0,0,l),
(126,0,l)
);
},
{
closed = 1;
nodes = (
(284,0,l),
(284,75,l),
(160,75,l),
(160,0,l)
);
},
{
ref = _connection.l;
},
{
pos = (234,0);
ref = _connection.r;
}
);
width = 284;
},
{
anchors = (
{
name = bottom;
pos = (149,-70);
},
{
name = ring;
pos = (137,0);
},
{
name = top;
pos = (149,470);
}
);
associatedMasterId = "14EEE41F-D714-4243-A717-73445EE7DABA";
layerId = "7DD1563C-59C8-4118-9A63-9376B00B3CC0";
name = "Nov 22 19, 17:10";
shapes = (
{
closed = 1;
nodes = (
(191,0,l),
(206,14,l),
(200,95,o),
(190,166,o),
(191,237,c),
(191,389,l),
(106,389,l),
(106,135,l),
(119,42,l),
(115,0,l)
);
},
{
closed = 1;
nodes = (
(126,67,l),
(20,75,l),
(0,75,l),
(0,0,l),
(126,0,l)
);
},
{
closed = 1;
nodes = (
(284,0,l),
(284,75,l),
(160,75,l),
(160,0,l)
);
},
{
ref = _connection.l;
},
{
pos = (234,0);
ref = _connection.r;
}
);
width = 284;
},
{
anchors = (
{
name = bottom;
pos = (149,-70);
},
{
name = ring;
pos = (137,0);
},
{
name = top;
pos = (149,470);
}
);
associatedMasterId = "14EEE41F-D714-4243-A717-73445EE7DABA";
layerId = "38AFEFC2-E275-4C25-AE72-527830276AC0";
name = "Nov 22 19, 17:10";
shapes = (
{
closed = 1;
nodes = (
(126,67,l),
(20,75,l),
(0,75,l),
(0,0,l),
(126,0,l)
);
},
{
closed = 1;
nodes = (
(284,0,l),
(284,75,l),
(160,75,l),
(160,0,l)
);
},
{
closed = 1;
nodes = (
(191,0,l),
(206,14,l),
(200,95,o),
(191,166,o),
(191,237,cs),
(191,389,l),
(106,389,l),
(106,265,ls),
(106,194,o),
(115,123,o),
(121,42,c),
(115,0,l)
);
},
{
ref = _connection.l;
},
{
pos = (234,0);
ref = _connection.r;
}
);
width = 284;
},
{
anchors = (
{
name = bottom;
pos = (149,-70);
},
{
name = ring;
pos = (137,0);
},
{
name = top;
pos = (149,470);
}
);
associatedMasterId = "14EEE41F-D714-4243-A717-73445EE7DABA";
layerId = "598002F6-35EF-425B-B9DB-2C4AEBA90AF1";
name = "Dec 4 19, 14:01";
shapes = (
{
closed = 1;
nodes = (
(126,67,l),
(20,75,l),
(0,75,l),
(0,0,l),
(126,0,l)
);
},
{
closed = 1;
nodes = (
(284,0,l),
(284,75,l),
(160,75,l),
(160,0,l)
);
},
{
closed = 1;
nodes = (
(191,0,l),
(206,14,l),
(200,95,o),
(190,166,o),
(191,237,c),
(191,389,l),
(106,389,l),
(106,135,l),
(119,42,l),
(115,0,l)
);
},
{
ref = _connection.l;
},
{
pos = (234,0);
ref = _connection.r;
}
);
width = 284;
},
{
layerId = "090CB6A0-BE7C-4D17-A551-206C7456A8A3";
shapes = (
{
closed = 1;
nodes = (
(284,0,l),
(284,119,l),
(180,119,l),
(180,0,l)
);
},
{
pos = (234,0);
ref = _connection.r;
},
{
ref = "behDotless-ar.init";
}
);
width = 284;
},
{
layerId = "3114FB65-9464-41A5-B67E-A8F9F43C0EF1";
shapes = (
{
closed = 1;
nodes = (
(199,0,l),
(199,30,l),
(95,30,l),
(95,0,l)
);
},
{
pos = (149,0);
ref = _connection.r;
},
{
ref = "behDotless-ar.init";
}
);
width = 199;
}
);
metricLeft = "=-20";
metricRight = "=-20";
},
{
glyphname = "behDotless-ar.medi.high";
layers = (
{
layerId = "14EEE41F-D714-4243-A717-73445EE7DABA";
shapes = (
{
closed = 1;
nodes = (
(244,0,l),
(244,75,l),
(140,75,l),
(140,0,l)
);
},
{
pos = (194,0);
ref = _connection.r;
},
{
ref = "behDotless-ar.init.high";
}
);
width = 244;
},
{
anchors = (
{
name = bottom;
pos = (149,-70);
},
{
name = ring;
pos = (137,0);
},
{
name = top;
pos = (149,440);
}
);
associatedMasterId = "14EEE41F-D714-4243-A717-73445EE7DABA";
layerId = "144B7664-46A8-4EA6-A04B-5EFEBF9A4BB3";
name = "Nov 21 19, 23:29";
shapes = (
{
closed = 1;
nodes = (
(191,0,l),
(206,14,l),
(200,95,o),
(190,166,o),
(191,237,c),
(191,359,l),
(106,359,l),
(106,135,l),
(119,42,l),
(115,0,l)
);
},
{
closed = 1;
nodes = (
(126,67,l),
(20,75,l),
(0,75,l),
(0,0,l),
(126,0,l)
);
},
{
closed = 1;
nodes = (
(284,0,l),
(284,75,l),
(160,75,l),
(160,0,l)
);
},
{
ref = _connection.l;
},
{
pos = (234,0);
ref = _connection.r;
}
);
width = 284;
},
{
anchors = (
{
name = bottom;
pos = (149,-70);
},
{
name = ring;
pos = (137,0);
},
{
name = top;
pos = (149,470);
}
);
associatedMasterId = "14EEE41F-D714-4243-A717-73445EE7DABA";
layerId = "7DD1563C-59C8-4118-9A63-9376B00B3CC0";
name = "Nov 22 19, 17:10";
shapes = (
{
closed = 1;
nodes = (
(191,0,l),
(206,14,l),
(200,95,o),
(190,166,o),
(191,237,c),
(191,389,l),
(106,389,l),
(106,135,l),
(119,42,l),
(115,0,l)
);
},
{
closed = 1;
nodes = (
(126,67,l),
(20,75,l),
(0,75,l),
(0,0,l),
(126,0,l)
);
},
{
closed = 1;
nodes = (
(284,0,l),
(284,75,l),
(160,75,l),
(160,0,l)
);
},
{
ref = _connection.l;
},
{
pos = (234,0);
ref = _connection.r;
}
);
width = 284;
},
{
anchors = (
{
name = bottom;
pos = (149,-70);
},
{
name = ring;
pos = (137,0);
},
{
name = top;
pos = (149,470);
}
);
associatedMasterId = "14EEE41F-D714-4243-A717-73445EE7DABA";
layerId = "38AFEFC2-E275-4C25-AE72-527830276AC0";
name = "Nov 22 19, 17:10";
shapes = (
{
closed = 1;
nodes = (
(126,67,l),
(20,75,l),
(0,75,l),
(0,0,l),
(126,0,l)
);
},
{
closed = 1;
nodes = (
(284,0,l),
(284,75,l),
(160,75,l),
(160,0,l)
);
},
{
closed = 1;
nodes = (
(191,0,l),
(206,14,l),
(200,95,o),
(191,166,o),
(191,237,cs),
(191,389,l),
(106,389,l),
(106,265,ls),
(106,194,o),
(115,123,o),
(121,42,c),
(115,0,l)
);
},
{
ref = _connection.l;
},
{
pos = (234,0);
ref = _connection.r;
}
);
width = 284;
},
{
anchors = (
{
name = bottom;
pos = (149,-70);
},
{
name = ring;
pos = (137,0);
},
{
name = top;
pos = (149,470);
}
);
associatedMasterId = "14EEE41F-D714-4243-A717-73445EE7DABA";
layerId = "598002F6-35EF-425B-B9DB-2C4AEBA90AF1";
name = "Dec 4 19, 14:01";
shapes = (
{
closed = 1;
nodes = (
(126,67,l),
(20,75,l),
(0,75,l),
(0,0,l),
(126,0,l)
);
},
{
closed = 1;
nodes = (
(284,0,l),
(284,75,l),
(160,75,l),
(160,0,l)
);
},
{
closed = 1;
nodes = (
(191,0,l),
(206,14,l),
(200,95,o),
(190,166,o),
(191,237,c),
(191,389,l),
(106,389,l),
(106,135,l),
(119,42,l),
(115,0,l)
);
},
{
ref = _connection.l;
},
{
pos = (234,0);
ref = _connection.r;
}
);
width = 284;
},
{
layerId = "090CB6A0-BE7C-4D17-A551-206C7456A8A3";
shapes = (
{
closed = 1;
nodes = (
(284,0,l),
(284,119,l),
(180,119,l),
(180,0,l)
);
},
{
pos = (234,0);
ref = _connection.r;
},
{
ref = "behDotless-ar.init.high";
}
);
width = 284;
},
{
layerId = "3114FB65-9464-41A5-B67E-A8F9F43C0EF1";
shapes = (
{
closed = 1;
nodes = (
(199,0,l),
(199,30,l),
(95,30,l),
(95,0,l)
);
},
{
pos = (149,0);
ref = _connection.r;
},
{
ref = "behDotless-ar.init.high";
}
);
width = 199;
}
);
metricLeft = "=-20";
metricRight = "=-20";
},
{
glyphname = "behDotless-ar.init";
layers = (
{
anchors = (
{
name = bottom;
pos = (119,-96);
},
{
name = ring;
pos = (93,47);
},
{
name = top;
pos = (124,458);
}
);
layerId = "14EEE41F-D714-4243-A717-73445EE7DABA";
shapes = (
{
closed = 1;
nodes = (
(161,0,l),
(176,14,l),
(176,14,o),
(161,138,o),
(161,247,cs),
(161,354,l),
(158,362,l),
(86,353,l),
(86,265,ls),
(86,153,o),
(98,42,o),
(98,42,c),
(95,0,l)
);
},
{
closed = 1;
nodes = (
(106,0,l),
(106,75,l),
(0,75,l),
(0,0,l)
);
},
{
ref = _connection.l;
}
);
width = 231;
},
{
associatedMasterId = "14EEE41F-D714-4243-A717-73445EE7DABA";
layerId = "AA857F37-29A6-4D6C-8A70-77DDB2D759B1";
name = "Nov 20 19, 12:19";
shapes = (
{
closed = 1;
nodes = (
(135,0,l),
(150,14,l),
(144,95,o),
(134,166,o),
(135,237,c),
(135,448,l),
(50,448,l),
(50,135,l),
(63,42,l),
(59,0,l)
);
},
{
closed = 1;
nodes = (
(70,67,l),
(-36,75,l),
(-66,75,l),
(-66,0,l),
(70,0,l)
);
}
);
width = 600;
},
{
associatedMasterId = "14EEE41F-D714-4243-A717-73445EE7DABA";
layerId = "DA6C0E42-7196-464B-AD4B-496AAD5509A4";
name = "Nov 20 19, 12:21";
shapes = (
{
closed = 1;
nodes = (
(135,0,l),
(150,14,l),
(144,95,o),
(134,166,o),
(135,237,c),
(135,448,l),
(50,448,l),
(50,0,l)
);
},
{
closed = 1;
nodes = (
(60,67,l),
(-36,75,l),
(-66,75,l),
(-66,0,l),
(60,0,l)
);
}
);
width = 190;
},
{
anchors = (
{
name = bottom;
pos = (149,-70);
},
{
name = ring;
pos = (123,0);
},
{
name = top;
pos = (149,480);
}
);
associatedMasterId = "14EEE41F-D714-4243-A717-73445EE7DABA";
layerId = "E185AA56-B2D8-4F42-B9C7-E1BAED1D1A7A";
name = "Nov 21 19, 23:29";
shapes = (
{
closed = 1;
nodes = (
(191,0,l),
(206,14,l),
(200,95,o),
(190,166,o),
(191,237,c),
(191,398,l),
(106,398,l),
(106,135,l),
(119,42,l),
(115,0,l)
);
},
{
closed = 1;
nodes = (
(126,67,l),
(20,75,l),
(0,75,l),
(0,0,l),
(126,0,l)
);
},
{
ref = _connection.l;
}
);
width = 256;
},
{
anchors = (
{
name = bottom;
pos = (149,-70);
},
{
name = ring;
pos = (123,0);
},
{
name = top;
pos = (149,430);
}
);
associatedMasterId = "14EEE41F-D714-4243-A717-73445EE7DABA";
layerId = "97A729D1-8061-4233-A1CC-44C9FA2A390E";
name = "Nov 22 19, 17:10";
shapes = (
{
closed = 1;
nodes = (
(191,0,l),
(206,14,l),
(200,95,o),
(190,166,o),
(191,237,c),
(191,348,l),
(106,348,l),
(106,135,l),
(119,42,l),
(115,0,l)
);
},
{
closed = 1;
nodes = (
(126,67,l),
(20,75,l),
(0,75,l),
(0,0,l),
(126,0,l)
);
},
{
ref = _connection.l;
}
);
width = 256;
},
{
anchors = (
{
name = bottom;
pos = (149,-70);
},
{
name = ring;
pos = (123,0);
},
{
name = top;
pos = (149,430);
}
);
associatedMasterId = "14EEE41F-D714-4243-A717-73445EE7DABA";
layerId = "C4126E8E-961E-4191-9154-AFA14C252AA9";
name = "Dec 4 19, 13:56";
shapes = (
{
closed = 1;
nodes = (
(126,67,l),
(20,75,l),
(0,75,l),
(0,0,l),
(126,0,l)
);
},
{
closed = 1;
nodes = (
(191,0,l),
(206,14,l),
(200,95,o),
(191,166,o),
(191,237,cs),
(191,348,l),
(106,348,l),
(106,265,ls),
(106,194,o),
(115,123,o),
(121,42,c),
(115,0,l)
);
},
{
ref = _connection.l;
}
);
width = 256;
},
{
anchors = (
{
name = bottom;
pos = (149,-70);
},
{
name = ring;
pos = (123,0);
},
{
name = top;
pos = (149,430);
}
);
associatedMasterId = "14EEE41F-D714-4243-A717-73445EE7DABA";
layerId = "147D4047-638D-4D26-A940-EFB2BFE2C2E3";
name = "Dec 4 19, 13:57";
shapes = (
{
closed = 1;
nodes = (
(0,75,l),
(0,0,l),
(126,0,l),
(126,68,l),
(126,68,o),
(70,75,o),
(20,75,cs)
);
},
{
closed = 1;
nodes = (
(206,14,l),
(206,14,o),
(191,138,o),
(191,247,cs),
(191,348,l),
(106,338,l),
(106,265,ls),
(106,194,o),
(115,123,o),
(121,42,c),
(115,0,l),
(191,0,l)
);
},
{
ref = _connection.l;
}
);
width = 256;
},
{
anchors = (
{
name = bottom;
pos = (149,-70);
},
{
name = ring;
pos = (123,0);
},
{
name = top;
pos = (149,430);
}
);
associatedMasterId = "14EEE41F-D714-4243-A717-73445EE7DABA";
layerId = "3C3BDD9F-D7B0-4F7B-B078-CE54E149A5AE";
name = "Dec 4 19, 13:58";
shapes = (
{
closed = 1;
nodes = (
(0,75,l),
(0,0,l),
(126,0,l),
(126,68,l),
(126,68,o),
(70,75,o),
(20,75,cs)
);
},
{
closed = 1;
nodes = (
(206,14,l),
(206,14,o),
(191,138,o),
(191,247,cs),
(191,348,l),
(106,338,l),
(106,0,l),
(191,0,l)
);
},
{
ref = _connection.l;
}
);
width = 256;
},
{
anchors = (
{
name = bottom;
pos = (93,-96);
},
{
name = ring;
pos = (140,61);
},
{
name = top;
pos = (154,469);
}
);
layerId = "090CB6A0-BE7C-4D17-A551-206C7456A8A3";
shapes = (
{
closed = 1;
nodes = (
(221,0,l),
(236,14,l),
(236,14,o),
(221,138,o),
(221,247,cs),
(221,354,l),
(218,362,l),
(86,346,l),
(86,265,ls),
(86,153,o),
(98,42,o),
(98,42,c),
(95,0,l)
);
},
{
closed = 1;
nodes = (
(106,0,l),
(106,119,l),
(0,119,l),
(0,0,l)
);
},
{
ref = _connection.l;
}
);
width = 286;
},
{
anchors = (
{
name = bottom;
pos = (88,-96);
},
{
name = ring;
pos = (140,0);
},
{
name = top;
pos = (149,475);
}
);
associatedMasterId = "090CB6A0-BE7C-4D17-A551-206C7456A8A3";
layerId = "1FE189CD-2164-4C77-A700-392B9CD712B0";
name = "Mar 24 20, 15:16";
shapes = (
{
closed = 1;
nodes = (
(211,0,l),
(226,14,l),
(226,14,o),
(211,138,o),
(211,247,cs),
(211,362,l),
(86,347,l),
(86,265,ls),
(86,153,o),
(98,42,o),
(98,42,c),
(95,0,l)
);
},
{
closed = 1;
nodes = (
(106,0,l),
(106,103,l),
(106,103,o),
(50,110,o),
(0,110,c),
(0,0,l)
);
},
{
ref = _connection.l;
}
);
width = 276;
},
{
anchors = (
{
name = bottom;
pos = (129,-96);
},
{
name = ring;
pos = (103,0);
},
{
name = top;
pos = (129,458);
}
);
associatedMasterId = "14EEE41F-D714-4243-A717-73445EE7DABA";
layerId = "2D089F4E-3173-4340-89FB-E93D79E0CF39";
name = "Sep 26 22, 14:56";
shapes = (
{
closed = 1;
nodes = (
(171,0,l),
(186,14,l),
(186,14,o),
(171,138,o),
(171,247,cs),
(171,362,l),
(86,352,l),
(86,265,ls),
(86,153,o),
(98,42,o),
(98,42,c),
(95,0,l)
);
},
{
closed = 1;
nodes = (
(106,0,l),
(106,68,l),
(106,68,o),
(51,75,o),
(1,75,c),
(0,75,l),
(0,0,l)
);
},
{
ref = _connection.l;
}
);
width = 236;
},
{
anchors = (
{
name = bottom;
pos = (101,-96);
},
{
name = ring;
pos = (93,29);
},
{
name = top;
pos = (101,458);
}
);
layerId = "3114FB65-9464-41A5-B67E-A8F9F43C0EF1";
shapes = (
{
closed = 1;
nodes = (
(116,0,l),
(131,14,l),
(124,77,o),
(116,170,o),
(116,247,cs),
(116,354,l),
(113,362,l),
(86,358,l),
(86,247,ls),
(86,172,o),
(93,83,o),
(101,20,c),
(103,0,l)
);
},
{
closed = 1;
nodes = (
(106,0,l),
(106,30,l),
(0,30,l),
(0,0,l)
);
},
{
ref = _connection.l;
}
);
width = 191;
}
);
metricLeft = "=-20";
metricRight = "=behDotless-ar";
},
{
glyphname = "behDotless-ar.init.high";
layers = (
{
anchors = (
{
name = top;
pos = (124,553);
}
);
layerId = "14EEE41F-D714-4243-A717-73445EE7DABA";
shapes = (
{
closed = 1;
nodes = (
(161,449,l),
(158,457,l),
(86,448,l),
(86,342,l),
(161,342,l)
);
},
{
ref = "behDotless-ar.init";
}
);
width = 231;
},
{
associatedMasterId = "14EEE41F-D714-4243-A717-73445EE7DABA";
layerId = "AA857F37-29A6-4D6C-8A70-77DDB2D759B1";
name = "Nov 20 19, 12:19";
shapes = (
{
closed = 1;
nodes = (
(135,0,l),
(150,14,l),
(144,95,o),
(134,166,o),
(135,237,c),
(135,448,l),
(50,448,l),
(50,135,l),
(63,42,l),
(59,0,l)
);
},
{
closed = 1;
nodes = (
(70,67,l),
(-36,75,l),
(-66,75,l),
(-66,0,l),
(70,0,l)
);
}
);
width = 600;
},
{
associatedMasterId = "14EEE41F-D714-4243-A717-73445EE7DABA";
layerId = "DA6C0E42-7196-464B-AD4B-496AAD5509A4";
name = "Nov 20 19, 12:21";
shapes = (
{
closed = 1;
nodes = (
(135,0,l),
(150,14,l),
(144,95,o),
(134,166,o),
(135,237,c),
(135,448,l),
(50,448,l),
(50,0,l)
);
},
{
closed = 1;
nodes = (
(60,67,l),
(-36,75,l),
(-66,75,l),
(-66,0,l),
(60,0,l)
);
}
);
width = 190;
},
{
anchors = (
{
name = bottom;
pos = (149,-70);
},
{
name = ring;
pos = (123,0);
},
{
name = top;
pos = (149,480);
}
);
associatedMasterId = "14EEE41F-D714-4243-A717-73445EE7DABA";
layerId = "E185AA56-B2D8-4F42-B9C7-E1BAED1D1A7A";
name = "Nov 21 19, 23:29";
shapes = (
{
closed = 1;
nodes = (
(191,0,l),
(206,14,l),
(200,95,o),
(190,166,o),
(191,237,c),
(191,398,l),
(106,398,l),
(106,135,l),
(119,42,l),
(115,0,l)
);
},
{
closed = 1;
nodes = (
(126,67,l),
(20,75,l),
(0,75,l),
(0,0,l),
(126,0,l)
);
},
{
ref = _connection.l;
}
);
width = 256;
},
{
anchors = (
{
name = bottom;
pos = (149,-70);
},
{
name = ring;
pos = (123,0);
},
{
name = top;
pos = (149,430);
}
);
associatedMasterId = "14EEE41F-D714-4243-A717-73445EE7DABA";
layerId = "97A729D1-8061-4233-A1CC-44C9FA2A390E";
name = "Nov 22 19, 17:10";
shapes = (
{
closed = 1;
nodes = (
(191,0,l),
(206,14,l),
(200,95,o),
(190,166,o),
(191,237,c),
(191,348,l),
(106,348,l),
(106,135,l),
(119,42,l),
(115,0,l)
);
},
{
closed = 1;
nodes = (
(126,67,l),
(20,75,l),
(0,75,l),
(0,0,l),
(126,0,l)
);
},
{
ref = _connection.l;
}
);
width = 256;
},
{
anchors = (
{
name = bottom;
pos = (149,-70);
},
{
name = ring;
pos = (123,0);
},
{
name = top;
pos = (149,430);
}
);
associatedMasterId = "14EEE41F-D714-4243-A717-73445EE7DABA";
layerId = "C4126E8E-961E-4191-9154-AFA14C252AA9";
name = "Dec 4 19, 13:56";
shapes = (
{
closed = 1;
nodes = (
(126,67,l),
(20,75,l),
(0,75,l),
(0,0,l),
(126,0,l)
);
},
{
closed = 1;
nodes = (
(191,0,l),
(206,14,l),
(200,95,o),
(191,166,o),
(191,237,cs),
(191,348,l),
(106,348,l),
(106,265,ls),
(106,194,o),
(115,123,o),
(121,42,c),
(115,0,l)
);
},
{
ref = _connection.l;
}
);
width = 256;
},
{
anchors = (
{
name = bottom;
pos = (149,-70);
},
{
name = ring;
pos = (123,0);
},
{
name = top;
pos = (149,430);
}
);
associatedMasterId = "14EEE41F-D714-4243-A717-73445EE7DABA";
layerId = "147D4047-638D-4D26-A940-EFB2BFE2C2E3";
name = "Dec 4 19, 13:57";
shapes = (
{
closed = 1;
nodes = (
(0,75,l),
(0,0,l),
(126,0,l),
(126,68,l),
(126,68,o),
(70,75,o),
(20,75,cs)
);
},
{
closed = 1;
nodes = (
(206,14,l),
(206,14,o),
(191,138,o),
(191,247,cs),
(191,348,l),
(106,338,l),
(106,265,ls),
(106,194,o),
(115,123,o),
(121,42,c),
(115,0,l),
(191,0,l)
);
},
{
ref = _connection.l;
}
);
width = 256;
},
{
anchors = (
{
name = bottom;
pos = (149,-70);
},
{
name = ring;
pos = (123,0);
},
{
name = top;
pos = (149,430);
}
);
associatedMasterId = "14EEE41F-D714-4243-A717-73445EE7DABA";
layerId = "3C3BDD9F-D7B0-4F7B-B078-CE54E149A5AE";
name = "Dec 4 19, 13:58";
shapes = (
{
closed = 1;
nodes = (
(0,75,l),
(0,0,l),
(126,0,l),
(126,68,l),
(126,68,o),
(70,75,o),
(20,75,cs)
);
},
{
closed = 1;
nodes = (
(206,14,l),
(206,14,o),
(191,138,o),
(191,247,cs),
(191,348,l),
(106,338,l),
(106,0,l),
(191,0,l)
);
},
{
ref = _connection.l;
}
);
width = 256;
},
{
anchors = (
{
name = top;
pos = (154,564);
}
);
layerId = "090CB6A0-BE7C-4D17-A551-206C7456A8A3";
shapes = (
{
closed = 1;
nodes = (
(221,449,l),
(218,457,l),
(86,441,l),
(86,312,l),
(221,312,l)
);
},
{
ref = "behDotless-ar.init";
}
);
width = 286;
},
{
anchors = (
{
name = bottom;
pos = (88,-96);
},
{
name = ring;
pos = (140,0);
},
{
name = top;
pos = (149,571);
}
);
associatedMasterId = "090CB6A0-BE7C-4D17-A551-206C7456A8A3";
layerId = "13ECEC7B-B340-409A-AEBE-6CF53A6997FD";
name = "Mar 24 20, 15:15";
shapes = (
{
closed = 1;
nodes = (
(211,0,l),
(226,14,l),
(226,14,o),
(211,138,o),
(211,247,cs),
(211,458,l),
(86,443,l),
(86,265,ls),
(86,153,o),
(98,42,o),
(98,42,c),
(95,0,l)
);
},
{
closed = 1;
nodes = (
(106,0,l),
(106,103,l),
(106,103,o),
(50,110,o),
(0,110,c),
(0,0,l)
);
},
{
ref = _connection.l;
}
);
width = 276;
},
{
anchors = (
{
name = top;
pos = (101,553);
}
);
layerId = "3114FB65-9464-41A5-B67E-A8F9F43C0EF1";
shapes = (
{
closed = 1;
nodes = (
(116,449,l),
(113,457,l),
(86,453,l),
(86,342,l),
(116,342,l)
);
},
{
ref = "behDotless-ar.init";
}
);
width = 191;
}
);
metricLeft = "=-20";
metricRight = "=behDotless-ar";
},
